<?xml version="1.0" standalone="no"?>
<!DOCTYPE svg PUBLIC "-//W3C//DTD SVG 1.1//EN" "http://www.w3.org/Graphics/SVG/1.1/DTD/svg11.dtd" >
<svg xmlns="http://www.w3.org/2000/svg" xmlns:xlink="http://www.w3.org/1999/xlink" version="1.1">
<metadata>
Created by FontForge 20201107 at Wed Dec 25 16:16:21 2024
 By 
Copyright (c) 2020 by Massimiliano Vitti, Due Studio. All rights reserved.
</metadata>
<defs>
<font id="LayGrotesk-Semibold" horiz-adv-x="1687" >
  <font-face 
    font-family="Lay Grotesk Semibold"
    font-weight="600"
    font-stretch="normal"
    units-per-em="2048"
    panose-1="0 0 7 0 0 0 0 0 0 0"
    ascent="1638"
    descent="-410"
    x-height="1044"
    cap-height="1454"
    bbox="-352 -510 2697 1937"
    underline-thickness="102"
    underline-position="-204"
    unicode-range="U+000D-1F441"
  />
<missing-glyph horiz-adv-x="1228" 
d="M1137 756l-426 426v-142l426 -426v-206l-426 426v-142l426 -426v-207l-426 426v-485h-195v483l-424 -424v207l424 424v141l-424 -423v206l424 424v142l-424 -424v207l522 522l523 -522v-207z" />
    <glyph glyph-name="f_f" unicode="ff" horiz-adv-x="1247" 
d="M1122 1270q-62 0 -84 -25.5t-22 -93.5v-107h229v-178h-229v-866h-258v866h-309v-866h-261v866h-163v178h163v123q0 153 63.5 220t219.5 67h207v-184h-123q-62 0 -84 -25.5t-22 -93.5v-107h309v123q0 154 62.5 220.5t219.5 66.5h205v-184h-123z" />
    <glyph glyph-name="f_f_i" unicode="ffi" horiz-adv-x="1689" 
d="M1585 1044v-1044h-260v866h-309v-866h-258v866h-309v-866h-261v866h-163v178h163v123q0 153 63.5 220t219.5 67h207v-184h-123q-62 0 -84 -25.5t-22 -93.5v-107h309v123q0 154 62.5 220.5t219.5 66.5h205v-184h-123q-62 0 -84 -25.5t-22 -93.5v-107h569zM1325 1454h260
v-246h-260v246z" />
    <glyph glyph-name="f_f_l" unicode="ffl" horiz-adv-x="1689" 
d="M1325 1454h260v-1454h-260v866h-309v-866h-258v866h-309v-866h-261v866h-163v178h163v123q0 153 63.5 220t219.5 67h207v-184h-123q-62 0 -84 -25.5t-22 -93.5v-107h309v123q0 154 62.5 220.5t219.5 66.5h205v-184h-123q-62 0 -84 -25.5t-22 -93.5v-107h309v410z" />
    <glyph glyph-name="f_i" unicode="fi" horiz-adv-x="1120" 
d="M1016 1044v-1044h-258v866h-309v-866h-261v866h-163v178h163v123q0 153 63.5 220t219.5 67h207v-184h-123q-62 0 -84 -25.5t-22 -93.5v-107h567zM758 1454h258v-246h-258v246z" />
    <glyph glyph-name="f_l" unicode="fl" horiz-adv-x="1120" 
d="M758 1454h258v-1454h-258v866h-309v-866h-261v866h-163v178h163v123q0 153 63.5 220t219.5 67h207v-184h-123q-62 0 -84 -25.5t-22 -93.5v-107h309v410z" />
    <glyph glyph-name=".notdef" horiz-adv-x="1228" 
d="M1137 756l-426 426v-142l426 -426v-206l-426 426v-142l426 -426v-207l-426 426v-485h-195v483l-424 -424v207l424 424v141l-424 -423v206l424 424v142l-424 -424v207l522 522l523 -522v-207z" />
    <glyph glyph-name=".null" horiz-adv-x="0" 
 />
    <glyph glyph-name="nonmarkingreturn" horiz-adv-x="682" 
 />
    <glyph glyph-name="CR" unicode="&#xd;" horiz-adv-x="382" 
 />
    <glyph glyph-name="space" unicode=" " horiz-adv-x="382" 
 />
    <glyph glyph-name="exclam" unicode="!" horiz-adv-x="501" 
d="M113 1010v444h276v-444l-78 -561h-123zM399 295v-295h-297v295h297z" />
    <glyph glyph-name="quotedbl" unicode="&#x22;" horiz-adv-x="753" 
d="M309 1454v-500h-215v500h215zM659 1454v-500h-215v500h215z" />
    <glyph glyph-name="numbersign" unicode="#" horiz-adv-x="1323" 
d="M1237 891h-229l-56 -295h230l-35 -186h-229l-76 -410h-185l76 410h-268l-76 -410h-186l76 410h-226l35 186h225l56 295h-228l37 188h225l70 375h186l-69 -375h268l70 375h184l-70 -375h230zM768 596l55 295h-268l-55 -295h268z" />
    <glyph glyph-name="dollar" unicode="$" horiz-adv-x="1275" 
d="M1214 416q0 -132 -66.5 -231t-180.5 -151.5t-262 -58.5v-170h-121v175q-239 20 -374.5 147.5t-154.5 339.5h273q29 -240 256 -274v464q-187 58 -266 98q-183 93 -212 253q-6 33 -6 69q0 176 135.5 283.5t348.5 118.5v149h121v-153q208 -18 331.5 -130.5t151.5 -293.5
h-266q-26 183 -217 215v-400q203 -62 285 -103q159 -80 204 -212q20 -60 20 -135zM371 1096q0 -72 53 -114t160 -79v367q-95 -8 -154 -55.5t-59 -118.5zM705 188q111 8 175 65.5t64 154.5q0 86 -55 129t-184 84v-433z" />
    <glyph glyph-name="percent" unicode="%" horiz-adv-x="1820" 
d="M403 625q-111 0 -191.5 57.5t-119.5 151.5t-39 213q0 184 92 301.5t258 117.5t257.5 -117.5t91.5 -301.5q0 -183 -92 -302.5t-257 -119.5zM1546 1454l-1057 -1454h-217l1057 1454h217zM403 768q83 0 122.5 77.5t39.5 201.5t-39.5 200t-122.5 76q-84 0 -123.5 -75.5
t-39.5 -200.5q0 -124 39.5 -201.5t123.5 -77.5zM1417 -12q-111 0 -191.5 57.5t-119.5 151.5t-39 213q0 184 92 301.5t258 117.5t257 -117.5t91 -301.5q0 -183 -91.5 -302.5t-256.5 -119.5zM1417 131q83 0 122.5 77.5t39.5 201.5t-39.5 200t-122.5 76q-84 0 -124 -75.5
t-40 -200.5q0 -124 40 -201.5t124 -77.5z" />
    <glyph glyph-name="ampersand" unicode="&#x26;" horiz-adv-x="1429" 
d="M1479 0h-312l-153 156q-194 -181 -461 -181q-221 0 -360.5 118.5t-139.5 301.5q0 75 23.5 138.5t70 115t97.5 90t123 80.5q-83 88 -128.5 168t-45.5 164q0 145 116.5 236.5t294.5 91.5q114 0 208.5 -39t152 -114t57.5 -173q0 -67 -22.5 -121.5t-70.5 -100t-95 -77
t-123 -72.5q23 -25 69 -71l205 -207q47 115 59 248l248 2q-26 -239 -139 -424zM610 1288q-70 0 -111.5 -38t-41.5 -105q0 -83 110 -213q111 65 154 111.5t43 109.5q0 62 -44 98.5t-110 36.5zM582 186q158 0 280 125l-350 359q-93 -56 -139.5 -113t-46.5 -141
q0 -99 73.5 -164.5t182.5 -65.5z" />
    <glyph glyph-name="quotesingle" unicode="'" horiz-adv-x="403" 
d="M309 1454v-500h-215v500h215z" />
    <glyph glyph-name="parenleft" unicode="(" horiz-adv-x="581" 
d="M59 602q0 437 289 901h207q-242 -453 -242 -901t242 -901h-207q-289 464 -289 901z" />
    <glyph glyph-name="parenright" unicode=")" horiz-adv-x="581" 
d="M522 602q0 -437 -289 -901h-206q239 448 239 901t-239 901h206q289 -464 289 -901z" />
    <glyph glyph-name="asterisk" unicode="*" horiz-adv-x="763" 
d="M98 1303l213 -66v217h142v-217l213 66l43 -134l-207 -65l127 -180l-117 -86l-131 184l-133 -184l-117 86l131 180l-207 65z" />
    <glyph glyph-name="plus" unicode="+" horiz-adv-x="1288" 
d="M1169 639v-233h-393v-406h-266v406h-391v233h391v405h266v-405h393z" />
    <glyph glyph-name="comma" unicode="," horiz-adv-x="487" 
d="M94 295h297v-295q0 -136 -73.5 -206.5t-223.5 -84.5v137q81 8 116.5 40t35.5 114h-152v295z" />
    <glyph glyph-name="hyphen" unicode="-" horiz-adv-x="774" 
d="M96 649h582v-233h-582v233z" />
    <glyph glyph-name="period" unicode="." horiz-adv-x="487" 
d="M391 295v-295h-297v295h297z" />
    <glyph glyph-name="slash" unicode="/" horiz-adv-x="1013" 
d="M979 1454l-688 -1454h-256l688 1454h256z" />
    <glyph glyph-name="zero" unicode="0" horiz-adv-x="1339" 
d="M670 -25q-148 0 -263.5 59t-187.5 163t-108.5 238.5t-36.5 291.5t36.5 291.5t108.5 238.5t187.5 163t263.5 59q119 0 218 -38.5t168.5 -107.5t117.5 -163.5t71 -206t23 -236.5t-23 -236.5t-71 -206t-117.5 -163.5t-168.5 -107.5t-218 -38.5zM670 193q84 0 147 42.5
t99.5 118t54.5 169t18 204.5t-18 204.5t-54.5 169t-99.5 118.5t-147 43t-147 -43t-99.5 -118.5t-54 -169t-17.5 -204.5q0 -88 10.5 -165t35 -145.5t60.5 -117.5t90.5 -77.5t121.5 -28.5z" />
    <glyph glyph-name="one" unicode="1" horiz-adv-x="751" 
d="M10 1219h56q146 0 229 50t108 185h215v-1454h-268v1028h-340v191z" />
    <glyph glyph-name="two" unicode="2" horiz-adv-x="1224" 
d="M401 225h750v-225h-1090q3 99 21.5 180.5t59.5 149t78 115.5t109 102t119 85t140 87q155 92 217.5 160t62.5 168q0 90 -65.5 152.5t-184.5 62.5q-131 0 -204 -78.5t-82 -222.5h-271q11 236 156.5 377t403.5 141q128 0 230 -34.5t165 -94t96 -135t33 -160.5
q0 -130 -63.5 -227t-219.5 -197q-35 -23 -109 -71t-105 -69.5t-83 -60.5t-77 -66t-50.5 -64t-36.5 -75z" />
    <glyph glyph-name="three" unicode="3" horiz-adv-x="1261" 
d="M346 1014q12 122 86 185t193 63q112 0 178.5 -52.5t66.5 -140.5q0 -97 -77 -150t-205 -53h-51v-198h53q151 0 238 -57.5t87 -172.5q0 -114 -76 -178.5t-208 -64.5q-263 0 -307 247h-275q12 -100 53 -183t111.5 -147.5t177.5 -100.5t242 -36q261 0 410 123t149 328
q0 145 -88.5 239.5t-239.5 116.5q130 27 205.5 105.5t75.5 204.5q0 178 -143.5 282.5t-376.5 104.5q-153 0 -273.5 -52.5t-195.5 -159t-84 -253.5h274z" />
    <glyph glyph-name="four" unicode="4" horiz-adv-x="1261" 
d="M1231 541v-211h-238v-330h-268v330h-711v211l711 913h268v-913h238zM260 541h465v598z" />
    <glyph glyph-name="five" unicode="5" horiz-adv-x="1253" 
d="M705 991q218 0 349.5 -139.5t131.5 -357.5q0 -228 -148 -373.5t-413 -145.5q-132 0 -239 38t-175.5 103t-109 145t-50.5 169h275q20 -104 96 -172t201 -68q130 0 206 84t76 220q0 135 -76 217t-204 82q-84 0 -154 -42t-111 -112h-270l98 815h928v-225h-704l-50 -389
q120 151 343 151z" />
    <glyph glyph-name="six" unicode="6" horiz-adv-x="1286" 
d="M672 -25q-150 0 -265.5 57t-187.5 159.5t-108.5 239.5t-36.5 302q0 122 22.5 231t70.5 204t117.5 163.5t170.5 108t223 39.5q114 0 206.5 -32.5t152.5 -88.5t97 -123.5t52 -144.5h-268q-20 80 -82.5 132t-159.5 52q-163 0 -247 -135.5t-89 -397.5q43 103 143 168.5
t234 65.5q219 0 359.5 -139.5t140.5 -362.5q0 -221 -154 -359.5t-391 -138.5zM662 190q124 0 201 80.5t77 208.5t-77.5 212.5t-200.5 84.5q-124 0 -204.5 -82.5t-80.5 -208.5q0 -128 80 -211.5t205 -83.5z" />
    <glyph glyph-name="seven" unicode="7" horiz-adv-x="1093" 
d="M6 1454h1079v-225q-97 -72 -175.5 -154.5t-132 -157t-97 -174.5t-68 -172.5t-47 -189t-32 -185t-25.5 -196.5h-285q14 94 23 153t26 147t33.5 147.5t42.5 139.5t56 140t72.5 131.5t92.5 130.5t115 121.5t141 118.5h-819v225z" />
    <glyph glyph-name="eight" unicode="8" horiz-adv-x="1298" 
d="M938 778q136 -47 213.5 -140.5t77.5 -221.5q0 -200 -159 -320.5t-421 -120.5q-267 0 -423 120t-156 321q0 128 76 221.5t212 140.5q-115 44 -178 124t-63 192q0 172 148 278.5t384 106.5q235 0 384 -106.5t149 -278.5q0 -113 -64 -193.5t-180 -122.5zM649 1278
q-113 0 -186.5 -57t-73.5 -146q0 -91 73 -148t187 -57t188 57t74 148q0 89 -74.5 146t-187.5 57zM649 188q134 0 218.5 67t84.5 181q0 113 -84.5 180.5t-218.5 67.5q-135 0 -219 -67.5t-84 -180.5q0 -114 84 -181t219 -67z" />
    <glyph glyph-name="nine" unicode="9" horiz-adv-x="1286" 
d="M612 1479q150 0 265.5 -57t187.5 -159.5t108.5 -239.5t36.5 -302q0 -153 -36.5 -285.5t-108 -236.5t-189 -164t-268.5 -60q-115 0 -207.5 32.5t-152.5 89t-97 123.5t-53 145h271q19 -80 80.5 -132.5t158.5 -52.5q326 0 338 533q-43 -103 -144 -168.5t-235 -65.5
q-218 0 -357.5 139.5t-139.5 362.5q0 221 152.5 359.5t389.5 138.5zM625 1264q-125 0 -202 -80.5t-77 -208.5t77.5 -212.5t201.5 -84.5t203 82t79 209q0 129 -78.5 212t-203.5 83z" />
    <glyph glyph-name="colon" unicode=":" horiz-adv-x="489" 
d="M393 1044v-294h-297v294h297zM393 295v-295h-297v295h297z" />
    <glyph glyph-name="semicolon" unicode=";" horiz-adv-x="491" 
d="M98 1044h297v-294h-297v294zM98 0v295h297v-295q0 -135 -74 -206t-223 -85v137q79 8 114.5 40t35.5 114h-150z" />
    <glyph glyph-name="less" unicode="&#x3c;" horiz-adv-x="1288" 
d="M1122 1044v-229l-723 -293l723 -293v-229l-966 403v238z" />
    <glyph glyph-name="equal" unicode="=" horiz-adv-x="1288" 
d="M1169 831v-217h-1050v217h1050zM1169 444v-217h-1050v217h1050z" />
    <glyph glyph-name="greater" unicode="&#x3e;" horiz-adv-x="1288" 
d="M166 1044l967 -403v-238l-967 -403v229l723 293l-723 293v229z" />
    <glyph glyph-name="question" unicode="?" horiz-adv-x="1120" 
d="M412 514q0 73 14.5 128t54 101.5t62 66.5t84.5 65q12 9 18 14q39 28 60 45.5t44.5 43.5t33.5 54t10 62q0 75 -59.5 124.5t-162.5 49.5q-112 0 -181.5 -65.5t-78.5 -176.5h-266q19 211 153 332t373 121q123 0 220 -30.5t155.5 -83.5t88.5 -119t30 -142q0 -111 -54 -186.5
t-157 -147.5q-93 -69 -122 -100q-62 -69 -62 -174v-47h-258v65zM688 295v-295h-297v295h297z" />
    <glyph glyph-name="at" unicode="@" horiz-adv-x="1779" 
d="M53 598q0 163 47.5 305.5t131.5 246.5t195.5 179t242.5 112.5t270 37.5q132 0 253.5 -32.5t223.5 -97t177.5 -154.5t118 -212t42.5 -262q0 -251 -110 -407t-295 -156q-98 0 -169.5 48t-99.5 132q-90 -180 -301 -180q-124 0 -206 68.5t-82 183.5q0 48 11.5 86.5t37 68
t55 51.5t75.5 40.5t88.5 32t104.5 28.5q150 35 186 52q58 26 58 73q0 39 -39.5 61.5t-110.5 22.5q-75 0 -128.5 -32t-71.5 -95h-217q30 122 142.5 195t281.5 73q166 0 258 -60t92 -176q0 -28 -22.5 -197.5t-22.5 -201.5q0 -54 26.5 -83.5t79.5 -29.5q82 0 143.5 102.5
t61.5 289.5q0 192 -85.5 332.5t-231 211t-330.5 70.5q-141 0 -267.5 -49.5t-224 -140t-154.5 -230.5t-57 -309q0 -193 79 -343t232.5 -236.5t360.5 -86.5q110 0 223 26t203 69v-158q-187 -88 -430 -88q-249 0 -441 101t-298.5 287.5t-106.5 430.5zM709 432q0 -56 37.5 -84.5
t99.5 -28.5q97 0 157.5 67.5t73.5 168.5l17 129q-19 -30 -59 -48t-120 -42q-109 -30 -157.5 -63t-48.5 -99z" />
    <glyph glyph-name="A" unicode="A" horiz-adv-x="1386" 
d="M1085 0l-110 338h-567l-111 -338h-291l522 1454h330l524 -1454h-297zM481 561h420l-209 643z" />
    <glyph glyph-name="B" unicode="B" horiz-adv-x="1386" 
d="M977 770q159 -19 254.5 -110.5t95.5 -237.5q0 -198 -132 -310t-370 -112h-694v1454h674q207 0 334 -98t127 -271q0 -129 -81 -211.5t-208 -103.5zM760 1223h-348v-369h348q108 0 166.5 48t58.5 140q0 89 -58.5 135t-166.5 46zM791 236q120 0 185.5 52t65.5 154t-68 153.5
t-190 51.5h-372v-411h379z" />
    <glyph glyph-name="C" unicode="C" horiz-adv-x="1456" 
d="M776 -25q-212 0 -374 95.5t-249 266t-87 390.5t87 390.5t249 266t374 95.5q128 0 238 -39t189 -107.5t132.5 -160t75.5 -199.5h-289q-29 121 -119 193.5t-227 72.5q-196 0 -309 -141.5t-113 -370.5t113 -370.5t309 -141.5q145 0 231 71.5t115 194.5h289
q-22 -108 -73.5 -199.5t-130 -160.5t-189 -107.5t-242.5 -38.5z" />
    <glyph glyph-name="D" unicode="D" horiz-adv-x="1447" 
d="M700 1454q220 0 374.5 -92.5t230 -254.5t75.5 -380t-75.5 -380t-230 -254.5t-374.5 -92.5h-569v1454h569zM664 240q214 0 321 124.5t107 362.5t-107 362.5t-321 124.5h-252v-974h252z" />
    <glyph glyph-name="E" unicode="E" horiz-adv-x="1280" 
d="M414 240h794v-240h-1077v1454h1067v-240h-784v-356h706v-219h-706v-399z" />
    <glyph glyph-name="F" unicode="F" horiz-adv-x="1216" 
d="M1178 1214h-764v-368h688v-221h-688v-625h-283v1454h1047v-240z" />
    <glyph glyph-name="G" unicode="G" horiz-adv-x="1519" 
d="M737 -25q-202 0 -355 95.5t-234.5 266t-81.5 390.5q0 165 50.5 304t141.5 238t224.5 154.5t293.5 55.5q129 0 239.5 -37t189.5 -102.5t131.5 -151.5t74.5 -187h-287q-34 106 -123.5 172t-222.5 66q-197 0 -310.5 -141.5t-113.5 -370.5t113.5 -370.5t312.5 -141.5
q160 0 255.5 91.5t103.5 236.5v32h-396v216h670v-791h-233v223q-53 -112 -167.5 -180t-275.5 -68z" />
    <glyph glyph-name="H" unicode="H" horiz-adv-x="1449" 
d="M1038 1454h281v-1454h-281v631h-626v-631h-281v1454h281v-580h626v580z" />
    <glyph glyph-name="I" unicode="I" horiz-adv-x="540" 
d="M412 1454v-1454h-281v1454h281z" />
    <glyph glyph-name="J" unicode="J" horiz-adv-x="866" 
d="M31 0v246h219q108 0 160.5 51.5t52.5 167.5v989h280v-1042q0 -209 -100.5 -310.5t-316.5 -101.5h-295z" />
    <glyph glyph-name="K" unicode="K" horiz-adv-x="1353" 
d="M1061 0l-473 700l-176 -172v-528h-281v1454h281v-598l608 598h342l-586 -571l606 -883h-321z" />
    <glyph glyph-name="L" unicode="L" horiz-adv-x="1179" 
d="M412 246h733v-246h-1014v1454h281v-1208z" />
    <glyph glyph-name="M" unicode="M" horiz-adv-x="1767" 
d="M1636 1454v-1454h-262v1169l-368 -1169h-244l-369 1169v-1169h-262v1454h404l350 -1126l348 1126h403z" />
    <glyph glyph-name="N" unicode="N" horiz-adv-x="1499" 
d="M1098 1454h270v-1454h-346l-621 1130v-1130h-270v1454h346l621 -1130v1130z" />
    <glyph glyph-name="O" unicode="O" horiz-adv-x="1550" 
d="M774 -25q-160 0 -292.5 55.5t-223.5 154.5t-141.5 238t-50.5 304t50.5 304t141.5 238t223.5 154.5t292.5 55.5q213 0 375 -95.5t249 -266t87 -390.5t-87 -390.5t-249 -266t-375 -95.5zM774 215q197 0 309.5 141.5t112.5 370.5t-112.5 370.5t-309.5 141.5
q-196 0 -308 -141.5t-112 -370.5t112 -370.5t308 -141.5z" />
    <glyph glyph-name="P" unicode="P" horiz-adv-x="1282" 
d="M768 1454q218 0 349.5 -120t131.5 -322q0 -203 -131.5 -323t-349.5 -120h-356v-569h-281v1454h637zM713 799q122 0 187 53t65 160q0 105 -65.5 159t-186.5 54h-301v-426h301z" />
    <glyph glyph-name="Q" unicode="Q" horiz-adv-x="1554" 
d="M1571 0h-252l-117 106q-179 -131 -428 -131q-160 0 -292.5 55.5t-223.5 154.5t-141.5 238t-50.5 304t50.5 304t141.5 238t223.5 154.5t292.5 55.5q213 0 375 -95.5t249 -266t87 -390.5q0 -302 -162 -506zM774 215q134 0 230 68l-291 262h250l155 -139q78 132 78 321
q0 229 -112.5 370.5t-309.5 141.5q-196 0 -308 -141.5t-112 -370.5t112 -370.5t308 -141.5z" />
    <glyph glyph-name="R" unicode="R" horiz-adv-x="1368" 
d="M770 1454q230 0 367 -106.5t137 -292.5q0 -147 -84 -240t-234 -123q138 -21 196.5 -103.5t76.5 -246.5q22 -212 98 -342h-303q-61 133 -80 338q-12 142 -71 194t-205 52h-256v-584h-281v1454h639zM709 807q137 0 208.5 52.5t71.5 156.5t-71.5 156.5t-208.5 52.5h-297
v-418h297z" />
    <glyph glyph-name="S" unicode="S" horiz-adv-x="1318" 
d="M686 -25q-290 0 -457 133.5t-186 358.5h291q37 -268 356 -268q130 0 207.5 55t77.5 154q0 41 -14 71t-36.5 50.5t-65.5 39t-84.5 31t-110.5 31.5q-43 12 -66 18q-191 51 -264 82q-175 76 -224 209q-22 60 -22 133q0 185 155.5 295.5t395.5 110.5q256 0 410 -115.5
t186 -312.5h-281q-18 105 -101 157t-216 52q-119 0 -191.5 -45.5t-72.5 -124.5q0 -85 101 -135q57 -27 230 -72q10 -2 17 -4q205 -54 290 -92q180 -80 230 -224q21 -61 21 -137q0 -142 -75 -245t-204 -154.5t-297 -51.5z" />
    <glyph glyph-name="T" unicode="T" horiz-adv-x="1259" 
d="M1229 1454v-242h-459v-1212h-281v1212h-458v242h1198z" />
    <glyph glyph-name="U" unicode="U" horiz-adv-x="1423" 
d="M713 -25q-128 0 -234 31.5t-187.5 95t-127 166.5t-45.5 238v948h280v-924q0 -152 82.5 -233.5t231.5 -81.5q148 0 230.5 81.5t82.5 233.5v924h281v-948q0 -135 -45.5 -238t-127.5 -166.5t-188 -95t-233 -31.5z" />
    <glyph glyph-name="V" unicode="V" horiz-adv-x="1329" 
d="M1030 1454h289l-488 -1454h-333l-486 1454h287l367 -1178z" />
    <glyph glyph-name="W" unicode="W" horiz-adv-x="1945" 
d="M1638 1454h281l-358 -1454h-306l-282 1120l-283 -1120h-307l-356 1454h280l248 -1141l272 1141h289l275 -1137z" />
    <glyph glyph-name="X" unicode="X" horiz-adv-x="1284" 
d="M496 729l-496 725h315l326 -502l338 502h303l-494 -725l504 -729h-317l-334 512l-342 -512h-307z" />
    <glyph glyph-name="Y" unicode="Y" horiz-adv-x="1316" 
d="M8 1454h299l352 -643l357 643h297l-516 -889v-565h-281v569z" />
    <glyph glyph-name="Z" unicode="Z" horiz-adv-x="1259" 
d="M375 246h831v-246h-1159v246l811 964h-772v244h1100v-244z" />
    <glyph glyph-name="bracketleft" unicode="[" horiz-adv-x="667" 
d="M635 1294h-262v-1384h262v-209h-512v1802h512v-209z" />
    <glyph glyph-name="backslash" unicode="\" horiz-adv-x="1013" 
d="M35 1454h256l688 -1454h-256z" />
    <glyph glyph-name="bracketright" unicode="]" horiz-adv-x="667" 
d="M543 1503v-1802h-512v209h262v1384h-262v209h512z" />
    <glyph glyph-name="asciicircum" unicode="^" horiz-adv-x="2045" 
d="M1483 842h-230l-231 428l-231 -428h-230l346 612h230z" />
    <glyph glyph-name="underscore" unicode="_" horiz-adv-x="1058" 
d="M72 0h917v-231h-917v231z" />
    <glyph glyph-name="grave" unicode="`" horiz-adv-x="837" 
d="M477 1454l199 -274h-211l-307 274h319z" />
    <glyph glyph-name="a" unicode="a" horiz-adv-x="1085" 
d="M408 -25q-157 0 -259 86t-102 234q0 61 19.5 109.5t51 81.5t86 61t110 46.5t137.5 39.5q158 41 186 52q78 29 85 76q1 6 1 13q0 52 -49 83.5t-135 31.5q-92 0 -146.5 -39.5t-60.5 -112.5h-256q20 145 142 236.5t329 91.5q212 0 327 -86.5t115 -249.5v-729h-246v178
q-32 -90 -114.5 -146.5t-220.5 -56.5zM494 156q110 0 174.5 80t64.5 200v182q-16 -39 -60.5 -64t-131.5 -52q-117 -35 -172.5 -76t-55.5 -117q0 -71 50.5 -112t130.5 -41z" />
    <glyph glyph-name="b" unicode="b" horiz-adv-x="1177" 
d="M684 -25q-110 0 -192.5 50t-129.5 137v-162h-258v1454h258v-575q47 88 129.5 137t192.5 49q199 0 319.5 -153t120.5 -392q0 -240 -120.5 -392.5t-319.5 -152.5zM602 168q116 0 182 97t66 255q0 160 -65.5 256t-182.5 96q-116 0 -181 -96t-65 -256q0 -159 65 -255.5
t181 -96.5z" />
    <glyph glyph-name="c" unicode="c" horiz-adv-x="1101" 
d="M1065 356q-35 -183 -162.5 -282t-320.5 -99q-155 0 -276.5 71t-188 195.5t-66.5 280.5q0 235 147.5 389t381.5 154q193 0 321.5 -100t163.5 -279h-260q-21 91 -76.5 141t-144.5 50q-122 0 -190 -97.5t-68 -257.5q0 -162 68 -260t190 -98q176 0 221 192h260z" />
    <glyph glyph-name="d" unicode="d" horiz-adv-x="1177" 
d="M494 -25q-198 0 -319.5 152.5t-121.5 392.5q0 157 54.5 280.5t155 194t231.5 70.5q110 0 192 -49t129 -137v575h258v-1454h-258v162q-47 -87 -129.5 -137t-191.5 -50zM575 168q116 0 181 96.5t65 255.5q0 160 -65 256t-181 96t-180.5 -96t-64.5 -256q0 -159 64.5 -255.5
t180.5 -96.5z" />
    <glyph glyph-name="e" unicode="e" horiz-adv-x="1148" 
d="M51 522q0 155 65.5 278t187 194t278.5 71q161 0 281.5 -78t181.5 -214t55 -308h-783q8 -143 79 -224t192 -81q174 0 233 172h258q-45 -160 -173 -258.5t-320 -98.5q-237 0 -386 154.5t-149 392.5zM838 627q-19 119 -85 187.5t-171 68.5t-171.5 -68.5t-84.5 -187.5h512z
" />
    <glyph glyph-name="f" unicode="f" horiz-adv-x="679" 
d="M555 1270q-62 0 -84 -25.5t-22 -93.5v-107h229v-178h-229v-866h-261v866h-163v178h163v123q0 153 63.5 220t219.5 67h207v-184h-123z" />
    <glyph glyph-name="g" unicode="g" horiz-adv-x="1175" 
d="M584 -373q-205 0 -332.5 86t-153.5 226h264q18 -67 75 -105.5t149 -38.5q114 0 169.5 61t55.5 187v147q-93 -178 -322 -178q-200 0 -318 147t-118 382q0 230 119.5 377t316.5 147q110 0 192.5 -49t129.5 -137v165h260v-948q0 -230 -121.5 -349.5t-365.5 -119.5zM571 203
q116 0 182 91.5t66 246.5q0 152 -66 242.5t-182 90.5q-114 0 -179.5 -90.5t-65.5 -242.5q0 -155 65 -246.5t180 -91.5z" />
    <glyph glyph-name="h" unicode="h" horiz-adv-x="1138" 
d="M104 1454h258v-580q105 191 336 191q166 0 255 -93.5t89 -256.5v-715h-260v657q0 100 -45 152.5t-145 52.5q-101 0 -165.5 -73.5t-64.5 -194.5v-594h-258v1454z" />
    <glyph glyph-name="i" unicode="i" horiz-adv-x="466" 
d="M104 1454h258v-246h-258v246zM104 1044h258v-1044h-258v1044z" />
    <glyph glyph-name="j" unicode="j" horiz-adv-x="466" 
d="M104 1454h258v-246h-258v246zM362 -33q0 -171 -69 -243t-242 -72h-123v186h78q60 0 79 24.5t19 94.5v1087h258v-1077z" />
    <glyph glyph-name="k" unicode="k" horiz-adv-x="1077" 
d="M819 0l-323 498l-134 -127v-371h-258v1454h258v-782l386 372h317l-395 -380l442 -664h-293z" />
    <glyph glyph-name="l" unicode="l" horiz-adv-x="466" 
d="M104 1454h258v-1454h-258v1454z" />
    <glyph glyph-name="m" unicode="m" horiz-adv-x="1738" 
d="M104 1044h254v-167q112 188 328 188q116 0 192 -54.5t105 -156.5q48 96 136.5 153.5t205.5 57.5q148 0 232.5 -88t84.5 -248v-729h-260v657q0 205 -172 205q-91 0 -148.5 -73.5t-57.5 -194.5v-594h-261v657q0 205 -172 205q-92 0 -150.5 -74t-58.5 -194v-594h-258v1044z
" />
    <glyph glyph-name="n" unicode="n" horiz-adv-x="1138" 
d="M104 1044h254v-170q113 191 340 191q166 0 255 -93.5t89 -256.5v-715h-260v657q0 100 -45 152.5t-145 52.5q-101 0 -165.5 -73.5t-64.5 -194.5v-594h-258v1044z" />
    <glyph glyph-name="o" unicode="o" horiz-adv-x="1163" 
d="M582 -25q-237 0 -384 154t-147 393q0 155 65.5 278t187 194t278.5 71t278 -71t186.5 -194t65.5 -278q0 -239 -146.5 -393t-383.5 -154zM582 164q121 0 188.5 98t67.5 260q0 160 -67.5 257.5t-188.5 97.5t-188.5 -97.5t-67.5 -257.5q0 -162 67.5 -260t188.5 -98z" />
    <glyph glyph-name="p" unicode="p" horiz-adv-x="1177" 
d="M104 1044h258v-165q47 87 129.5 136.5t192.5 49.5q199 0 319.5 -152.5t120.5 -392.5q0 -239 -120.5 -392t-319.5 -153q-110 0 -192.5 49.5t-129.5 137.5v-510h-258v1392zM602 168q117 0 182.5 96t65.5 256q0 158 -66 255t-182 97t-181 -96.5t-65 -255.5q0 -160 65 -256
t181 -96z" />
    <glyph glyph-name="q" unicode="q" horiz-adv-x="1177" 
d="M815 162q-47 -88 -129 -137.5t-192 -49.5q-131 0 -231.5 70.5t-155 194t-54.5 280.5q0 240 121.5 392.5t319.5 152.5q110 0 192 -49.5t129 -136.5v165h258v-1392h-258v510zM575 168q116 0 181 96t65 256q0 159 -65 255.5t-181 96.5t-180.5 -96.5t-64.5 -255.5
q0 -160 64.5 -256t180.5 -96z" />
    <glyph glyph-name="r" unicode="r" horiz-adv-x="749" 
d="M662 1044h71v-233h-100q-136 0 -203 -63.5t-68 -217.5v-530h-258v1044h252v-194q32 85 109.5 139.5t196.5 54.5z" />
    <glyph glyph-name="s" unicode="s" horiz-adv-x="1038" 
d="M539 -25q-222 0 -354.5 95.5t-149.5 267.5h264q10 -94 74 -140t166 -46q91 0 137.5 40.5t46.5 102.5q0 66 -49.5 94t-192.5 62q-81 19 -133.5 34.5t-110.5 41.5t-91 56t-54.5 76t-21.5 105q0 136 122 219.5t322 83.5t319 -86.5t140 -228.5h-260q-9 68 -61.5 105.5
t-139.5 37.5q-82 0 -131 -32.5t-49 -80.5q0 -24 10.5 -42.5t26 -30.5t48 -23.5t61.5 -19.5t80 -20q9 -2 13 -3q59 -14 97.5 -24.5t87 -27t79.5 -33t63.5 -41.5t51 -53.5t30 -67.5t11.5 -85q0 -159 -123 -247.5t-329 -88.5z" />
    <glyph glyph-name="t" unicode="t" horiz-adv-x="706" 
d="M662 866h-230v-565q0 -68 22 -91.5t85 -23.5h123v-186h-207q-156 0 -218.5 67t-62.5 216v583h-156v178h156v279h258v-279h230v-178z" />
    <glyph glyph-name="u" unicode="u" horiz-adv-x="1126" 
d="M436 -25q-161 0 -250.5 96t-89.5 259v714h258v-659q0 -205 187 -205q98 0 160.5 73.5t62.5 195.5v595h258v-1044h-254v168q-108 -193 -332 -193z" />
    <glyph glyph-name="v" unicode="v" horiz-adv-x="1036" 
d="M762 1044h268l-358 -1044h-307l-361 1044h279l237 -804z" />
    <glyph glyph-name="w" unicode="w" horiz-adv-x="1613" 
d="M1335 1044h271l-322 -1044h-276l-201 752l-203 -752h-274l-324 1044h273l208 -788l195 788h250l194 -784z" />
    <glyph glyph-name="x" unicode="x" horiz-adv-x="1013" 
d="M373 532l-367 512h277l227 -319l227 319h271l-365 -507l385 -537h-278l-244 342l-244 -342h-274z" />
    <glyph glyph-name="y" unicode="y" horiz-adv-x="1048" 
d="M270 1044l256 -776l258 776h260l-391 -1064q-71 -196 -148.5 -262t-242.5 -66h-162v188h95q83 0 121 29t75 131l-391 1044h270z" />
    <glyph glyph-name="z" unicode="z" horiz-adv-x="993" 
d="M344 201h602v-201h-903v201l584 647h-555v196h856v-196z" />
    <glyph glyph-name="braceleft" unicode="{" horiz-adv-x="681" 
d="M442 821q0 -96 -44.5 -148t-135.5 -71q91 -19 135.5 -71t44.5 -148v-334q0 -84 31 -112.5t113 -28.5h57v-207h-113q-179 0 -259.5 68.5t-80.5 250.5v347q0 69 -34.5 99.5t-116.5 33.5v205q82 3 116.5 33.5t34.5 99.5v346q0 182 80.5 250.5t259.5 68.5h113v-207h-57
q-82 0 -113 -28.5t-31 -112.5v-334z" />
    <glyph glyph-name="bar" unicode="|" horiz-adv-x="434" 
d="M311 1454v-1679h-188v1679h188z" />
    <glyph glyph-name="braceright" unicode="}" horiz-adv-x="681" 
d="M489 838q0 -68 36 -99t116 -34v-205q-80 -3 -116 -34t-36 -99v-347q0 -94 -20.5 -156t-64.5 -98t-104 -50.5t-148 -14.5h-115v207h59q82 0 113 28.5t31 112.5v334q0 96 44.5 148t135.5 71q-91 19 -135.5 71t-44.5 148v334q0 84 -31 112.5t-113 28.5h-59v207h115
q88 0 148 -14.5t104 -50.5t64.5 -98t20.5 -156v-346z" />
    <glyph glyph-name="asciitilde" unicode="~" horiz-adv-x="1288" 
d="M854 612q94 0 107 113h198q-10 -144 -78.5 -229.5t-197.5 -85.5q-67 0 -154 28t-166 56t-127 28q-93 0 -106 -112h-201q9 144 79 229.5t200 85.5q66 0 153 -28.5t166 -56.5t127 -28z" />
    <glyph glyph-name="uni00A0" unicode="&#xa0;" horiz-adv-x="382" 
 />
    <glyph glyph-name="exclamdown" unicode="&#xa1;" horiz-adv-x="481" 
d="M389 782h-297v297h297v-297zM102 68l76 563h123l78 -563v-443h-277v443z" />
    <glyph glyph-name="cent" unicode="&#xa2;" horiz-adv-x="1187" 
d="M686 156q141 32 184 200h238q-33 -167 -144 -265.5t-278 -113.5v-172h-121v172q-210 22 -339.5 172.5t-129.5 372.5q0 221 129 371t340 170v156h121v-156q166 -17 277 -116t145 -261h-238q-20 80 -66 132.5t-118 66.5v-729zM344 522q0 -148 58.5 -245.5t162.5 -120.5v729
q-104 -23 -162.5 -119.5t-58.5 -243.5z" />
    <glyph glyph-name="sterling" unicode="&#xa3;" horiz-adv-x="1277" 
d="M952 188q146 0 256 113v-231q-101 -95 -274 -95q-66 0 -136 15t-121.5 33.5t-124.5 33.5t-144 15q-168 0 -334 -97v215q44 26 68.5 41.5t67.5 49t66.5 63t42.5 73.5t19 91q0 62 -25 123h-239v147h170q-32 57 -50 93.5t-34.5 91t-16.5 104.5q0 179 141.5 295.5
t379.5 116.5q243 0 384 -125t160 -342h-262q-13 118 -80 189t-194 71q-117 0 -184.5 -60.5t-67.5 -160.5q0 -20 2.5 -39t10 -42t12 -36.5t18.5 -41.5l18 -36t22.5 -41t20.5 -37h398v-147h-336q10 -42 10 -78q0 -97 -58.5 -168t-177.5 -139q84 33 158 33q77 0 216.5 -45.5
t217.5 -45.5z" />
    <glyph glyph-name="currency" unicode="&#xa4;" horiz-adv-x="1095" 
d="M956 698q0 -136 -63 -233l133 -133l-117 -115l-133 133q-97 -63 -225 -63q-129 0 -229 65l-136 -135l-114 115l133 133q-66 101 -66 233q0 133 66 234l-133 133l114 115l136 -136q101 66 229 66t225 -63l133 133l117 -115l-133 -133q63 -97 63 -234zM551 444
q96 0 152.5 70t56.5 184q0 116 -56.5 185t-152.5 69q-98 0 -156.5 -69t-58.5 -185q0 -113 58.5 -183.5t156.5 -70.5z" />
    <glyph glyph-name="yen" unicode="&#xa5;" horiz-adv-x="1302" 
d="M1264 1454l-465 -809h284v-125h-307v-129h307v-125h-307v-266h-254v266h-307v125h307v129h-307v125h285l-461 809h283l331 -643l334 643h277z" />
    <glyph glyph-name="brokenbar" unicode="&#xa6;" horiz-adv-x="434" 
d="M311 1454v-727h-188v727h188zM311 502v-727h-188v727h188z" />
    <glyph glyph-name="section" unicode="&#xa7;" horiz-adv-x="1251" 
d="M1196 492q0 -104 -63 -177.5t-164 -109.5q106 -95 106 -234q0 -154 -125 -249t-321 -95q-209 0 -338 108.5t-150 280.5h254q12 -87 74 -137.5t158 -50.5q86 0 135 35.5t49 93.5q0 35 -16.5 63t-57 56t-79 48.5t-111.5 56.5q-17 8 -25 12q-24 12 -68.5 33t-69 33t-64 33
t-62.5 35.5t-55 37t-50.5 41t-39.5 44.5t-32 51.5t-18.5 56.5t-7.5 65q0 104 64.5 174.5t169.5 105.5q-111 97 -111 236q0 153 124 246.5t319 93.5q205 0 330.5 -102.5t144.5 -266.5h-254q-10 82 -68 125t-153 43q-82 0 -130.5 -33.5t-48.5 -89.5q0 -35 15.5 -62.5t61 -58
t78 -48t116.5 -58.5l16 -8q25 -12 68.5 -33t68.5 -33t64 -32.5t62.5 -35t55 -36.5t50.5 -41t40 -44.5t32 -51t18.5 -56.5t7.5 -65zM618 410q204 -102 220 -111q52 22 81 59t29 84q0 26 -8.5 49t-30.5 45.5t-43.5 40t-63.5 41.5t-75 41t-92 46q-145 69 -215 108
q-54 -23 -85.5 -60t-31.5 -85q0 -22 8 -43t19 -37.5t36.5 -36.5t44.5 -33t60 -34.5t67 -34.5t80 -39z" />
    <glyph glyph-name="dieresis" unicode="&#xa8;" horiz-adv-x="1060" 
d="M434 1454v-242h-256v242h256zM860 1454v-242h-258v242h258z" />
    <glyph glyph-name="copyright" unicode="&#xa9;" horiz-adv-x="1685" 
d="M842 -29q-154 0 -293.5 59t-240 160t-159.5 241.5t-59 297.5q0 155 59 295t159.5 240.5t240 159.5t293.5 59t293 -59t239.5 -159.5t159.5 -240.5t59 -295q0 -157 -58.5 -297.5t-159 -241.5t-239.5 -160t-294 -59zM842 94q172 0 313 83.5t221 229t80 322.5
q0 175 -80 319.5t-221 228t-313 83.5q-171 0 -312 -83.5t-221 -228t-80 -319.5q0 -177 80 -322.5t221 -229t312 -83.5zM852 307q-181 0 -293.5 117.5t-112.5 304.5q0 186 112.5 303t293.5 117q144 0 242 -80t125 -205h-193q-18 60 -62.5 95.5t-111.5 35.5
q-98 0 -156.5 -70.5t-58.5 -195.5q0 -124 58.5 -196t156.5 -72q67 0 111.5 35.5t62.5 95.5h193q-27 -125 -124 -205t-243 -80z" />
    <glyph glyph-name="ordfeminine" unicode="&#xaa;" horiz-adv-x="653" 
d="M49 1034q0 82 52.5 123t166.5 70q103 27 124 39q24 14 24 37t-23.5 36t-64.5 13q-44 0 -71.5 -17.5t-31.5 -50.5h-159q9 80 79.5 131t186.5 51q120 0 186 -48t66 -140v-410h-156v103q-34 -115 -178 -115q-87 0 -144 47.5t-57 130.5zM213 1051q0 -37 25 -57.5t63 -20.5
q57 0 90 40t33 101v90q-15 -37 -98 -59q-61 -20 -87 -38.5t-26 -55.5z" />
    <glyph glyph-name="guillemotleft" unicode="&#xab;" horiz-adv-x="1056" 
d="M573 891l-247 -369l247 -368h-235l-266 368l266 369h235zM967 891l-248 -369l248 -368h-236l-266 368l266 369h236z" />
    <glyph glyph-name="logicalnot" unicode="&#xac;" horiz-adv-x="1288" 
d="M141 831h987v-636h-266v419h-721v217z" />
    <glyph glyph-name="registered" unicode="&#xae;" horiz-adv-x="1685" 
d="M842 -29q-154 0 -293.5 59t-240 160t-159.5 241.5t-59 297.5q0 155 59 295t159.5 240.5t240 159.5t293.5 59t293 -59t239.5 -159.5t159.5 -240.5t59 -295q0 -157 -58.5 -297.5t-159 -241.5t-239.5 -160t-294 -59zM842 94q172 0 313 83.5t221 229t80 322.5
q0 175 -80 319.5t-221 228t-313 83.5q-171 0 -312 -83.5t-221 -228t-80 -319.5q0 -177 80 -322.5t221 -229t312 -83.5zM903 1137q135 0 213 -60t78 -166q0 -83 -49 -134t-135 -66q78 -11 113.5 -59.5t45.5 -139.5q13 -125 56 -193h-195q-32 74 -43 189q-7 78 -40.5 105.5
t-112.5 27.5h-115v-322h-182v818h366zM866 782q142 0 142 105q0 104 -142 104h-147v-209h147z" />
    <glyph glyph-name="macron" unicode="&#xaf;" horiz-adv-x="946" 
d="M791 1415v-180h-633v180h633z" />
    <glyph glyph-name="degree" unicode="&#xb0;" horiz-adv-x="729" 
d="M365 840q-132 0 -226 93.5t-94 225.5t94 226t226 94t225.5 -94t93.5 -226t-93.5 -225.5t-225.5 -93.5zM365 993q69 0 114 48t45 118q0 69 -45 117.5t-114 48.5q-68 0 -114 -49t-46 -117q0 -70 46 -118t114 -48z" />
    <glyph glyph-name="plusminus" unicode="&#xb1;" horiz-adv-x="1288" 
d="M510 571h-391v211h391v262h266v-262h393v-211h-393v-262h-266v262zM121 203h1048v-203h-1048v203z" />
    <glyph glyph-name="uni00B2" unicode="&#xb2;" horiz-adv-x="722" 
d="M274 1014h400v-148h-631q3 49 12.5 91t21.5 74t36 63.5t43.5 52t56 48t61.5 44t72 45.5q80 47 110.5 81.5t30.5 84.5q0 45 -32.5 73.5t-87.5 28.5q-64 0 -101 -38t-43 -111h-180q8 135 93 214t233 79q143 0 221 -68.5t78 -171.5q0 -71 -38 -125t-126 -112
q-16 -11 -60 -42t-61 -44t-45 -36t-42 -42.5t-22 -40.5z" />
    <glyph glyph-name="uni00B3" unicode="&#xb3;" horiz-adv-x="745" 
d="M231 1438q11 116 138 116q56 0 89.5 -24t33.5 -66q0 -98 -140 -98h-28v-135h30q79 0 120.5 -30t41.5 -87q0 -55 -38.5 -86t-104.5 -31q-130 0 -152 119h-182q13 -115 99 -188.5t235 -73.5t238 69t89 185q0 79 -51 133t-135 68q73 16 116.5 58.5t43.5 111.5
q0 98 -86 157.5t-219 59.5t-222 -67.5t-96 -190.5h180z" />
    <glyph glyph-name="acute" unicode="&#xb4;" horiz-adv-x="837" 
d="M373 1180h-211l198 274h322z" />
    <glyph glyph-name="paragraph" unicode="&#xb6;" horiz-adv-x="1204" 
d="M1057 1454v-1454h-189v1280h-143v-1280h-190v709h-76q-181 0 -295.5 98.5t-114.5 273.5t115 274t295 99h598z" />
    <glyph glyph-name="periodcentered" unicode="&#xb7;" horiz-adv-x="489" 
d="M393 670v-295h-297v295h297z" />
    <glyph glyph-name="cedilla" unicode="&#xb8;" horiz-adv-x="821" 
d="M496 0l-115 -80q87 0 146 -34.5t59 -100.5q0 -81 -65 -119.5t-173 -38.5h-135v99h90q113 0 113 63q0 27 -24.5 41t-63.5 14h-74v72l102 84h140z" />
    <glyph glyph-name="uni00B9" unicode="&#xb9;" horiz-adv-x="471" 
d="M20 1550h33q83 0 130.5 28.5t60.5 104.5h147v-817h-176v557h-195v127z" />
    <glyph glyph-name="ordmasculine" unicode="&#xba;" horiz-adv-x="696" 
d="M348 854q-135 0 -219 86.5t-84 220.5q0 133 84 219t219 86q134 0 218.5 -86t84.5 -219t-84.5 -220t-218.5 -87zM348 975q62 0 96.5 50.5t34.5 135.5q0 86 -34.5 136.5t-96.5 50.5t-97.5 -50.5t-35.5 -136.5q0 -84 35.5 -135t97.5 -51z" />
    <glyph glyph-name="guillemotright" unicode="&#xbb;" horiz-adv-x="1056" 
d="M326 891l266 -369l-266 -368h-236l248 368l-248 369h236zM721 891l266 -369l-266 -368h-236l248 368l-248 369h236z" />
    <glyph glyph-name="onequarter" unicode="&#xbc;" horiz-adv-x="1646" 
d="M242 637v557h-193v127h33q81 0 128.5 28.5t61.5 104.5h146v-817h-176zM1235 1454h217l-1057 -1454h-217zM1593 313v-139h-135v-174h-176v174h-399v139l399 504h176v-504h135zM1051 313h231v291z" />
    <glyph glyph-name="onehalf" unicode="&#xbd;" horiz-adv-x="1751" 
d="M242 637v557h-193v127h33q81 0 128.5 28.5t61.5 104.5h146v-817h-176zM1235 1454h217l-1057 -1454h-217zM1284 147h399v-147h-628q2 57 12.5 103.5t32.5 85t43 66t61.5 59t69.5 51t84 53.5q79 47 109 81.5t30 84.5q0 45 -33 73.5t-88 28.5q-62 0 -99.5 -38t-43.5 -111
h-178q6 134 91 213t232 79q143 0 222 -68.5t79 -170.5q0 -71 -39 -125.5t-127 -112.5q-14 -10 -59.5 -42t-61.5 -44t-44 -36t-42 -43t-22 -40z" />
    <glyph glyph-name="threequarters" unicode="&#xbe;" horiz-adv-x="1804" 
d="M717 879q0 -115 -89 -184.5t-237 -69.5q-149 0 -235 73.5t-99 188.5h181q22 -119 153 -119q65 0 104.5 31t39.5 86q0 57 -42 86.5t-122 29.5h-31v136h29q139 0 139 98q0 42 -33 66t-88 24q-128 0 -139 -117h-178q7 123 95.5 190.5t221.5 67.5q131 0 217 -59.5t86 -157.5
q0 -69 -43.5 -111.5t-116.5 -58.5q85 -14 136 -67.5t51 -132.5zM1397 1454h215l-1057 -1454h-215zM1753 313v-139h-133v-174h-176v174h-400v139l400 504h176v-504h133zM1212 313h232v293z" />
    <glyph glyph-name="questiondown" unicode="&#xbf;" horiz-adv-x="1110" 
d="M426 782v297h297v-297h-297zM705 565q0 -60 -13 -110t-30.5 -83t-51.5 -68t-57.5 -53.5t-67.5 -50.5q-9 -7 -14 -10q-40 -29 -60.5 -45.5t-44.5 -42.5t-34 -54t-10 -62q0 -75 59.5 -125.5t163.5 -50.5q112 0 181 65t77 176h266q-18 -210 -151.5 -330t-372.5 -120
q-123 0 -219.5 30t-155.5 82.5t-89 118t-30 141.5q0 112 54.5 188.5t156.5 147.5q93 69 121 99q63 69 63 176v47h259v-66z" />
    <glyph glyph-name="Agrave" unicode="&#xc0;" horiz-adv-x="1386" 
d="M819 1546h-219l-313 248h327zM1085 0l-110 338h-567l-111 -338h-291l522 1454h330l524 -1454h-297zM481 561h420l-209 643z" />
    <glyph glyph-name="Aacute" unicode="&#xc1;" horiz-adv-x="1386" 
d="M1102 1794l-316 -248h-217l203 248h330zM1085 0l-110 338h-567l-111 -338h-291l522 1454h330l524 -1454h-297zM481 561h420l-209 643z" />
    <glyph glyph-name="Acircumflex" unicode="&#xc2;" horiz-adv-x="1386" 
d="M694 1679l-133 -133h-256l258 248h260l258 -248h-256zM1085 0l-110 338h-567l-111 -338h-291l522 1454h330l524 -1454h-297zM481 561h420l-209 643z" />
    <glyph glyph-name="Atilde" unicode="&#xc3;" horiz-adv-x="1386" 
d="M561 1632q-62 0 -78 -86h-153q28 248 213 248q50 0 103.5 -21.5t100 -43t78.5 -21.5q65 0 78 86h154q-28 -248 -211 -248q-50 0 -104 21.5t-101.5 43t-79.5 21.5zM1085 0l-110 338h-567l-111 -338h-291l522 1454h330l524 -1454h-297zM481 561h420l-209 643z" />
    <glyph glyph-name="Adieresis" unicode="&#xc4;" horiz-adv-x="1386" 
d="M614 1780v-230h-258v230h258zM1030 1780v-230h-256v230h256zM1085 0l-110 338h-567l-111 -338h-291l522 1454h330l524 -1454h-297zM481 561h420l-209 643z" />
    <glyph glyph-name="Aring" unicode="&#xc5;" horiz-adv-x="1386" 
d="M696 1520q-93 0 -157 58.5t-64 152.5q0 90 64 148t157 58q87 0 151 -58t64 -148q0 -94 -63.5 -152.5t-151.5 -58.5zM694 1833q-43 0 -70.5 -29.5t-27.5 -74.5q0 -43 28 -73t70 -30q41 0 70 30t29 73q0 44 -29 74t-70 30zM1085 0l-110 338h-567l-111 -338h-291l522 1454
h330l524 -1454h-297zM481 561h420l-209 643z" />
    <glyph glyph-name="AE" unicode="&#xc6;" horiz-adv-x="2127" 
d="M870 1454h1174v-242h-784v-354h708v-219h-708v-397h796v-242h-1081v326h-529l-204 -326h-303zM975 551v623l-389 -623h389z" />
    <glyph glyph-name="Ccedilla" unicode="&#xc7;" horiz-adv-x="1456" 
d="M776 215q145 0 231 71.5t115 194.5h289q-41 -205 -183 -341t-366 -160l-86 -60q88 0 147.5 -34t59.5 -101q0 -81 -66 -119.5t-174 -38.5h-133v99h88q113 0 113 63q0 27 -24.5 41t-63.5 14h-72v72l74 61q-198 11 -348 109t-230.5 264t-80.5 377q0 220 87 390.5t249 266
t374 95.5q128 0 238 -39t189 -107.5t132.5 -160t75.5 -199.5h-289q-29 121 -119 193.5t-227 72.5q-196 0 -309 -141.5t-113 -370.5t113 -370.5t309 -141.5z" />
    <glyph glyph-name="Egrave" unicode="&#xc8;" horiz-adv-x="1280" 
d="M793 1546h-218l-315 248h330zM414 240h794v-240h-1077v1454h1067v-240h-784v-356h706v-219h-706v-399z" />
    <glyph glyph-name="Eacute" unicode="&#xc9;" horiz-adv-x="1280" 
d="M1075 1794l-313 -248h-219l205 248h327zM414 240h794v-240h-1077v1454h1067v-240h-784v-356h706v-219h-706v-399z" />
    <glyph glyph-name="Ecircumflex" unicode="&#xca;" horiz-adv-x="1280" 
d="M668 1679l-131 -133h-256l258 248h260l258 -248h-258zM414 240h794v-240h-1077v1454h1067v-240h-784v-356h706v-219h-706v-399z" />
    <glyph glyph-name="Edieresis" unicode="&#xcb;" horiz-adv-x="1280" 
d="M588 1780v-230h-256v230h256zM1006 1780v-230h-258v230h258zM414 240h794v-240h-1077v1454h1067v-240h-784v-356h706v-219h-706v-399z" />
    <glyph glyph-name="Igrave" unicode="&#xcc;" horiz-adv-x="540" 
d="M190 1794l205 -248h-219l-313 248h327zM412 1454v-1454h-281v1454h281z" />
    <glyph glyph-name="Iacute" unicode="&#xcd;" horiz-adv-x="540" 
d="M365 1546h-220l203 248h330zM412 1454v-1454h-281v1454h281z" />
    <glyph glyph-name="Icircumflex" unicode="&#xce;" horiz-adv-x="540" 
d="M139 1794h260l258 -248h-256l-131 133l-133 -133h-256zM412 1454v-1454h-281v1454h281z" />
    <glyph glyph-name="Idieresis" unicode="&#xcf;" horiz-adv-x="540" 
d="M190 1780v-230h-258v230h258zM606 1780v-230h-256v230h256zM412 1454v-1454h-281v1454h281z" />
    <glyph glyph-name="Eth" unicode="&#xd0;" horiz-adv-x="1495" 
d="M748 1454q220 0 374.5 -92.5t229.5 -254.5t75 -380t-75 -380t-229.5 -254.5t-374.5 -92.5h-570v627h-149v221h149v606h570zM713 240q213 0 319.5 124.5t106.5 362.5t-106.5 362.5t-319.5 124.5h-254v-366h354v-221h-354v-387h254z" />
    <glyph glyph-name="Ntilde" unicode="&#xd1;" horiz-adv-x="1499" 
d="M616 1632q-64 0 -77 -86h-154q28 248 211 248q50 0 104 -21.5t101.5 -43t79.5 -21.5q61 0 77 86h154q-28 -248 -213 -248q-62 0 -154.5 43t-128.5 43zM1098 1454h270v-1454h-346l-621 1130v-1130h-270v1454h346l621 -1130v1130z" />
    <glyph glyph-name="Ograve" unicode="&#xd2;" horiz-adv-x="1550" 
d="M698 1794l203 -248h-219l-313 248h329zM774 -25q-160 0 -292.5 55.5t-223.5 154.5t-141.5 238t-50.5 304t50.5 304t141.5 238t223.5 154.5t292.5 55.5q213 0 375 -95.5t249 -266t87 -390.5t-87 -390.5t-249 -266t-375 -95.5zM774 215q197 0 309.5 141.5t112.5 370.5
t-112.5 370.5t-309.5 141.5q-196 0 -308 -141.5t-112 -370.5t112 -370.5t308 -141.5z" />
    <glyph glyph-name="Oacute" unicode="&#xd3;" horiz-adv-x="1550" 
d="M870 1546h-219l203 248h330zM774 -25q-160 0 -292.5 55.5t-223.5 154.5t-141.5 238t-50.5 304t50.5 304t141.5 238t223.5 154.5t292.5 55.5q213 0 375 -95.5t249 -266t87 -390.5t-87 -390.5t-249 -266t-375 -95.5zM774 215q197 0 309.5 141.5t112.5 370.5t-112.5 370.5
t-309.5 141.5q-196 0 -308 -141.5t-112 -370.5t112 -370.5t308 -141.5z" />
    <glyph glyph-name="Ocircumflex" unicode="&#xd4;" horiz-adv-x="1550" 
d="M647 1794h258l258 -248h-256l-131 133l-133 -133h-256zM774 -25q-160 0 -292.5 55.5t-223.5 154.5t-141.5 238t-50.5 304t50.5 304t141.5 238t223.5 154.5t292.5 55.5q213 0 375 -95.5t249 -266t87 -390.5t-87 -390.5t-249 -266t-375 -95.5zM774 215q197 0 309.5 141.5
t112.5 370.5t-112.5 370.5t-309.5 141.5q-196 0 -308 -141.5t-112 -370.5t112 -370.5t308 -141.5z" />
    <glyph glyph-name="Otilde" unicode="&#xd5;" horiz-adv-x="1550" 
d="M565 1546q16 86 78 86q32 0 79.5 -21.5t101.5 -43t104 -21.5q181 0 213 248h-156q-13 -86 -78 -86q-32 0 -78.5 21.5t-100 43t-103.5 21.5q-181 0 -213 -248h153zM774 -25q-160 0 -292.5 55.5t-223.5 154.5t-141.5 238t-50.5 304t50.5 304t141.5 238t223.5 154.5
t292.5 55.5q213 0 375 -95.5t249 -266t87 -390.5t-87 -390.5t-249 -266t-375 -95.5zM774 215q197 0 309.5 141.5t112.5 370.5t-112.5 370.5t-309.5 141.5q-196 0 -308 -141.5t-112 -370.5t112 -370.5t308 -141.5z" />
    <glyph glyph-name="Odieresis" unicode="&#xd6;" horiz-adv-x="1550" 
d="M696 1780v-230h-258v230h258zM1112 1780v-230h-256v230h256zM774 -25q-160 0 -292.5 55.5t-223.5 154.5t-141.5 238t-50.5 304t50.5 304t141.5 238t223.5 154.5t292.5 55.5q213 0 375 -95.5t249 -266t87 -390.5t-87 -390.5t-249 -266t-375 -95.5zM774 215
q197 0 309.5 141.5t112.5 370.5t-112.5 370.5t-309.5 141.5q-196 0 -308 -141.5t-112 -370.5t112 -370.5t308 -141.5z" />
    <glyph glyph-name="multiply" unicode="&#xd7;" horiz-adv-x="1288" 
d="M160 203l319 319l-319 320l164 166l319 -320l322 320l163 -166l-319 -320l319 -319l-163 -166l-322 319l-319 -319z" />
    <glyph glyph-name="Oslash" unicode="&#xd8;" horiz-adv-x="1552" 
d="M1485 1454l-176 -205q176 -204 176 -522q0 -220 -86.5 -390.5t-248 -266t-374.5 -95.5q-259 0 -440 142l-100 -117h-168l176 205q-176 204 -176 522q0 165 50.5 304t141.5 238t223.5 154.5t292.5 55.5q260 0 441 -142l100 117h168zM354 727q0 -180 72 -309l621 721
q-111 100 -271 100q-196 0 -309 -141.5t-113 -370.5zM1196 727q0 180 -72 309l-618 -721q111 -100 270 -100q196 0 308 141.5t112 370.5z" />
    <glyph glyph-name="Ugrave" unicode="&#xd9;" horiz-adv-x="1423" 
d="M633 1794l205 -248h-220l-313 248h328zM713 -25q-128 0 -234 31.5t-187.5 95t-127 166.5t-45.5 238v948h280v-924q0 -152 82.5 -233.5t231.5 -81.5q148 0 230.5 81.5t82.5 233.5v924h281v-948q0 -135 -45.5 -238t-127.5 -166.5t-188 -95t-233 -31.5z" />
    <glyph glyph-name="Uacute" unicode="&#xda;" horiz-adv-x="1423" 
d="M805 1546h-217l203 248h329zM713 -25q-128 0 -234 31.5t-187.5 95t-127 166.5t-45.5 238v948h280v-924q0 -152 82.5 -233.5t231.5 -81.5q148 0 230.5 81.5t82.5 233.5v924h281v-948q0 -135 -45.5 -238t-127.5 -166.5t-188 -95t-233 -31.5z" />
    <glyph glyph-name="Ucircumflex" unicode="&#xdb;" horiz-adv-x="1423" 
d="M582 1794h260l258 -248h-256l-131 133l-133 -133h-256zM713 -25q-128 0 -234 31.5t-187.5 95t-127 166.5t-45.5 238v948h280v-924q0 -152 82.5 -233.5t231.5 -81.5q148 0 230.5 81.5t82.5 233.5v924h281v-948q0 -135 -45.5 -238t-127.5 -166.5t-188 -95t-233 -31.5z" />
    <glyph glyph-name="Udieresis" unicode="&#xdc;" horiz-adv-x="1423" 
d="M633 1780v-230h-258v230h258zM1049 1780v-230h-256v230h256zM713 -25q-128 0 -234 31.5t-187.5 95t-127 166.5t-45.5 238v948h280v-924q0 -152 82.5 -233.5t231.5 -81.5q148 0 230.5 81.5t82.5 233.5v924h281v-948q0 -135 -45.5 -238t-127.5 -166.5t-188 -95t-233 -31.5z
" />
    <glyph glyph-name="Yacute" unicode="&#xdd;" horiz-adv-x="1316" 
d="M752 1546h-220l205 248h328zM8 1454h299l352 -643l357 643h297l-516 -889v-565h-281v569z" />
    <glyph glyph-name="Thorn" unicode="&#xde;" horiz-adv-x="1300" 
d="M768 1204q218 0 349.5 -120t131.5 -322q0 -203 -131.5 -324t-349.5 -121h-356v-317h-281v1454h281v-250h356zM713 549q122 0 187 53t65 160q0 104 -65.5 158.5t-186.5 54.5h-301v-426h301z" />
    <glyph glyph-name="germandbls" unicode="&#xdf;" horiz-adv-x="1193" 
d="M104 1061q0 198 129.5 308t358.5 110q219 0 349 -102t130 -261q0 -116 -70.5 -187t-179.5 -91q144 -32 234 -132t90 -255q0 -220 -145 -335.5t-422 -115.5h-82v203h45q342 0 342 258q0 130 -86 194t-232 64h-30v184h30q115 0 182.5 51t67.5 144q0 85 -59 136.5t-162 51.5
q-111 0 -171.5 -56t-60.5 -155v-1075h-258v1061z" />
    <glyph glyph-name="agrave" unicode="&#xe0;" horiz-adv-x="1085" 
d="M467 1454l201 -274h-213l-308 274h320zM408 -25q-157 0 -259 86t-102 234q0 61 19.5 109.5t51 81.5t86 61t110 46.5t137.5 39.5q158 41 186 52q78 29 85 76q1 6 1 13q0 52 -49 83.5t-135 31.5q-92 0 -146.5 -39.5t-60.5 -112.5h-256q20 145 142 236.5t329 91.5
q212 0 327 -86.5t115 -249.5v-729h-246v178q-32 -90 -114.5 -146.5t-220.5 -56.5zM494 156q110 0 174.5 80t64.5 200v182q-16 -39 -60.5 -64t-131.5 -52q-117 -35 -172.5 -76t-55.5 -117q0 -71 50.5 -112t130.5 -41z" />
    <glyph glyph-name="aacute" unicode="&#xe1;" horiz-adv-x="1085" 
d="M635 1180h-211l199 274h321zM408 -25q-157 0 -259 86t-102 234q0 61 19.5 109.5t51 81.5t86 61t110 46.5t137.5 39.5q158 41 186 52q78 29 85 76q1 6 1 13q0 52 -49 83.5t-135 31.5q-92 0 -146.5 -39.5t-60.5 -112.5h-256q20 145 142 236.5t329 91.5q212 0 327 -86.5
t115 -249.5v-729h-246v178q-32 -90 -114.5 -146.5t-220.5 -56.5zM494 156q110 0 174.5 80t64.5 200v182q-16 -39 -60.5 -64t-131.5 -52q-117 -35 -172.5 -76t-55.5 -117q0 -71 50.5 -112t130.5 -41z" />
    <glyph glyph-name="acircumflex" unicode="&#xe2;" horiz-adv-x="1085" 
d="M420 1454h252l250 -274h-250l-125 147l-129 -147h-248zM408 -25q-157 0 -259 86t-102 234q0 61 19.5 109.5t51 81.5t86 61t110 46.5t137.5 39.5q158 41 186 52q78 29 85 76q1 6 1 13q0 52 -49 83.5t-135 31.5q-92 0 -146.5 -39.5t-60.5 -112.5h-256q20 145 142 236.5
t329 91.5q212 0 327 -86.5t115 -249.5v-729h-246v178q-32 -90 -114.5 -146.5t-220.5 -56.5zM494 156q110 0 174.5 80t64.5 200v182q-16 -39 -60.5 -64t-131.5 -52q-117 -35 -172.5 -76t-55.5 -117q0 -71 50.5 -112t130.5 -41z" />
    <glyph glyph-name="atilde" unicode="&#xe3;" horiz-adv-x="1085" 
d="M336 1196q16 90 78 90q32 0 79 -22.5t101 -45t104 -22.5q183 0 211 258h-153q-13 -90 -78 -90q-32 0 -79 22.5t-101 45t-103 22.5q-185 0 -213 -258h154zM408 -25q-157 0 -259 86t-102 234q0 61 19.5 109.5t51 81.5t86 61t110 46.5t137.5 39.5q158 41 186 52q78 29 85 76
q1 6 1 13q0 52 -49 83.5t-135 31.5q-92 0 -146.5 -39.5t-60.5 -112.5h-256q20 145 142 236.5t329 91.5q212 0 327 -86.5t115 -249.5v-729h-246v178q-32 -90 -114.5 -146.5t-220.5 -56.5zM494 156q110 0 174.5 80t64.5 200v182q-16 -39 -60.5 -64t-131.5 -52
q-117 -35 -172.5 -76t-55.5 -117q0 -71 50.5 -112t130.5 -41z" />
    <glyph glyph-name="adieresis" unicode="&#xe4;" horiz-adv-x="1085" 
d="M461 1454v-242h-256v242h256zM887 1454v-242h-256v242h256zM408 -25q-157 0 -259 86t-102 234q0 61 19.5 109.5t51 81.5t86 61t110 46.5t137.5 39.5q158 41 186 52q78 29 85 76q1 6 1 13q0 52 -49 83.5t-135 31.5q-92 0 -146.5 -39.5t-60.5 -112.5h-256q20 145 142 236.5
t329 91.5q212 0 327 -86.5t115 -249.5v-729h-246v178q-32 -90 -114.5 -146.5t-220.5 -56.5zM494 156q110 0 174.5 80t64.5 200v182q-16 -39 -60.5 -64t-131.5 -52q-117 -35 -172.5 -76t-55.5 -117q0 -71 50.5 -112t130.5 -41z" />
    <glyph glyph-name="aring" unicode="&#xe5;" horiz-adv-x="1085" 
d="M549 1153q-95 0 -159 58t-64 153q0 92 64.5 150.5t158.5 58.5q89 0 154 -59t65 -150q0 -94 -64.5 -152.5t-154.5 -58.5zM547 1260q43 0 71.5 30t28.5 74t-28.5 74t-71.5 30q-44 0 -72.5 -29.5t-28.5 -74.5t28.5 -74.5t72.5 -29.5zM408 -25q-157 0 -259 86t-102 234
q0 61 19.5 109.5t51 81.5t86 61t110 46.5t137.5 39.5q158 41 186 52q78 29 85 76q1 6 1 13q0 52 -49 83.5t-135 31.5q-92 0 -146.5 -39.5t-60.5 -112.5h-256q20 145 142 236.5t329 91.5q212 0 327 -86.5t115 -249.5v-729h-246v178q-32 -90 -114.5 -146.5t-220.5 -56.5z
M494 156q110 0 174.5 80t64.5 200v182q-16 -39 -60.5 -64t-131.5 -52q-117 -35 -172.5 -76t-55.5 -117q0 -71 50.5 -112t130.5 -41z" />
    <glyph glyph-name="ae" unicode="&#xe6;" horiz-adv-x="1822" 
d="M1262 -25q-156 0 -271.5 66t-169.5 178q-47 -109 -151 -176.5t-254 -67.5q-162 0 -265.5 85.5t-103.5 234.5q0 61 19.5 109.5t51 81.5t86 61t110 46.5t137.5 39.5q158 41 186 52q78 29 85 76q1 6 1 13q0 52 -49 83.5t-135 31.5q-92 0 -146.5 -39.5t-60.5 -112.5h-256
q20 145 142 236.5t329 91.5q125 0 215 -37.5t135 -107.5q64 68 157 106.5t201 38.5q122 0 222 -45.5t167 -125.5t101.5 -190.5t30.5 -238.5h-783q6 -143 78 -224t193 -81q170 0 233 172h258q-45 -160 -173 -258.5t-320 -98.5zM1513 627q-19 119 -85 187.5t-171 68.5
t-172 -68.5t-86 -187.5h514zM494 156q110 0 174.5 80t64.5 200v182q-16 -39 -60.5 -64t-131.5 -52q-117 -35 -172.5 -76t-55.5 -117q0 -71 50.5 -112t130.5 -41z" />
    <glyph glyph-name="ccedilla" unicode="&#xe7;" horiz-adv-x="1101" 
d="M584 164q176 0 221 192h260q-30 -162 -136 -258.5t-267 -117.5l-87 -60q87 0 146 -34.5t59 -100.5q0 -81 -64.5 -119.5t-172.5 -38.5h-135v99h90q112 0 112 63q0 27 -24.5 41t-63.5 14h-73v72l75 61q-213 20 -344 171t-131 374q0 235 148.5 389t382.5 154q192 0 321 -100
t164 -279h-260q-47 191 -223 191q-122 0 -189 -97t-67 -258q0 -162 68 -260t190 -98z" />
    <glyph glyph-name="egrave" unicode="&#xe8;" horiz-adv-x="1148" 
d="M504 1454l198 -274h-210l-308 274h320zM51 522q0 155 65.5 278t187 194t278.5 71q161 0 281.5 -78t181.5 -214t55 -308h-783q8 -143 79 -224t192 -81q174 0 233 172h258q-45 -160 -173 -258.5t-320 -98.5q-237 0 -386 154.5t-149 392.5zM838 627q-19 119 -85 187.5
t-171 68.5t-171.5 -68.5t-84.5 -187.5h512z" />
    <glyph glyph-name="eacute" unicode="&#xe9;" horiz-adv-x="1148" 
d="M672 1180h-213l200 274h320zM51 522q0 155 65.5 278t187 194t278.5 71q161 0 281.5 -78t181.5 -214t55 -308h-783q8 -143 79 -224t192 -81q174 0 233 172h258q-45 -160 -173 -258.5t-320 -98.5q-237 0 -386 154.5t-149 392.5zM838 627q-19 119 -85 187.5t-171 68.5
t-171.5 -68.5t-84.5 -187.5h512z" />
    <glyph glyph-name="ecircumflex" unicode="&#xea;" horiz-adv-x="1148" 
d="M455 1454h254l249 -274h-249l-127 147l-127 -147h-248zM51 522q0 155 65.5 278t187 194t278.5 71q161 0 281.5 -78t181.5 -214t55 -308h-783q8 -143 79 -224t192 -81q174 0 233 172h258q-45 -160 -173 -258.5t-320 -98.5q-237 0 -386 154.5t-149 392.5zM838 627
q-19 119 -85 187.5t-171 68.5t-171.5 -68.5t-84.5 -187.5h512z" />
    <glyph glyph-name="edieresis" unicode="&#xeb;" horiz-adv-x="1148" 
d="M498 1454v-242h-258v242h258zM924 1454v-242h-258v242h258zM51 522q0 155 65.5 278t187 194t278.5 71q161 0 281.5 -78t181.5 -214t55 -308h-783q8 -143 79 -224t192 -81q174 0 233 172h258q-45 -160 -173 -258.5t-320 -98.5q-237 0 -386 154.5t-149 392.5zM838 627
q-19 119 -85 187.5t-171 68.5t-171.5 -68.5t-84.5 -187.5h512z" />
    <glyph glyph-name="igrave" unicode="&#xec;" horiz-adv-x="466" 
d="M156 1454l200 -274h-213l-307 274h320zM104 1044h258v-1044h-258v1044z" />
    <glyph glyph-name="iacute" unicode="&#xed;" horiz-adv-x="466" 
d="M324 1180h-211l198 274h320zM104 1044h258v-1044h-258v1044z" />
    <glyph glyph-name="icircumflex" unicode="&#xee;" horiz-adv-x="466" 
d="M109 1454h251l250 -274h-250l-127 147l-127 -147h-247zM104 1044h258v-1044h-258v1044z" />
    <glyph glyph-name="idieresis" unicode="&#xef;" horiz-adv-x="466" 
d="M150 1454v-242h-256v242h256zM575 1454v-242h-256v242h256zM104 1044h258v-1044h-258v1044z" />
    <glyph glyph-name="ntilde" unicode="&#xf1;" horiz-adv-x="1138" 
d="M362 1196q16 90 78 90q32 0 79.5 -22.5t101.5 -45t104 -22.5q181 0 213 258h-156q-13 -90 -77 -90q-32 0 -79 22.5t-100.5 45t-103.5 22.5q-181 0 -213 -258h153zM104 1044h254v-170q113 191 340 191q166 0 255 -93.5t89 -256.5v-715h-260v657q0 100 -45 152.5t-145 52.5
q-101 0 -165.5 -73.5t-64.5 -194.5v-594h-258v1044z" />
    <glyph glyph-name="ograve" unicode="&#xf2;" horiz-adv-x="1163" 
d="M504 1454l198 -274h-210l-308 274h320zM582 -25q-237 0 -384 154t-147 393q0 155 65.5 278t187 194t278.5 71t278 -71t186.5 -194t65.5 -278q0 -239 -146.5 -393t-383.5 -154zM582 164q121 0 188.5 98t67.5 260q0 160 -67.5 257.5t-188.5 97.5t-188.5 -97.5t-67.5 -257.5
q0 -162 67.5 -260t188.5 -98z" />
    <glyph glyph-name="oacute" unicode="&#xf3;" horiz-adv-x="1163" 
d="M672 1180h-213l200 274h320zM582 -25q-237 0 -384 154t-147 393q0 155 65.5 278t187 194t278.5 71t278 -71t186.5 -194t65.5 -278q0 -239 -146.5 -393t-383.5 -154zM582 164q121 0 188.5 98t67.5 260q0 160 -67.5 257.5t-188.5 97.5t-188.5 -97.5t-67.5 -257.5
q0 -162 67.5 -260t188.5 -98z" />
    <glyph glyph-name="ocircumflex" unicode="&#xf4;" horiz-adv-x="1163" 
d="M455 1454h254l247 -274h-247l-127 147l-127 -147h-248zM582 -25q-237 0 -384 154t-147 393q0 155 65.5 278t187 194t278.5 71t278 -71t186.5 -194t65.5 -278q0 -239 -146.5 -393t-383.5 -154zM582 164q121 0 188.5 98t67.5 260q0 160 -67.5 257.5t-188.5 97.5
t-188.5 -97.5t-67.5 -257.5q0 -162 67.5 -260t188.5 -98z" />
    <glyph glyph-name="otilde" unicode="&#xf5;" horiz-adv-x="1163" 
d="M371 1196q16 90 80 90q31 0 77.5 -22.5t100.5 -45t104 -22.5q181 0 213 258h-153q-16 -90 -80 -90q-31 0 -78 22.5t-101 45t-104 22.5q-181 0 -213 -258h154zM582 -25q-237 0 -384 154t-147 393q0 155 65.5 278t187 194t278.5 71t278 -71t186.5 -194t65.5 -278
q0 -239 -146.5 -393t-383.5 -154zM582 164q121 0 188.5 98t67.5 260q0 160 -67.5 257.5t-188.5 97.5t-188.5 -97.5t-67.5 -257.5q0 -162 67.5 -260t188.5 -98z" />
    <glyph glyph-name="odieresis" unicode="&#xf6;" horiz-adv-x="1163" 
d="M498 1454v-242h-258v242h258zM924 1454v-242h-258v242h258zM582 -25q-237 0 -384 154t-147 393q0 155 65.5 278t187 194t278.5 71t278 -71t186.5 -194t65.5 -278q0 -239 -146.5 -393t-383.5 -154zM582 164q121 0 188.5 98t67.5 260q0 160 -67.5 257.5t-188.5 97.5
t-188.5 -97.5t-67.5 -257.5q0 -162 67.5 -260t188.5 -98z" />
    <glyph glyph-name="divide" unicode="&#xf7;" horiz-adv-x="1288" 
d="M795 1004v-240h-301v240h301zM1169 631v-217h-1050v217h1050zM795 281v-240h-301v240h301z" />
    <glyph glyph-name="oslash" unicode="&#xf8;" horiz-adv-x="1169" 
d="M979 901q137 -149 137 -379q0 -239 -146.5 -393t-383.5 -154q-183 0 -320 97l-61 -72h-135l120 141q-135 151 -135 381q0 155 65.5 278t187 194t278.5 71q178 0 315 -94l64 73h137zM330 522q0 -102 28 -184l398 463q-64 76 -170 76q-121 0 -188.5 -97.5t-67.5 -257.5z
M586 164q121 0 188.5 98t67.5 260q0 106 -31 185l-397 -465q65 -78 172 -78z" />
    <glyph glyph-name="ugrave" unicode="&#xf9;" horiz-adv-x="1126" 
d="M481 1454l199 -274h-211l-307 274h319zM436 -25q-161 0 -250.5 96t-89.5 259v714h258v-659q0 -205 187 -205q98 0 160.5 73.5t62.5 195.5v595h258v-1044h-254v168q-108 -193 -332 -193z" />
    <glyph glyph-name="uacute" unicode="&#xfa;" horiz-adv-x="1126" 
d="M649 1180h-213l201 274h319zM436 -25q-161 0 -250.5 96t-89.5 259v714h258v-659q0 -205 187 -205q98 0 160.5 73.5t62.5 195.5v595h258v-1044h-254v168q-108 -193 -332 -193z" />
    <glyph glyph-name="ucircumflex" unicode="&#xfb;" horiz-adv-x="1126" 
d="M432 1454h254l250 -274h-250l-127 147l-127 -147h-248zM436 -25q-161 0 -250.5 96t-89.5 259v714h258v-659q0 -205 187 -205q98 0 160.5 73.5t62.5 195.5v595h258v-1044h-254v168q-108 -193 -332 -193z" />
    <glyph glyph-name="udieresis" unicode="&#xfc;" horiz-adv-x="1126" 
d="M475 1454v-242h-258v242h258zM901 1454v-242h-258v242h258zM436 -25q-161 0 -250.5 96t-89.5 259v714h258v-659q0 -205 187 -205q98 0 160.5 73.5t62.5 195.5v595h258v-1044h-254v168q-108 -193 -332 -193z" />
    <glyph glyph-name="yacute" unicode="&#xfd;" horiz-adv-x="1048" 
d="M614 1180h-211l199 274h322zM270 1044l256 -776l258 776h260l-391 -1064q-71 -196 -148.5 -262t-242.5 -66h-162v188h95q83 0 121 29t75 131l-391 1044h270z" />
    <glyph glyph-name="thorn" unicode="&#xfe;" horiz-adv-x="1177" 
d="M104 1454h258v-575q47 87 129.5 136.5t192.5 49.5q199 0 319.5 -152.5t120.5 -392.5q0 -239 -120.5 -392t-319.5 -153q-110 0 -192.5 49.5t-129.5 137.5v-510h-258v1802zM602 168q117 0 182.5 96t65.5 256q0 158 -66 255t-182 97t-181 -96.5t-65 -255.5q0 -160 65 -256
t181 -96z" />
    <glyph glyph-name="ydieresis" unicode="&#xff;" horiz-adv-x="1048" 
d="M440 1454v-242h-256v242h256zM866 1454v-242h-256v242h256zM270 1044l256 -776l258 776h260l-391 -1064q-71 -196 -148.5 -262t-242.5 -66h-162v188h95q83 0 121 29t75 131l-391 1044h270z" />
    <glyph glyph-name="Amacron" unicode="&#x100;" horiz-adv-x="1386" 
d="M1016 1759v-178h-645v178h645zM1085 0l-110 338h-567l-111 -338h-291l522 1454h330l524 -1454h-297zM481 561h420l-209 643z" />
    <glyph glyph-name="amacron" unicode="&#x101;" horiz-adv-x="1085" 
d="M862 1415v-180h-633v180h633zM408 -25q-157 0 -259 86t-102 234q0 61 19.5 109.5t51 81.5t86 61t110 46.5t137.5 39.5q158 41 186 52q78 29 85 76q1 6 1 13q0 52 -49 83.5t-135 31.5q-92 0 -146.5 -39.5t-60.5 -112.5h-256q20 145 142 236.5t329 91.5q212 0 327 -86.5
t115 -249.5v-729h-246v178q-32 -90 -114.5 -146.5t-220.5 -56.5zM494 156q110 0 174.5 80t64.5 200v182q-16 -39 -60.5 -64t-131.5 -52q-117 -35 -172.5 -76t-55.5 -117q0 -71 50.5 -112t130.5 -41z" />
    <glyph glyph-name="Abreve" unicode="&#x102;" horiz-adv-x="1386" 
d="M694 1520q-127 0 -219.5 75.5t-101.5 198.5h166q10 -54 51.5 -84.5t103.5 -30.5q60 0 102 30.5t54 84.5h164q-9 -123 -101.5 -198.5t-218.5 -75.5zM1085 0l-110 338h-567l-111 -338h-291l522 1454h330l524 -1454h-297zM481 561h420l-209 643z" />
    <glyph glyph-name="abreve" unicode="&#x103;" horiz-adv-x="1085" 
d="M391 1454q9 -55 51.5 -86t104.5 -31q60 0 101.5 31t53.5 86h164q-9 -127 -101.5 -206t-217.5 -79q-127 0 -220 79t-102 206h166zM408 -25q-157 0 -259 86t-102 234q0 61 19.5 109.5t51 81.5t86 61t110 46.5t137.5 39.5q158 41 186 52q78 29 85 76q1 6 1 13q0 52 -49 83.5
t-135 31.5q-92 0 -146.5 -39.5t-60.5 -112.5h-256q20 145 142 236.5t329 91.5q212 0 327 -86.5t115 -249.5v-729h-246v178q-32 -90 -114.5 -146.5t-220.5 -56.5zM494 156q110 0 174.5 80t64.5 200v182q-16 -39 -60.5 -64t-131.5 -52q-117 -35 -172.5 -76t-55.5 -117
q0 -71 50.5 -112t130.5 -41z" />
    <glyph glyph-name="Aogonek" unicode="&#x104;" horiz-adv-x="1386" 
d="M1231 -143q0 -64 106 -64h45v-141h-120q-109 0 -171.5 39.5t-62.5 111.5q0 119 176 197h-119l-110 338h-567l-111 -338h-291l522 1454h330l524 -1454q-76 -40 -113.5 -73.5t-37.5 -69.5zM481 561h420l-209 643z" />
    <glyph glyph-name="aogonek" unicode="&#x105;" horiz-adv-x="1083" 
d="M987 0q-75 -40 -112 -73.5t-37 -69.5q0 -64 106 -64h43v-141h-119q-109 0 -171 39t-62 112q0 122 170 197h-64v186q-29 -93 -111.5 -152t-221.5 -59q-158 0 -258.5 85.5t-100.5 234.5q0 76 26.5 131t84 93.5t123 63t168.5 50.5q157 41 186 52q76 30 83 76q1 6 1 13
q0 52 -48 83.5t-134 31.5q-93 0 -147.5 -39.5t-61.5 -112.5h-254q20 145 141 236.5t328 91.5q213 0 327.5 -86t114.5 -250v-729zM733 436v182q-16 -39 -60.5 -64t-131.5 -52q-117 -35 -173.5 -76t-56.5 -115q0 -73 50.5 -114t130.5 -41q111 0 176 80t65 200z" />
    <glyph glyph-name="Cacute" unicode="&#x106;" horiz-adv-x="1456" 
d="M870 1546h-219l203 248h330zM776 -25q-212 0 -374 95.5t-249 266t-87 390.5t87 390.5t249 266t374 95.5q128 0 238 -39t189 -107.5t132.5 -160t75.5 -199.5h-289q-29 121 -119 193.5t-227 72.5q-196 0 -309 -141.5t-113 -370.5t113 -370.5t309 -141.5q145 0 231 71.5
t115 194.5h289q-22 -108 -73.5 -199.5t-130 -160.5t-189 -107.5t-242.5 -38.5z" />
    <glyph glyph-name="cacute" unicode="&#x107;" horiz-adv-x="1101" 
d="M670 1180h-211l200 274h320zM1065 356q-35 -183 -162.5 -282t-320.5 -99q-155 0 -276.5 71t-188 195.5t-66.5 280.5q0 235 147.5 389t381.5 154q193 0 321.5 -100t163.5 -279h-260q-21 91 -76.5 141t-144.5 50q-122 0 -190 -97.5t-68 -257.5q0 -162 68 -260t190 -98
q176 0 221 192h260z" />
    <glyph glyph-name="Ccircumflex" unicode="&#x108;" horiz-adv-x="1456" 
d="M645 1794h260l258 -248h-256l-131 133l-133 -133h-256zM776 -25q-212 0 -374 95.5t-249 266t-87 390.5t87 390.5t249 266t374 95.5q128 0 238 -39t189 -107.5t132.5 -160t75.5 -199.5h-289q-29 121 -119 193.5t-227 72.5q-196 0 -309 -141.5t-113 -370.5t113 -370.5
t309 -141.5q145 0 231 71.5t115 194.5h289q-22 -108 -73.5 -199.5t-130 -160.5t-189 -107.5t-242.5 -38.5z" />
    <glyph glyph-name="ccircumflex" unicode="&#x109;" horiz-adv-x="1101" 
d="M455 1454h252l249 -274h-247l-127 147l-129 -147h-248zM1065 356q-35 -183 -162.5 -282t-320.5 -99q-155 0 -276.5 71t-188 195.5t-66.5 280.5q0 235 147.5 389t381.5 154q193 0 321.5 -100t163.5 -279h-260q-21 91 -76.5 141t-144.5 50q-122 0 -190 -97.5t-68 -257.5
q0 -162 68 -260t190 -98q176 0 221 192h260z" />
    <glyph glyph-name="Cdotaccent" unicode="&#x10a;" horiz-adv-x="1456" 
d="M905 1780v-230h-258v230h258zM776 -25q-212 0 -374 95.5t-249 266t-87 390.5t87 390.5t249 266t374 95.5q128 0 238 -39t189 -107.5t132.5 -160t75.5 -199.5h-289q-29 121 -119 193.5t-227 72.5q-196 0 -309 -141.5t-113 -370.5t113 -370.5t309 -141.5q145 0 231 71.5
t115 194.5h289q-22 -108 -73.5 -199.5t-130 -160.5t-189 -107.5t-242.5 -38.5z" />
    <glyph glyph-name="cdotaccent" unicode="&#x10b;" horiz-adv-x="1101" 
d="M711 1454v-242h-258v242h258zM1065 356q-35 -183 -162.5 -282t-320.5 -99q-155 0 -276.5 71t-188 195.5t-66.5 280.5q0 235 147.5 389t381.5 154q193 0 321.5 -100t163.5 -279h-260q-21 91 -76.5 141t-144.5 50q-122 0 -190 -97.5t-68 -257.5q0 -162 68 -260t190 -98
q176 0 221 192h260z" />
    <glyph glyph-name="Ccaron" unicode="&#x10c;" horiz-adv-x="1456" 
d="M645 1794l131 -133l129 133h258l-256 -248h-264l-256 248h258zM776 -25q-212 0 -374 95.5t-249 266t-87 390.5t87 390.5t249 266t374 95.5q128 0 238 -39t189 -107.5t132.5 -160t75.5 -199.5h-289q-29 121 -119 193.5t-227 72.5q-196 0 -309 -141.5t-113 -370.5
t113 -370.5t309 -141.5q145 0 231 71.5t115 194.5h289q-22 -108 -73.5 -199.5t-130 -160.5t-189 -107.5t-242.5 -38.5z" />
    <glyph glyph-name="ccaron" unicode="&#x10d;" horiz-adv-x="1101" 
d="M442 1454l140 -151l139 151h248l-256 -274h-262l-256 274h247zM1065 356q-35 -183 -162.5 -282t-320.5 -99q-155 0 -276.5 71t-188 195.5t-66.5 280.5q0 235 147.5 389t381.5 154q193 0 321.5 -100t163.5 -279h-260q-21 91 -76.5 141t-144.5 50q-122 0 -190 -97.5
t-68 -257.5q0 -162 68 -260t190 -98q176 0 221 192h260z" />
    <glyph glyph-name="Dcaron" unicode="&#x10e;" horiz-adv-x="1447" 
d="M829 1546h-262l-258 248h258l131 -133l129 133h260zM700 1454q220 0 374.5 -92.5t230 -254.5t75.5 -380t-75.5 -380t-230 -254.5t-374.5 -92.5h-569v1454h569zM664 240q214 0 321 124.5t107 362.5t-107 362.5t-321 124.5h-252v-974h252z" />
    <glyph glyph-name="dcaron" unicode="&#x10f;" horiz-adv-x="1200" 
d="M494 -25q-198 0 -319.5 152.5t-121.5 392.5q0 157 54.5 280.5t155 194t231.5 70.5q110 0 192 -49t129 -137v575h258v-1454h-258v162q-47 -87 -129.5 -137t-191.5 -50zM1155 1157q60 6 85.5 31t25.5 76h-111v190h221v-151q0 -119 -54 -174t-167 -64v92zM575 168
q116 0 181 96.5t65 255.5q0 160 -65 256t-181 96t-180.5 -96t-64.5 -256q0 -159 64.5 -255.5t180.5 -96.5z" />
    <glyph glyph-name="Dcroat" unicode="&#x110;" horiz-adv-x="1495" 
d="M748 1454q220 0 374.5 -92.5t229.5 -254.5t75 -380t-75 -380t-229.5 -254.5t-374.5 -92.5h-570v627h-149v221h149v606h570zM713 240q213 0 319.5 124.5t106.5 362.5t-106.5 362.5t-319.5 124.5h-254v-366h354v-221h-354v-387h254z" />
    <glyph glyph-name="dcroat" unicode="&#x111;" horiz-adv-x="1177" 
d="M1202 1303v-144h-129v-1159h-258v162q-47 -87 -129.5 -137t-191.5 -50q-198 0 -319.5 152.5t-121.5 392.5q0 157 54.5 280.5t155 194t231.5 70.5q110 0 192 -49t129 -137v280h-285v144h285v151h258v-151h129zM575 168q116 0 181 96.5t65 255.5q0 160 -65 256t-181 96
t-180.5 -96t-64.5 -256q0 -159 64.5 -255.5t180.5 -96.5z" />
    <glyph glyph-name="Emacron" unicode="&#x112;" horiz-adv-x="1280" 
d="M991 1759v-178h-645v178h645zM414 240h794v-240h-1077v1454h1067v-240h-784v-356h706v-219h-706v-399z" />
    <glyph glyph-name="emacron" unicode="&#x113;" horiz-adv-x="1148" 
d="M899 1415v-180h-633v180h633zM51 522q0 155 65.5 278t187 194t278.5 71q161 0 281.5 -78t181.5 -214t55 -308h-783q8 -143 79 -224t192 -81q174 0 233 172h258q-45 -160 -173 -258.5t-320 -98.5q-237 0 -386 154.5t-149 392.5zM838 627q-19 119 -85 187.5t-171 68.5
t-171.5 -68.5t-84.5 -187.5h512z" />
    <glyph glyph-name="Ebreve" unicode="&#x114;" horiz-adv-x="1280" 
d="M668 1520q-126 0 -218.5 75.5t-101.5 198.5h164q10 -53 52.5 -84t103.5 -31q62 0 103.5 30.5t51.5 84.5h166q-9 -123 -101.5 -198.5t-219.5 -75.5zM414 240h794v-240h-1077v1454h1067v-240h-784v-356h706v-219h-706v-399z" />
    <glyph glyph-name="ebreve" unicode="&#x115;" horiz-adv-x="1148" 
d="M426 1454q10 -55 52 -86t104 -31t103.5 31t51.5 86h166q-10 -128 -102.5 -206.5t-218.5 -78.5q-125 0 -218 79t-102 206h164zM51 522q0 155 65.5 278t187 194t278.5 71q161 0 281.5 -78t181.5 -214t55 -308h-783q8 -143 79 -224t192 -81q174 0 233 172h258
q-45 -160 -173 -258.5t-320 -98.5q-237 0 -386 154.5t-149 392.5zM838 627q-19 119 -85 187.5t-171 68.5t-171.5 -68.5t-84.5 -187.5h512z" />
    <glyph glyph-name="Edotaccent" unicode="&#x116;" horiz-adv-x="1280" 
d="M797 1780v-230h-256v230h256zM414 240h794v-240h-1077v1454h1067v-240h-784v-356h706v-219h-706v-399z" />
    <glyph glyph-name="edotaccent" unicode="&#x117;" horiz-adv-x="1148" 
d="M711 1454v-242h-258v242h258zM51 522q0 155 65.5 278t187 194t278.5 71q161 0 281.5 -78t181.5 -214t55 -308h-783q8 -143 79 -224t192 -81q174 0 233 172h258q-45 -160 -173 -258.5t-320 -98.5q-237 0 -386 154.5t-149 392.5zM838 627q-19 119 -85 187.5t-171 68.5
t-171.5 -68.5t-84.5 -187.5h512z" />
    <glyph glyph-name="Eogonek" unicode="&#x118;" horiz-adv-x="1280" 
d="M1208 0q-75 -39 -112 -73t-37 -70q0 -64 106 -64h43v-141h-121q-109 0 -171 39t-62 112q0 119 176 197h-899v1454h1067v-240h-784v-356h706v-219h-706v-399h794v-240z" />
    <glyph glyph-name="eogonek" unicode="&#x119;" horiz-adv-x="1148" 
d="M51 522q0 155 65.5 278t187 194t278.5 71q161 0 281.5 -78t181.5 -214t55 -308h-783q8 -143 79 -224t192 -81q174 0 233 172h260q-56 -196 -270 -332q-79 -50 -111 -79t-32 -64q0 -64 106 -64h43v-141h-121q-109 0 -171 39t-62 112q0 101 123 172q-241 1 -388 153.5
t-147 393.5zM838 627q-19 119 -85 187.5t-171 68.5t-171.5 -68.5t-84.5 -187.5h512z" />
    <glyph glyph-name="Ecaron" unicode="&#x11a;" horiz-adv-x="1280" 
d="M799 1546h-262l-258 248h258l131 -133l131 133h258zM414 240h794v-240h-1077v1454h1067v-240h-784v-356h706v-219h-706v-399z" />
    <glyph glyph-name="ecaron" unicode="&#x11b;" horiz-adv-x="1148" 
d="M444 1454l140 -151l137 151h250l-258 -274h-260l-258 274h249zM51 522q0 155 65.5 278t187 194t278.5 71q161 0 281.5 -78t181.5 -214t55 -308h-783q8 -143 79 -224t192 -81q174 0 233 172h258q-45 -160 -173 -258.5t-320 -98.5q-237 0 -386 154.5t-149 392.5zM838 627
q-19 119 -85 187.5t-171 68.5t-171.5 -68.5t-84.5 -187.5h512z" />
    <glyph glyph-name="Gcircumflex" unicode="&#x11c;" horiz-adv-x="1519" 
d="M645 1794h260l258 -248h-256l-131 133l-133 -133h-256zM737 -25q-202 0 -355 95.5t-234.5 266t-81.5 390.5q0 165 50.5 304t141.5 238t224.5 154.5t293.5 55.5q129 0 239.5 -37t189.5 -102.5t131.5 -151.5t74.5 -187h-287q-34 106 -123.5 172t-222.5 66
q-197 0 -310.5 -141.5t-113.5 -370.5t113.5 -370.5t312.5 -141.5q160 0 255.5 91.5t103.5 236.5v32h-396v216h670v-791h-233v223q-53 -112 -167.5 -180t-275.5 -68z" />
    <glyph glyph-name="gcircumflex" unicode="&#x11d;" horiz-adv-x="1175" 
d="M455 1454h252l249 -274h-249l-127 147l-127 -147h-248zM584 -373q-205 0 -332.5 86t-153.5 226h264q18 -67 75 -105.5t149 -38.5q114 0 169.5 61t55.5 187v147q-93 -178 -322 -178q-200 0 -318 147t-118 382q0 230 119.5 377t316.5 147q110 0 192.5 -49t129.5 -137v165
h260v-948q0 -230 -121.5 -349.5t-365.5 -119.5zM571 203q116 0 182 91.5t66 246.5q0 152 -66 242.5t-182 90.5q-114 0 -179.5 -90.5t-65.5 -242.5q0 -155 65 -246.5t180 -91.5z" />
    <glyph glyph-name="Gbreve" unicode="&#x11e;" horiz-adv-x="1519" 
d="M621 1794q10 -54 51.5 -84.5t103.5 -30.5q61 0 102.5 30.5t53.5 84.5h164q-9 -123 -101.5 -198.5t-218.5 -75.5t-218.5 75.5t-102.5 198.5h166zM737 -25q-202 0 -355 95.5t-234.5 266t-81.5 390.5q0 165 50.5 304t141.5 238t224.5 154.5t293.5 55.5q129 0 239.5 -37
t189.5 -102.5t131.5 -151.5t74.5 -187h-287q-34 106 -123.5 172t-222.5 66q-197 0 -310.5 -141.5t-113.5 -370.5t113.5 -370.5t312.5 -141.5q160 0 255.5 91.5t103.5 236.5v32h-396v216h670v-791h-233v223q-53 -112 -167.5 -180t-275.5 -68z" />
    <glyph glyph-name="gbreve" unicode="&#x11f;" horiz-adv-x="1175" 
d="M424 1454q10 -55 52.5 -86t103.5 -31q62 0 103.5 31t51.5 86h166q-9 -127 -101.5 -206t-219.5 -79q-125 0 -218 79t-102 206h164zM584 -373q-205 0 -332.5 86t-153.5 226h264q18 -67 75 -105.5t149 -38.5q114 0 169.5 61t55.5 187v147q-93 -178 -322 -178
q-200 0 -318 147t-118 382q0 230 119.5 377t316.5 147q110 0 192.5 -49t129.5 -137v165h260v-948q0 -230 -121.5 -349.5t-365.5 -119.5zM571 203q116 0 182 91.5t66 246.5q0 152 -66 242.5t-182 90.5q-114 0 -179.5 -90.5t-65.5 -242.5q0 -155 65 -246.5t180 -91.5z" />
    <glyph glyph-name="Gdotaccent" unicode="&#x120;" horiz-adv-x="1519" 
d="M905 1780v-230h-258v230h258zM737 -25q-202 0 -355 95.5t-234.5 266t-81.5 390.5q0 165 50.5 304t141.5 238t224.5 154.5t293.5 55.5q129 0 239.5 -37t189.5 -102.5t131.5 -151.5t74.5 -187h-287q-34 106 -123.5 172t-222.5 66q-197 0 -310.5 -141.5t-113.5 -370.5
t113.5 -370.5t312.5 -141.5q160 0 255.5 91.5t103.5 236.5v32h-396v216h670v-791h-233v223q-53 -112 -167.5 -180t-275.5 -68z" />
    <glyph glyph-name="gdotaccent" unicode="&#x121;" horiz-adv-x="1175" 
d="M709 1454v-242h-256v242h256zM584 -373q-205 0 -332.5 86t-153.5 226h264q18 -67 75 -105.5t149 -38.5q114 0 169.5 61t55.5 187v147q-93 -178 -322 -178q-200 0 -318 147t-118 382q0 230 119.5 377t316.5 147q110 0 192.5 -49t129.5 -137v165h260v-948
q0 -230 -121.5 -349.5t-365.5 -119.5zM571 203q116 0 182 91.5t66 246.5q0 152 -66 242.5t-182 90.5q-114 0 -179.5 -90.5t-65.5 -242.5q0 -155 65 -246.5t180 -91.5z" />
    <glyph glyph-name="uni0122" unicode="&#x122;" horiz-adv-x="1519" 
d="M737 -25q-202 0 -355 95.5t-234.5 266t-81.5 390.5q0 165 50.5 304t141.5 238t224.5 154.5t293.5 55.5q129 0 239.5 -37t189.5 -102.5t131.5 -151.5t74.5 -187h-287q-34 106 -123.5 172t-222.5 66q-197 0 -310.5 -141.5t-113.5 -370.5t113.5 -370.5t312.5 -141.5
q160 0 255.5 91.5t103.5 236.5v32h-396v216h670v-791h-233v223q-53 -112 -167.5 -180t-275.5 -68zM655 -408q63 5 91 29.5t28 83.5h-119v203h240v-168q0 -127 -54.5 -184t-185.5 -66v102z" />
    <glyph glyph-name="uni0123" unicode="&#x123;" horiz-adv-x="1175" 
d="M700 1393v-203h-239v172q0 119 54.5 175.5t184.5 68.5v-103q-65 -6 -92 -29.5t-28 -80.5h120zM811 1044h260v-948q0 -230 -121.5 -349.5t-365.5 -119.5q-205 0 -332.5 86t-153.5 226h264q18 -67 75 -105.5t149 -38.5q114 0 169.5 61t55.5 187v147q-93 -178 -322 -178
q-200 0 -318 147t-118 382q0 230 119.5 377t316.5 147q110 0 192.5 -49t129.5 -137v165zM571 203q116 0 182 91.5t66 246.5q0 152 -66 242.5t-182 90.5q-114 0 -179.5 -90.5t-65.5 -242.5q0 -155 65 -246.5t180 -91.5z" />
    <glyph glyph-name="Hcircumflex" unicode="&#x124;" horiz-adv-x="1449" 
d="M725 1679l-133 -133h-256l260 248h258l258 -248h-256zM1038 1454h281v-1454h-281v631h-626v-631h-281v1454h281v-580h626v580z" />
    <glyph glyph-name="hcircumflex" unicode="&#x125;" horiz-adv-x="1138" 
d="M104 1794h261l258 -248h-258l-132 133l-131 -133h-256zM104 1454h258v-580q105 191 336 191q166 0 255 -93.5t89 -256.5v-715h-260v657q0 100 -45 152.5t-145 52.5q-101 0 -165.5 -73.5t-64.5 -194.5v-594h-258v1454z" />
    <glyph glyph-name="Hbar" unicode="&#x126;" horiz-adv-x="1548" 
d="M1518 1235v-174h-150v-1061h-281v631h-628v-631h-281v1061h-147v174h147v219h281v-219h628v219h281v-219h150zM1087 874v187h-628v-187h628z" />
    <glyph glyph-name="hbar" unicode="&#x127;" horiz-adv-x="1138" 
d="M698 1065q166 0 255 -93.5t89 -256.5v-715h-260v657q0 100 -45 152.5t-145 52.5q-101 0 -165.5 -73.5t-64.5 -194.5v-594h-258v1159h-129v144h129v151h258v-151h283v-144h-283v-285q105 191 336 191z" />
    <glyph glyph-name="Itilde" unicode="&#x128;" horiz-adv-x="540" 
d="M59 1546q16 86 78 86q32 0 79.5 -21.5t101.5 -43t104 -21.5q181 0 213 248h-156q-13 -86 -78 -86q-32 0 -78.5 21.5t-100 43t-103.5 21.5q-181 0 -213 -248h153zM412 1454v-1454h-281v1454h281z" />
    <glyph glyph-name="itilde" unicode="&#x129;" horiz-adv-x="466" 
d="M25 1196q13 90 77 90q32 0 79 -22.5t101 -45t103 -22.5q185 0 213 258h-154q-16 -90 -77 -90q-32 0 -79.5 22.5t-101.5 45t-104 22.5q-183 0 -211 -258h154zM104 1044h258v-1044h-258v1044z" />
    <glyph glyph-name="Imacron" unicode="&#x12a;" horiz-adv-x="540" 
d="M592 1759v-178h-643v178h643zM412 1454v-1454h-281v1454h281z" />
    <glyph glyph-name="imacron" unicode="&#x12b;" horiz-adv-x="466" 
d="M551 1415v-180h-633v180h633zM104 1044h258v-1044h-258v1044z" />
    <glyph glyph-name="Ibreve" unicode="&#x12c;" horiz-adv-x="540" 
d="M115 1794q10 -54 51.5 -84.5t103.5 -30.5q61 0 102.5 30.5t53.5 84.5h164q-9 -123 -101.5 -198.5t-218.5 -75.5t-218.5 75.5t-102.5 198.5h166zM412 1454v-1454h-281v1454h281z" />
    <glyph glyph-name="ibreve" unicode="&#x12d;" horiz-adv-x="466" 
d="M78 1454q10 -55 52 -86t103 -31q62 0 104 31t52 86h166q-9 -127 -102 -206t-220 -79q-125 0 -217.5 79t-101.5 206h164zM104 1044h258v-1044h-258v1044z" />
    <glyph glyph-name="Iogonek" unicode="&#x12e;" horiz-adv-x="540" 
d="M412 0q-76 -40 -114 -73.5t-38 -69.5q0 -33 30 -48.5t77 -15.5h45v-141h-121q-109 0 -171.5 39.5t-62.5 111.5q0 119 176 197h-102v1454h281v-1454z" />
    <glyph glyph-name="iogonek" unicode="&#x12f;" horiz-adv-x="466" 
d="M106 1454h256v-242h-256v242zM104 -6v1050h258v-1044q-75 -39 -112 -73t-37 -70q0 -64 106 -64h43v-141h-118q-110 0 -173 39t-63 112q0 114 168 193z" />
    <glyph glyph-name="Idotaccent" unicode="&#x130;" horiz-adv-x="540" 
d="M399 1780v-230h-258v230h258zM412 1454v-1454h-281v1454h281z" />
    <glyph glyph-name="dotlessi" unicode="&#x131;" horiz-adv-x="466" 
d="M104 1044h258v-1044h-258v1044z" />
    <glyph glyph-name="IJ" unicode="&#x132;" horiz-adv-x="1372" 
d="M412 1454v-1454h-281v1454h281zM539 0v246h219q108 0 159.5 51.5t51.5 167.5v989h280v-1042q0 -209 -100 -310.5t-315 -101.5h-295z" />
    <glyph glyph-name="ij" unicode="&#x133;" horiz-adv-x="909" 
d="M104 1454h258v-246h-258v246zM547 1454h258v-246h-258v246zM104 1044h258v-1044h-258v1044zM805 -33q0 -171 -69.5 -243t-241.5 -72h-123v186h78q60 0 79 24.5t19 94.5v1087h258v-1077z" />
    <glyph glyph-name="Jcircumflex" unicode="&#x134;" horiz-adv-x="866" 
d="M473 1794h258l260 -248h-258l-131 133l-133 -133h-256zM31 0v246h219q108 0 160.5 51.5t52.5 167.5v989h280v-1042q0 -209 -100.5 -310.5t-316.5 -101.5h-295z" />
    <glyph glyph-name="jcircumflex" unicode="&#x135;" horiz-adv-x="466" 
d="M109 1454h251l250 -274h-250l-127 147l-127 -147h-247zM362 -33q0 -171 -69 -243t-242 -72h-123v186h78q60 0 79 24.5t19 94.5v1087h258v-1077z" />
    <glyph glyph-name="uni0136" unicode="&#x136;" horiz-adv-x="1353" 
d="M776 883l606 -883h-321l-473 700l-176 -172v-528h-281v1454h281v-598l608 598h342zM578 -295v203h237v-168q0 -127 -54 -184t-183 -66v102q62 5 89 29t27 84h-116z" />
    <glyph glyph-name="uni0137" unicode="&#x137;" horiz-adv-x="1077" 
d="M670 664l442 -664h-293l-323 498l-134 -127v-371h-258v1454h258v-782l386 372h317zM442 -295v203h240v-172q0 -121 -55 -177.5t-185 -66.5v100q65 8 92.5 32t28.5 81h-121z" />
    <glyph glyph-name="kgreenlandic" unicode="&#x138;" horiz-adv-x="1077" 
d="M819 0l-323 498l-134 -127v-371h-258v1044h258v-372l386 372h317l-395 -380l442 -664h-293z" />
    <glyph glyph-name="Lacute" unicode="&#x139;" horiz-adv-x="1179" 
d="M678 1794l-313 -248h-220l205 248h328zM412 246h733v-246h-1014v1454h281v-1208z" />
    <glyph glyph-name="lacute" unicode="&#x13a;" horiz-adv-x="466" 
d="M328 1546h-217l202 248h328zM104 1454h258v-1454h-258v1454z" />
    <glyph glyph-name="uni013B" unicode="&#x13b;" horiz-adv-x="1179" 
d="M412 246h733v-246h-1014v1454h281v-1208zM524 -295v203h240v-168q0 -127 -54.5 -184t-185.5 -66v102q63 5 91 29.5t28 83.5h-119z" />
    <glyph glyph-name="uni013C" unicode="&#x13c;" horiz-adv-x="466" 
d="M104 1454h258v-1454h-258v1454zM115 -295v203h239v-172q0 -120 -55 -177t-184 -67v100q65 8 91.5 32t26.5 81h-118z" />
    <glyph glyph-name="Lcaron" unicode="&#x13d;" horiz-adv-x="1179" 
d="M412 246h733v-246h-1014v1454h281v-1208zM768 1303q0 -119 -54 -174t-167 -64v92q60 6 85 31t25 76h-110v190h221v-151z" />
    <glyph glyph-name="lcaron" unicode="&#x13e;" horiz-adv-x="491" 
d="M104 1454h258v-1454h-258v1454zM446 1157q59 6 85 31t26 76h-111v190h220v-151q0 -118 -54 -173.5t-166 -64.5v92z" />
    <glyph glyph-name="Ldot" unicode="&#x13f;" horiz-adv-x="1189" 
d="M412 246h733v-246h-1014v1454h281v-1208zM1022 956v-294h-299v294h299z" />
    <glyph glyph-name="ldot" unicode="&#x140;" horiz-adv-x="757" 
d="M104 1454h258v-1454h-258v1454zM762 827v-295h-297v295h297z" />
    <glyph glyph-name="Lslash" unicode="&#x141;" horiz-adv-x="1255" 
d="M483 246h736v-246h-1016v459l-148 -92v215l148 92v780h280v-606l471 295v-215l-471 -295v-387z" />
    <glyph glyph-name="lslash" unicode="&#x142;" horiz-adv-x="604" 
d="M563 1016v-185l-131 -88v-743h-258v569l-129 -88v187l129 86v700h258v-526z" />
    <glyph glyph-name="Nacute" unicode="&#x143;" horiz-adv-x="1499" 
d="M1155 1794l-313 -248h-217l202 248h328zM1098 1454h270v-1454h-346l-621 1130v-1130h-270v1454h346l621 -1130v1130z" />
    <glyph glyph-name="nacute" unicode="&#x144;" horiz-adv-x="1138" 
d="M662 1180h-211l200 274h320zM104 1044h254v-170q113 191 340 191q166 0 255 -93.5t89 -256.5v-715h-260v657q0 100 -45 152.5t-145 52.5q-101 0 -165.5 -73.5t-64.5 -194.5v-594h-258v1044z" />
    <glyph glyph-name="uni0145" unicode="&#x145;" horiz-adv-x="1499" 
d="M1098 1454h270v-1454h-346l-621 1130v-1130h-270v1454h346l621 -1130v1130zM629 -295v203h239v-168q0 -127 -55 -184t-184 -66v102q62 5 90 29t29 84h-119z" />
    <glyph glyph-name="uni0146" unicode="&#x146;" horiz-adv-x="1138" 
d="M698 1065q166 0 255 -93.5t89 -256.5v-715h-260v657q0 100 -45 152.5t-145 52.5q-101 0 -165.5 -73.5t-64.5 -194.5v-594h-258v1044h254v-170q113 191 340 191zM453 -295v203h239v-172q0 -121 -54.5 -177.5t-184.5 -66.5v100q65 8 92 32t28 81h-120z" />
    <glyph glyph-name="Ncaron" unicode="&#x147;" horiz-adv-x="1499" 
d="M879 1546h-263l-258 248h258l132 -133l131 133h258zM1098 1454h270v-1454h-346l-621 1130v-1130h-270v1454h346l621 -1130v1130z" />
    <glyph glyph-name="ncaron" unicode="&#x148;" horiz-adv-x="1138" 
d="M434 1454l139 -151l140 151h248l-256 -274h-263l-256 274h248zM104 1044h254v-170q113 191 340 191q166 0 255 -93.5t89 -256.5v-715h-260v657q0 100 -45 152.5t-145 52.5q-101 0 -165.5 -73.5t-64.5 -194.5v-594h-258v1044z" />
    <glyph glyph-name="napostrophe" unicode="&#x149;" horiz-adv-x="1183" 
d="M-33 1128q63 4 91 34.5t28 90.5h-119v201h232v-180q0 -225 -232 -244v98zM152 1044h254v-170q113 191 339 191q166 0 254 -93.5t88 -256.5v-715h-258v657q0 205 -192 205q-100 0 -163.5 -73.5t-63.5 -194.5v-594h-258v1044z" />
    <glyph glyph-name="Eng" unicode="&#x14a;" horiz-adv-x="1499" 
d="M850 -135h117q70 0 100.5 29.5t30.5 95.5v28l-697 1104v-1122h-270v1454h338l629 -995v995h270v-1464q0 -181 -80.5 -259.5t-259.5 -78.5h-178v213z" />
    <glyph glyph-name="eng" unicode="&#x14b;" horiz-adv-x="1138" 
d="M698 1065q166 0 255 -93.5t89 -256.5v-756q0 -165 -70.5 -236t-242.5 -71h-121v186h76q60 0 79 24.5t19 94.5v700q0 100 -45 152.5t-145 52.5q-101 0 -165.5 -73.5t-64.5 -194.5v-594h-258v1044h254v-170q113 191 340 191z" />
    <glyph glyph-name="Omacron" unicode="&#x14c;" horiz-adv-x="1550" 
d="M1098 1759v-178h-643v178h643zM774 -25q-160 0 -292.5 55.5t-223.5 154.5t-141.5 238t-50.5 304t50.5 304t141.5 238t223.5 154.5t292.5 55.5q213 0 375 -95.5t249 -266t87 -390.5t-87 -390.5t-249 -266t-375 -95.5zM774 215q197 0 309.5 141.5t112.5 370.5t-112.5 370.5
t-309.5 141.5q-196 0 -308 -141.5t-112 -370.5t112 -370.5t308 -141.5z" />
    <glyph glyph-name="omacron" unicode="&#x14d;" horiz-adv-x="1163" 
d="M897 1415v-180h-631v180h631zM582 -25q-237 0 -384 154t-147 393q0 155 65.5 278t187 194t278.5 71t278 -71t186.5 -194t65.5 -278q0 -239 -146.5 -393t-383.5 -154zM582 164q121 0 188.5 98t67.5 260q0 160 -67.5 257.5t-188.5 97.5t-188.5 -97.5t-67.5 -257.5
q0 -162 67.5 -260t188.5 -98z" />
    <glyph glyph-name="Obreve" unicode="&#x14e;" horiz-adv-x="1550" 
d="M621 1794q10 -54 51.5 -84.5t103.5 -30.5t104 30.5t52 84.5h164q-9 -123 -101.5 -198.5t-218.5 -75.5t-218.5 75.5t-102.5 198.5h166zM774 -25q-160 0 -292.5 55.5t-223.5 154.5t-141.5 238t-50.5 304t50.5 304t141.5 238t223.5 154.5t292.5 55.5q213 0 375 -95.5
t249 -266t87 -390.5t-87 -390.5t-249 -266t-375 -95.5zM774 215q197 0 309.5 141.5t112.5 370.5t-112.5 370.5t-309.5 141.5q-196 0 -308 -141.5t-112 -370.5t112 -370.5t308 -141.5z" />
    <glyph glyph-name="obreve" unicode="&#x14f;" horiz-adv-x="1163" 
d="M426 1454q10 -55 52 -86t104 -31t103.5 31t51.5 86h166q-10 -127 -103 -206t-218 -79t-218.5 79t-103.5 206h166zM582 -25q-237 0 -384 154t-147 393q0 155 65.5 278t187 194t278.5 71t278 -71t186.5 -194t65.5 -278q0 -239 -146.5 -393t-383.5 -154zM582 164
q121 0 188.5 98t67.5 260q0 160 -67.5 257.5t-188.5 97.5t-188.5 -97.5t-67.5 -257.5q0 -162 67.5 -260t188.5 -98z" />
    <glyph glyph-name="Ohungarumlaut" unicode="&#x150;" horiz-adv-x="1550" 
d="M670 1546h-219l204 248h328zM1071 1546h-219l205 248h327zM774 -25q-160 0 -292.5 55.5t-223.5 154.5t-141.5 238t-50.5 304t50.5 304t141.5 238t223.5 154.5t292.5 55.5q213 0 375 -95.5t249 -266t87 -390.5t-87 -390.5t-249 -266t-375 -95.5zM774 215
q197 0 309.5 141.5t112.5 370.5t-112.5 370.5t-309.5 141.5q-196 0 -308 -141.5t-112 -370.5t112 -370.5t308 -141.5z" />
    <glyph glyph-name="ohungarumlaut" unicode="&#x151;" horiz-adv-x="1163" 
d="M469 1180h-211l201 274h319zM870 1180h-211l201 274h320zM582 -25q-237 0 -384 154t-147 393q0 155 65.5 278t187 194t278.5 71t278 -71t186.5 -194t65.5 -278q0 -239 -146.5 -393t-383.5 -154zM582 164q121 0 188.5 98t67.5 260q0 160 -67.5 257.5t-188.5 97.5
t-188.5 -97.5t-67.5 -257.5q0 -162 67.5 -260t188.5 -98z" />
    <glyph glyph-name="OE" unicode="&#x152;" horiz-adv-x="2287" 
d="M1421 240h795v-240h-1079v193q-50 -98 -163.5 -158t-254.5 -60q-189 0 -338 95.5t-232 267.5t-83 389t83 389t232 267.5t338 95.5q141 0 254.5 -59.5t163.5 -157.5v192h1069v-240h-785v-356h707v-219h-707v-399zM772 215q150 0 257.5 105t107.5 258v299q0 152 -108 257
t-257 105q-196 0 -307 -141.5t-111 -370.5t111 -370.5t307 -141.5z" />
    <glyph glyph-name="oe" unicode="&#x153;" horiz-adv-x="1929" 
d="M582 -25q-237 0 -384 154t-147 393q0 155 65.5 278t187 194t278.5 71q123 0 226 -51t163 -135q60 84 164 135t227 51q162 0 282.5 -78.5t181 -214t54.5 -307.5h-782q8 -143 78.5 -224t191.5 -81q173 0 236 172h258q-45 -160 -174 -258.5t-324 -98.5q-126 0 -229 52
t-164 139q-60 -86 -163.5 -138.5t-225.5 -52.5zM1618 627q-19 119 -85 187.5t-171 68.5t-171 -68t-85 -188h512zM582 164q121 0 188.5 98t67.5 260q0 160 -67.5 257.5t-188.5 97.5t-188.5 -97.5t-67.5 -257.5q0 -162 67.5 -260t188.5 -98z" />
    <glyph glyph-name="Racute" unicode="&#x154;" horiz-adv-x="1368" 
d="M762 1546h-217l203 248h327zM770 1454q230 0 367 -106.5t137 -292.5q0 -147 -84 -240t-234 -123q138 -21 196.5 -103.5t76.5 -246.5q22 -212 98 -342h-303q-61 133 -80 338q-12 142 -71 194t-205 52h-256v-584h-281v1454h639zM709 807q137 0 208.5 52.5t71.5 156.5
t-71.5 156.5t-208.5 52.5h-297v-418h297z" />
    <glyph glyph-name="racute" unicode="&#x155;" horiz-adv-x="749" 
d="M815 1454l-309 -274h-211l201 274h319zM356 850q32 85 109.5 139.5t196.5 54.5h71v-233h-100q-136 0 -203 -63.5t-68 -217.5v-530h-258v1044h252v-194z" />
    <glyph glyph-name="uni0156" unicode="&#x156;" horiz-adv-x="1368" 
d="M770 1454q230 0 367 -106.5t137 -292.5q0 -147 -84 -240t-234 -123q138 -21 196.5 -103.5t76.5 -246.5q22 -212 98 -342h-303q-61 133 -80 338q-12 142 -71 194t-205 52h-256v-584h-281v1454h639zM709 807q137 0 208.5 52.5t71.5 156.5t-71.5 156.5t-208.5 52.5h-297
v-418h297zM575 -408q62 5 90 29t29 84h-119v203h240v-168q0 -127 -55 -184t-185 -66v102z" />
    <glyph glyph-name="uni0157" unicode="&#x157;" horiz-adv-x="749" 
d="M662 1044h71v-233h-100q-136 0 -203 -63.5t-68 -217.5v-530h-258v1044h252v-194q32 85 109.5 139.5t196.5 54.5zM115 -295v203h239v-172q0 -120 -55 -177t-184 -67v100q65 8 91.5 32t26.5 81h-118z" />
    <glyph glyph-name="Rcaron" unicode="&#x158;" horiz-adv-x="1368" 
d="M537 1794l131 -133l131 133h258l-258 -248h-262l-258 248h258zM770 1454q230 0 367 -106.5t137 -292.5q0 -147 -84 -240t-234 -123q138 -21 196.5 -103.5t76.5 -246.5q22 -212 98 -342h-303q-61 133 -80 338q-12 142 -71 194t-205 52h-256v-584h-281v1454h639zM709 807
q137 0 208.5 52.5t71.5 156.5t-71.5 156.5t-208.5 52.5h-297v-418h297z" />
    <glyph glyph-name="rcaron" unicode="&#x159;" horiz-adv-x="749" 
d="M547 1180h-260l-258 274h250l139 -151l137 151h250zM356 850q32 85 109.5 139.5t196.5 54.5h71v-233h-100q-136 0 -203 -63.5t-68 -217.5v-530h-258v1044h252v-194z" />
    <glyph glyph-name="Sacute" unicode="&#x15a;" horiz-adv-x="1318" 
d="M750 1546h-220l205 248h328zM686 -25q-290 0 -457 133.5t-186 358.5h291q37 -268 356 -268q130 0 207.5 55t77.5 154q0 41 -14 71t-36.5 50.5t-65.5 39t-84.5 31t-110.5 31.5q-43 12 -66 18q-191 51 -264 82q-175 76 -224 209q-22 60 -22 133q0 185 155.5 295.5
t395.5 110.5q256 0 410 -115.5t186 -312.5h-281q-18 105 -101 157t-216 52q-119 0 -191.5 -45.5t-72.5 -124.5q0 -85 101 -135q57 -27 230 -72q10 -2 17 -4q205 -54 290 -92q180 -80 230 -224q21 -61 21 -137q0 -142 -75 -245t-204 -154.5t-297 -51.5z" />
    <glyph glyph-name="sacute" unicode="&#x15b;" horiz-adv-x="1038" 
d="M602 1180h-211l201 274h319zM539 -25q-222 0 -354.5 95.5t-149.5 267.5h264q10 -94 74 -140t166 -46q91 0 137.5 40.5t46.5 102.5q0 66 -49.5 94t-192.5 62q-81 19 -133.5 34.5t-110.5 41.5t-91 56t-54.5 76t-21.5 105q0 136 122 219.5t322 83.5t319 -86.5t140 -228.5
h-260q-9 68 -61.5 105.5t-139.5 37.5q-82 0 -131 -32.5t-49 -80.5q0 -24 10.5 -42.5t26 -30.5t48 -23.5t61.5 -19.5t80 -20q9 -2 13 -3q59 -14 97.5 -24.5t87 -27t79.5 -33t63.5 -41.5t51 -53.5t30 -67.5t11.5 -85q0 -159 -123 -247.5t-329 -88.5z" />
    <glyph glyph-name="Scircumflex" unicode="&#x15c;" horiz-adv-x="1318" 
d="M526 1794h260l258 -248h-258l-131 133l-131 -133h-256zM686 -25q-290 0 -457 133.5t-186 358.5h291q37 -268 356 -268q130 0 207.5 55t77.5 154q0 41 -14 71t-36.5 50.5t-65.5 39t-84.5 31t-110.5 31.5q-43 12 -66 18q-191 51 -264 82q-175 76 -224 209q-22 60 -22 133
q0 185 155.5 295.5t395.5 110.5q256 0 410 -115.5t186 -312.5h-281q-18 105 -101 157t-216 52q-119 0 -191.5 -45.5t-72.5 -124.5q0 -85 101 -135q57 -27 230 -72q10 -2 17 -4q205 -54 290 -92q180 -80 230 -224q21 -61 21 -137q0 -142 -75 -245t-204 -154.5t-297 -51.5z
" />
    <glyph glyph-name="scircumflex" unicode="&#x15d;" horiz-adv-x="1038" 
d="M387 1454h252l250 -274h-250l-125 147l-129 -147h-248zM539 -25q-222 0 -354.5 95.5t-149.5 267.5h264q10 -94 74 -140t166 -46q91 0 137.5 40.5t46.5 102.5q0 66 -49.5 94t-192.5 62q-81 19 -133.5 34.5t-110.5 41.5t-91 56t-54.5 76t-21.5 105q0 136 122 219.5
t322 83.5t319 -86.5t140 -228.5h-260q-9 68 -61.5 105.5t-139.5 37.5q-82 0 -131 -32.5t-49 -80.5q0 -24 10.5 -42.5t26 -30.5t48 -23.5t61.5 -19.5t80 -20q9 -2 13 -3q59 -14 97.5 -24.5t87 -27t79.5 -33t63.5 -41.5t51 -53.5t30 -67.5t11.5 -85q0 -159 -123 -247.5
t-329 -88.5z" />
    <glyph glyph-name="Scedilla" unicode="&#x15e;" horiz-adv-x="1318" 
d="M1262 426q0 -202 -145 -320t-380 -129l-82 -57q87 0 146 -34.5t59 -100.5q0 -81 -65 -119.5t-174 -38.5h-134v99h88q113 0 113 63q0 27 -24.5 41t-63.5 14h-72v72l76 61q-254 20 -398.5 151t-162.5 339h291q37 -268 356 -268q130 0 207.5 55t77.5 154q0 41 -14 71
t-36.5 50.5t-65.5 39t-84.5 31t-110.5 31.5q-43 12 -66 18q-191 51 -264 82q-175 76 -224 209q-22 60 -22 133q0 185 155.5 295.5t395.5 110.5q256 0 410 -115.5t186 -312.5h-281q-18 105 -101 157t-216 52q-119 0 -191.5 -45.5t-72.5 -124.5q0 -85 101 -135q57 -27 230 -72
q10 -2 17 -4q205 -54 290 -92q180 -80 230 -224q21 -61 21 -137z" />
    <glyph glyph-name="scedilla" unicode="&#x15f;" horiz-adv-x="1038" 
d="M991 311q0 -142 -100 -227.5t-273 -103.5l-83 -60q86 0 145 -34.5t59 -100.5q0 -81 -65 -119.5t-174 -38.5h-133v99h88q112 0 112 63q0 27 -24.5 41t-63.5 14h-71v72l73 61q-197 12 -314 106t-132 255h264q10 -94 74 -140t166 -46q91 0 137.5 40.5t46.5 102.5
q0 66 -49.5 94t-192.5 62q-81 19 -133.5 34.5t-110.5 41.5t-91 56t-54.5 76t-21.5 105q0 136 122 219.5t322 83.5t319 -86.5t140 -228.5h-260q-9 68 -61.5 105.5t-139.5 37.5q-82 0 -131 -32.5t-49 -80.5q0 -24 10.5 -42.5t26 -30.5t48 -23.5t61.5 -19.5t80 -20q9 -2 13 -3
q59 -14 97.5 -24.5t87 -27t79.5 -33t63.5 -41.5t51 -53.5t30 -67.5t11.5 -85z" />
    <glyph glyph-name="Scaron" unicode="&#x160;" horiz-adv-x="1318" 
d="M524 1794l131 -133l131 133h258l-258 -248h-262l-258 248h258zM686 -25q-290 0 -457 133.5t-186 358.5h291q37 -268 356 -268q130 0 207.5 55t77.5 154q0 41 -14 71t-36.5 50.5t-65.5 39t-84.5 31t-110.5 31.5q-43 12 -66 18q-191 51 -264 82q-175 76 -224 209
q-22 60 -22 133q0 185 155.5 295.5t395.5 110.5q256 0 410 -115.5t186 -312.5h-281q-18 105 -101 157t-216 52q-119 0 -191.5 -45.5t-72.5 -124.5q0 -85 101 -135q57 -27 230 -72q10 -2 17 -4q205 -54 290 -92q180 -80 230 -224q21 -61 21 -137q0 -142 -75 -245t-204 -154.5
t-297 -51.5z" />
    <glyph glyph-name="scaron" unicode="&#x161;" horiz-adv-x="1038" 
d="M375 1454l139 -151l137 151h250l-258 -274h-260l-258 274h250zM539 -25q-222 0 -354.5 95.5t-149.5 267.5h264q10 -94 74 -140t166 -46q91 0 137.5 40.5t46.5 102.5q0 66 -49.5 94t-192.5 62q-81 19 -133.5 34.5t-110.5 41.5t-91 56t-54.5 76t-21.5 105q0 136 122 219.5
t322 83.5t319 -86.5t140 -228.5h-260q-9 68 -61.5 105.5t-139.5 37.5q-82 0 -131 -32.5t-49 -80.5q0 -24 10.5 -42.5t26 -30.5t48 -23.5t61.5 -19.5t80 -20q9 -2 13 -3q59 -14 97.5 -24.5t87 -27t79.5 -33t63.5 -41.5t51 -53.5t30 -67.5t11.5 -85q0 -159 -123 -247.5
t-329 -88.5z" />
    <glyph glyph-name="uni0162" unicode="&#x162;" horiz-adv-x="1259" 
d="M770 0h-37l-115 -80q87 0 146 -34.5t59 -100.5q0 -81 -64.5 -119.5t-172.5 -38.5h-135v99h90q112 0 112 63q0 26 -25 40.5t-63 14.5h-73v72l102 84h-105v1212h-458v242h1198v-242h-459v-1212z" />
    <glyph glyph-name="uni0163" unicode="&#x163;" horiz-adv-x="706" 
d="M662 866h-230v-565q0 -68 22 -91.5t85 -23.5h123v-186h-183l-114 -80q86 0 145 -34.5t59 -100.5q0 -81 -65 -119.5t-174 -38.5h-133v99h88q112 0 112 63q0 27 -24.5 41t-63.5 14h-71v72l112 94q-95 20 -135.5 86t-40.5 187v583h-156v178h156v279h258v-279h230v-178z" />
    <glyph glyph-name="Tcaron" unicode="&#x164;" horiz-adv-x="1259" 
d="M760 1546h-262l-258 248h258l131 -133l131 133h258zM1229 1454v-242h-459v-1212h-281v1212h-458v242h1198z" />
    <glyph glyph-name="tcaron" unicode="&#x165;" horiz-adv-x="706" 
d="M526 1454h222v-131q0 -116 -52 -162.5t-170 -52.5v94q59 5 86 21t27 59h-113v172zM432 1323v-279h230v-178h-230v-565q0 -68 22 -91.5t85 -23.5h123v-186h-207q-156 0 -218.5 67t-62.5 216v583h-156v178h156v279h258z" />
    <glyph glyph-name="Tbar" unicode="&#x166;" horiz-adv-x="1275" 
d="M1237 1212h-459v-387h289v-200h-289v-625h-280v625h-289v200h289v387h-459v242h1198v-242z" />
    <glyph glyph-name="tbar" unicode="&#x167;" horiz-adv-x="718" 
d="M670 866h-230v-129h230v-147h-230v-289q0 -68 21.5 -91.5t85.5 -23.5h123v-186h-209q-154 0 -216.5 67t-62.5 216v307h-155v147h155v129h-155v178h155v279h258v-279h230v-178z" />
    <glyph glyph-name="Utilde" unicode="&#x168;" horiz-adv-x="1423" 
d="M502 1546q16 86 78 86q32 0 79 -21.5t101 -43t104 -21.5q183 0 211 248h-153q-13 -86 -78 -86q-32 0 -79 21.5t-100.5 43t-103.5 21.5q-185 0 -213 -248h154zM713 -25q-128 0 -234 31.5t-187.5 95t-127 166.5t-45.5 238v948h280v-924q0 -152 82.5 -233.5t231.5 -81.5
q148 0 230.5 81.5t82.5 233.5v924h281v-948q0 -135 -45.5 -238t-127.5 -166.5t-188 -95t-233 -31.5z" />
    <glyph glyph-name="utilde" unicode="&#x169;" horiz-adv-x="1126" 
d="M350 1196q13 90 78 90q32 0 79 -22.5t100.5 -45t103.5 -22.5q181 0 213 258h-154q-16 -90 -78 -90q-32 0 -79 22.5t-101 45t-104 22.5q-181 0 -213 -258h155zM436 -25q-161 0 -250.5 96t-89.5 259v714h258v-659q0 -205 187 -205q98 0 160.5 73.5t62.5 195.5v595h258
v-1044h-254v168q-108 -193 -332 -193z" />
    <glyph glyph-name="Umacron" unicode="&#x16a;" horiz-adv-x="1423" 
d="M1034 1759v-178h-645v178h645zM713 -25q-128 0 -234 31.5t-187.5 95t-127 166.5t-45.5 238v948h280v-924q0 -152 82.5 -233.5t231.5 -81.5q148 0 230.5 81.5t82.5 233.5v924h281v-948q0 -135 -45.5 -238t-127.5 -166.5t-188 -95t-233 -31.5z" />
    <glyph glyph-name="umacron" unicode="&#x16b;" horiz-adv-x="1126" 
d="M877 1415v-180h-633v180h633zM436 -25q-161 0 -250.5 96t-89.5 259v714h258v-659q0 -205 187 -205q98 0 160.5 73.5t62.5 195.5v595h258v-1044h-254v168q-108 -193 -332 -193z" />
    <glyph glyph-name="Ubreve" unicode="&#x16c;" horiz-adv-x="1423" 
d="M557 1794q10 -54 52 -84.5t104 -30.5q60 0 101.5 30.5t53.5 84.5h164q-9 -123 -101.5 -198.5t-217.5 -75.5q-127 0 -220 75.5t-102 198.5h166zM713 -25q-128 0 -234 31.5t-187.5 95t-127 166.5t-45.5 238v948h280v-924q0 -152 82.5 -233.5t231.5 -81.5q148 0 230.5 81.5
t82.5 233.5v924h281v-948q0 -135 -45.5 -238t-127.5 -166.5t-188 -95t-233 -31.5z" />
    <glyph glyph-name="ubreve" unicode="&#x16d;" horiz-adv-x="1126" 
d="M403 1454q10 -55 52 -86t104 -31t104 31t52 86h166q-10 -127 -103 -206t-219 -79q-125 0 -217.5 79t-101.5 206h163zM436 -25q-161 0 -250.5 96t-89.5 259v714h258v-659q0 -205 187 -205q98 0 160.5 73.5t62.5 195.5v595h258v-1044h-254v168q-108 -193 -332 -193z" />
    <glyph glyph-name="Uring" unicode="&#x16e;" horiz-adv-x="1423" 
d="M715 1520q-93 0 -157 58.5t-64 152.5q0 90 64 148t157 58q87 0 151 -58t64 -148q0 -94 -63.5 -152.5t-151.5 -58.5zM713 1626q41 0 69.5 30t28.5 73q0 44 -28.5 74t-69.5 30q-43 0 -71 -30t-28 -74q0 -43 28.5 -73t70.5 -30zM713 -25q-128 0 -234 31.5t-187.5 95
t-127 166.5t-45.5 238v948h280v-924q0 -152 82.5 -233.5t231.5 -81.5q148 0 230.5 81.5t82.5 233.5v924h281v-948q0 -135 -45.5 -238t-127.5 -166.5t-188 -95t-233 -31.5z" />
    <glyph glyph-name="uring" unicode="&#x16f;" horiz-adv-x="1126" 
d="M561 1153q-93 0 -157 58.5t-64 152.5q0 92 64 150.5t157 58.5q89 0 154 -59t65 -150q0 -94 -64.5 -152.5t-154.5 -58.5zM561 1260q43 0 70.5 29.5t27.5 74.5t-27.5 74.5t-70.5 29.5q-44 0 -72 -29.5t-28 -74.5t28 -74.5t72 -29.5zM436 -25q-161 0 -250.5 96t-89.5 259
v714h258v-659q0 -205 187 -205q98 0 160.5 73.5t62.5 195.5v595h258v-1044h-254v168q-108 -193 -332 -193z" />
    <glyph glyph-name="Uhungarumlaut" unicode="&#x170;" horiz-adv-x="1423" 
d="M606 1546h-219l203 248h330zM1008 1546h-220l203 248h330zM713 -25q-128 0 -234 31.5t-187.5 95t-127 166.5t-45.5 238v948h280v-924q0 -152 82.5 -233.5t231.5 -81.5q148 0 230.5 81.5t82.5 233.5v924h281v-948q0 -135 -45.5 -238t-127.5 -166.5t-188 -95t-233 -31.5z
" />
    <glyph glyph-name="uhungarumlaut" unicode="&#x171;" horiz-adv-x="1126" 
d="M446 1180h-210l200 274h320zM850 1180h-213l201 274h319zM436 -25q-161 0 -250.5 96t-89.5 259v714h258v-659q0 -205 187 -205q98 0 160.5 73.5t62.5 195.5v595h258v-1044h-254v168q-108 -193 -332 -193z" />
    <glyph glyph-name="Uogonek" unicode="&#x172;" horiz-adv-x="1423" 
d="M119 1454h280v-924q0 -152 82.5 -233.5t231.5 -81.5q148 0 230.5 81.5t82.5 233.5v924h281v-948q0 -371 -361 -498q-113 -40 -157 -74.5t-44 -76.5q0 -33 30 -48.5t77 -15.5h43v-141h-119q-110 0 -172.5 39t-62.5 112q0 103 131 172q-121 5 -220 40t-174.5 98.5
t-117 163.5t-41.5 229v948z" />
    <glyph glyph-name="uogonek" unicode="&#x173;" horiz-adv-x="1126" 
d="M1022 0q-75 -40 -112.5 -73.5t-37.5 -69.5q0 -33 30 -48.5t77 -15.5h43v-141h-119q-110 0 -172.5 39t-62.5 112q0 114 168 193l-68 -2v174q-108 -193 -332 -193q-161 0 -250.5 96t-89.5 259v714h258v-659q0 -205 187 -205q98 0 160.5 73.5t62.5 195.5v595h258v-1044z" />
    <glyph glyph-name="Wcircumflex" unicode="&#x174;" horiz-adv-x="1945" 
d="M973 1679l-133 -133h-256l260 248h258l258 -248h-256zM1638 1454h281l-358 -1454h-306l-282 1120l-283 -1120h-307l-356 1454h280l248 -1141l272 1141h289l275 -1137z" />
    <glyph glyph-name="wcircumflex" unicode="&#x175;" horiz-adv-x="1613" 
d="M807 1327l-129 -147h-248l250 274h252l250 -274h-248zM1335 1044h271l-322 -1044h-276l-201 752l-203 -752h-274l-324 1044h273l208 -788l195 788h250l194 -784z" />
    <glyph glyph-name="Ycircumflex" unicode="&#x176;" horiz-adv-x="1316" 
d="M528 1794h260l259 -248h-259l-131 133l-131 -133h-256zM8 1454h299l352 -643l357 643h297l-516 -889v-565h-281v569z" />
    <glyph glyph-name="ycircumflex" unicode="&#x177;" horiz-adv-x="1048" 
d="M399 1454h252l250 -274h-250l-125 147l-129 -147h-247zM270 1044l256 -776l258 776h260l-391 -1064q-71 -196 -148.5 -262t-242.5 -66h-162v188h95q83 0 121 29t75 131l-391 1044h270z" />
    <glyph glyph-name="Ydieresis" unicode="&#x178;" horiz-adv-x="1316" 
d="M578 1780v-230h-256v230h256zM995 1780v-230h-258v230h258zM8 1454h299l352 -643l357 643h297l-516 -889v-565h-281v569z" />
    <glyph glyph-name="Zacute" unicode="&#x179;" horiz-adv-x="1259" 
d="M1036 1794l-313 -248h-219l203 248h329zM375 246h831v-246h-1159v246l811 964h-772v244h1100v-244z" />
    <glyph glyph-name="zacute" unicode="&#x17a;" horiz-adv-x="993" 
d="M893 1454l-307 -274h-211l198 274h320zM344 201h602v-201h-903v201l584 647h-555v196h856v-196z" />
    <glyph glyph-name="Zdotaccent" unicode="&#x17b;" horiz-adv-x="1259" 
d="M758 1780v-230h-258v230h258zM375 246h831v-246h-1159v246l811 964h-772v244h1100v-244z" />
    <glyph glyph-name="zdotaccent" unicode="&#x17c;" horiz-adv-x="993" 
d="M625 1454v-242h-256v242h256zM344 201h602v-201h-903v201l584 647h-555v196h856v-196z" />
    <glyph glyph-name="Zcaron" unicode="&#x17d;" horiz-adv-x="1259" 
d="M760 1546h-262l-258 248h258l131 -133l129 133h260zM375 246h831v-246h-1159v246l811 964h-772v244h1100v-244z" />
    <glyph glyph-name="zcaron" unicode="&#x17e;" horiz-adv-x="993" 
d="M627 1180h-262l-256 274h247l140 -151l139 151h248zM344 201h602v-201h-903v201l584 647h-555v196h856v-196z" />
    <glyph glyph-name="longs" unicode="&#x17f;" horiz-adv-x="507" 
d="M104 1167q0 154 62.5 220.5t218.5 66.5h207v-184h-121q-63 0 -86 -25.5t-23 -93.5v-1151h-258v1167z" />
    <glyph glyph-name="florin" unicode="&#x192;" horiz-adv-x="796" 
d="M612 1270q-62 0 -84 -25.5t-22 -93.5v-107h229v-178h-229v-907q0 -164 -70.5 -235.5t-242.5 -71.5h-111v186h65q61 0 80 24.5t19 94.5v909h-164v178h164v123q0 153 63 220t219 67h207v-184h-123z" />
    <glyph glyph-name="AEacute" unicode="&#x1fc;" horiz-adv-x="2127" 
d="M1210 1546h-219l205 248h328zM870 1454h1174v-242h-784v-354h708v-219h-708v-397h796v-242h-1081v326h-529l-204 -326h-303zM975 551v623l-389 -623h389z" />
    <glyph glyph-name="aeacute" unicode="&#x1fd;" horiz-adv-x="1822" 
d="M989 1180h-211l199 274h319zM1262 -25q-156 0 -271.5 66t-169.5 178q-47 -109 -151 -176.5t-254 -67.5q-162 0 -265.5 85.5t-103.5 234.5q0 61 19.5 109.5t51 81.5t86 61t110 46.5t137.5 39.5q158 41 186 52q78 29 85 76q1 6 1 13q0 52 -49 83.5t-135 31.5
q-92 0 -146.5 -39.5t-60.5 -112.5h-256q20 145 142 236.5t329 91.5q125 0 215 -37.5t135 -107.5q64 68 157 106.5t201 38.5q122 0 222 -45.5t167 -125.5t101.5 -190.5t30.5 -238.5h-783q6 -143 78 -224t193 -81q170 0 233 172h258q-45 -160 -173 -258.5t-320 -98.5z
M1513 627q-19 119 -85 187.5t-171 68.5t-172 -68.5t-86 -187.5h514zM494 156q110 0 174.5 80t64.5 200v182q-16 -39 -60.5 -64t-131.5 -52q-117 -35 -172.5 -76t-55.5 -117q0 -71 50.5 -112t130.5 -41z" />
    <glyph glyph-name="uni0218" unicode="&#x218;" horiz-adv-x="1318" 
d="M686 -25q-290 0 -457 133.5t-186 358.5h291q37 -268 356 -268q130 0 207.5 55t77.5 154q0 41 -14 71t-36.5 50.5t-65.5 39t-84.5 31t-110.5 31.5q-43 12 -66 18q-191 51 -264 82q-175 76 -224 209q-22 60 -22 133q0 185 155.5 295.5t395.5 110.5q256 0 410 -115.5
t186 -312.5h-281q-18 105 -101 157t-216 52q-119 0 -191.5 -45.5t-72.5 -124.5q0 -85 101 -135q57 -27 230 -72q10 -2 17 -4q205 -54 290 -92q180 -80 230 -224q21 -61 21 -137q0 -142 -75 -245t-204 -154.5t-297 -51.5zM535 -408q62 5 89.5 29t28.5 84h-118v203h239v-168
q0 -127 -55 -184t-184 -66v102z" />
    <glyph glyph-name="uni0219" unicode="&#x219;" horiz-adv-x="1038" 
d="M571 643q59 -14 97.5 -24.5t87 -27t79.5 -33t63.5 -41.5t51 -53.5t30 -67.5t11.5 -85q0 -159 -123 -247.5t-329 -88.5q-222 0 -354.5 95.5t-149.5 267.5h264q10 -94 74 -140t166 -46q91 0 137.5 40.5t46.5 102.5q0 66 -49.5 94t-192.5 62q-81 19 -133.5 34.5t-110.5 41.5
t-91 56t-54.5 76t-21.5 105q0 136 122 219.5t322 83.5t319 -86.5t140 -228.5h-260q-9 68 -61.5 105.5t-139.5 37.5q-82 0 -131 -32.5t-49 -80.5q0 -24 10.5 -42.5t26 -30.5t48 -23.5t61.5 -19.5t80 -20q9 -2 13 -3zM420 -295v203h237v-172q0 -121 -54.5 -177.5t-182.5 -66.5
v100q64 8 91 32t28 81h-119z" />
    <glyph glyph-name="uni021A" unicode="&#x21a;" horiz-adv-x="1259" 
d="M1229 1454v-242h-459v-1212h-281v1212h-458v242h1198zM512 -295v203h238v-168q0 -127 -54.5 -184t-183.5 -66v102q62 5 89.5 29.5t27.5 83.5h-117z" />
    <glyph glyph-name="uni021B" unicode="&#x21b;" horiz-adv-x="706" 
d="M662 866h-230v-565q0 -68 22 -91.5t85 -23.5h123v-186h-207q-156 0 -218.5 67t-62.5 216v583h-156v178h156v279h258v-279h230v-178zM250 -295v203h239v-172q0 -120 -55 -177t-184 -67v100q65 8 92 32t27 81h-119z" />
    <glyph glyph-name="uni0237" unicode="&#x237;" horiz-adv-x="466" 
d="M362 -33q0 -171 -69 -243t-242 -72h-123v186h78q60 0 79 24.5t19 94.5v1087h258v-1077z" />
    <glyph glyph-name="circumflex" unicode="&#x2c6;" horiz-adv-x="1064" 
d="M406 1454h253l250 -274h-250l-127 147l-126 -147h-248z" />
    <glyph glyph-name="caron" unicode="&#x2c7;" horiz-adv-x="1089" 
d="M406 1454l139 -151l139 151h248l-256 -274h-262l-256 274h248z" />
    <glyph glyph-name="breve" unicode="&#x2d8;" horiz-adv-x="954" 
d="M322 1454q10 -55 51.5 -86t103.5 -31t104 31t52 86h166q-10 -127 -103 -206t-219 -79q-125 0 -217.5 79t-101.5 206h164z" />
    <glyph glyph-name="dotaccent" unicode="&#x2d9;" horiz-adv-x="612" 
d="M434 1454v-242h-256v242h256z" />
    <glyph glyph-name="ring" unicode="&#x2da;" horiz-adv-x="837" 
d="M420 1153q-93 0 -157 58.5t-64 152.5q0 92 64 150.5t157 58.5q90 0 154.5 -59t64.5 -150q0 -94 -64 -152.5t-155 -58.5zM420 1260q43 0 70.5 29.5t27.5 74.5t-27.5 74.5t-70.5 29.5q-44 0 -72.5 -29.5t-28.5 -74.5t28.5 -74.5t72.5 -29.5z" />
    <glyph glyph-name="ogonek" unicode="&#x2db;" horiz-adv-x="784" 
d="M412 -348q-109 0 -171.5 39.5t-62.5 111.5q0 119 176 197h176q-75 -40 -112 -73.5t-37 -69.5q0 -64 106 -64h43v-141h-118z" />
    <glyph glyph-name="tilde" unicode="&#x2dc;" horiz-adv-x="1042" 
d="M311 1196q13 90 78 90q32 0 79 -22.5t101 -45t103 -22.5q185 0 213 258h-154q-16 -90 -78 -90q-32 0 -79 22.5t-101 45t-104 22.5q-183 0 -211 -258h153z" />
    <glyph glyph-name="hungarumlaut" unicode="&#x2dd;" horiz-adv-x="1234" 
d="M369 1180h-211l198 274h320zM770 1180h-211l199 274h319z" />
    <glyph glyph-name="uni0394" unicode="&#x394;" horiz-adv-x="1419" 
d="M870 1454l549 -1454h-1419l549 1454h321zM358 221h703l-350 1026z" />
    <glyph glyph-name="uni03A9" unicode="&#x3a9;" horiz-adv-x="1536" 
d="M76 788q0 194 82.5 350t241.5 248.5t368 92.5q210 0 369 -92.5t241 -248.5t82 -350q0 -204 -87.5 -350.5t-237.5 -216.5h301v-221h-592v221q147 41 243.5 183.5t96.5 347.5q0 140 -46.5 252t-142.5 180.5t-227 68.5t-227 -68.5t-142.5 -180.5t-46.5 -252
q0 -205 97 -347.5t245 -183.5v-221h-594v221h301q-148 70 -236.5 217t-88.5 350z" />
    <glyph glyph-name="uni03BC" unicode="&#x3bc;" horiz-adv-x="1134" 
d="M772 1044h258v-1044h-254v168q-108 -193 -332 -193q-44 0 -82 9v-332h-258v1392h258v-659q0 -205 187 -205q98 0 160.5 73.5t62.5 195.5v595z" />
    <glyph glyph-name="pi" unicode="&#x3c0;" horiz-adv-x="1302" 
d="M1245 825h-190v-516q0 -67 21 -90.5t85 -23.5h84v-195h-170q-154 0 -216 67t-62 216v542h-346v-825h-261v825h-165v219h1220v-219z" />
    <glyph glyph-name="uni0E3F" unicode="&#xe3f;" horiz-adv-x="1357" 
d="M944 770q159 -19 252.5 -110.5t93.5 -237.5q0 -198 -128.5 -310t-364.5 -112h-74v-195h-121v195h-471v1454h471v174h121v-174h51q208 0 332.5 -97.5t124.5 -271.5q0 -130 -80 -212t-207 -103zM602 1245h-207v-401h207v401zM739 1245h-16v-401h16q107 0 167.5 53.5
t60.5 146.5t-60.5 147t-167.5 54zM395 213h207v446h-207v-446zM770 213q118 0 186 60t68 165t-70 163t-190 58h-41v-446h47z" />
    <glyph glyph-name="Wgrave" unicode="&#x1e80;" horiz-adv-x="1945" 
d="M1098 1546h-219l-314 248h330zM1638 1454h281l-358 -1454h-306l-282 1120l-283 -1120h-307l-356 1454h280l248 -1141l272 1141h289l275 -1137z" />
    <glyph glyph-name="wgrave" unicode="&#x1e81;" horiz-adv-x="1613" 
d="M928 1180h-211l-309 274h319zM1335 1044h271l-322 -1044h-276l-201 752l-203 -752h-274l-324 1044h273l208 -788l195 788h250l194 -784z" />
    <glyph glyph-name="Wacute" unicode="&#x1e82;" horiz-adv-x="1945" 
d="M1380 1794l-313 -248h-219l203 248h329zM1638 1454h281l-358 -1454h-306l-282 1120l-283 -1120h-307l-356 1454h280l248 -1141l272 1141h289l275 -1137z" />
    <glyph glyph-name="wacute" unicode="&#x1e83;" horiz-adv-x="1613" 
d="M1204 1454l-309 -274h-211l201 274h319zM1335 1044h271l-322 -1044h-276l-201 752l-203 -752h-274l-324 1044h273l208 -788l195 788h250l194 -784z" />
    <glyph glyph-name="Wdieresis" unicode="&#x1e84;" horiz-adv-x="1945" 
d="M893 1780v-230h-258v230h258zM1309 1780v-230h-256v230h256zM1638 1454h281l-358 -1454h-306l-282 1120l-283 -1120h-307l-356 1454h280l248 -1141l272 1141h289l275 -1137z" />
    <glyph glyph-name="wdieresis" unicode="&#x1e85;" horiz-adv-x="1613" 
d="M723 1454v-242h-258v242h258zM1147 1454v-242h-256v242h256zM1335 1044h271l-322 -1044h-276l-201 752l-203 -752h-274l-324 1044h273l208 -788l195 788h250l194 -784z" />
    <glyph glyph-name="uni1E9E" unicode="&#x1e9e;" horiz-adv-x="1361" 
d="M897 868q195 -26 301.5 -138t106.5 -290q0 -216 -144 -328t-424 -112h-188v229h188q134 0 209.5 56t75.5 168t-75.5 167.5t-209.5 55.5h-116v201l288 348h-291q-217 0 -217 -213v-1012h-278v1055q0 192 103.5 295.5t295.5 103.5h672v-229z" />
    <glyph glyph-name="Ygrave" unicode="&#x1ef2;" horiz-adv-x="1316" 
d="M580 1794l202 -248h-217l-315 248h330zM8 1454h299l352 -643l357 643h297l-516 -889v-565h-281v569z" />
    <glyph glyph-name="ygrave" unicode="&#x1ef3;" horiz-adv-x="1048" 
d="M446 1454l201 -274h-213l-307 274h319zM270 1044l256 -776l258 776h260l-391 -1064q-71 -196 -148.5 -262t-242.5 -66h-162v188h95q83 0 121 29t75 131l-391 1044h270z" />
    <glyph glyph-name="endash" unicode="&#x2013;" horiz-adv-x="1191" 
d="M96 649h998v-233h-998v233z" />
    <glyph glyph-name="emdash" unicode="&#x2014;" horiz-adv-x="1560" 
d="M96 649h1366v-233h-1366v233z" />
    <glyph glyph-name="quoteleft" unicode="&#x2018;" horiz-adv-x="475" 
d="M383 1317q-80 -8 -116 -40.5t-36 -113.5h152v-297h-297v297q0 136 73.5 206.5t223.5 84.5v-137z" />
    <glyph glyph-name="quoteright" unicode="&#x2019;" horiz-adv-x="460" 
d="M94 1454h297v-295q0 -137 -73 -207.5t-224 -85.5v140q80 6 116 38.5t36 114.5h-152v295z" />
    <glyph glyph-name="quotesinglbase" unicode="&#x201a;" horiz-adv-x="487" 
d="M94 295h297v-295q0 -136 -73.5 -206.5t-223.5 -84.5v137q81 8 116.5 40t35.5 114h-152v295z" />
    <glyph glyph-name="quotedblleft" unicode="&#x201c;" horiz-adv-x="888" 
d="M86 1163q0 136 73.5 206.5t223.5 84.5v-137q-80 -8 -116 -40.5t-36 -113.5h152v-297h-297v297zM797 1317q-79 -8 -114.5 -40.5t-35.5 -113.5h150v-297h-297v297q0 135 74 206t223 85v-137z" />
    <glyph glyph-name="quotedblright" unicode="&#x201d;" horiz-adv-x="874" 
d="M94 1159v295h297v-295q0 -137 -73 -207.5t-224 -85.5v140q80 6 116 38.5t36 114.5h-152zM508 1454h299v-295q0 -136 -74 -207t-225 -86v140q80 6 115.5 38.5t35.5 114.5h-151v295z" />
    <glyph glyph-name="quotedblbase" unicode="&#x201e;" horiz-adv-x="901" 
d="M94 0v295h297v-295q0 -136 -73.5 -206.5t-223.5 -84.5v137q81 8 116.5 40t35.5 114h-152zM510 295h297v-295q0 -135 -74 -206t-223 -85v137q80 8 116 40t36 114h-152v295z" />
    <glyph glyph-name="dagger" unicode="&#x2020;" horiz-adv-x="1120" 
d="M1075 1044v-219h-381v-1050h-268v1050h-381v219h381v410h268v-410h381z" />
    <glyph glyph-name="daggerdbl" unicode="&#x2021;" horiz-adv-x="1212" 
d="M1122 825h-381v-422h381v-219h-381v-409h-270v409h-381v219h381v422h-381v219h381v410h270v-410h381v-219z" />
    <glyph glyph-name="bullet" unicode="&#x2022;" horiz-adv-x="874" 
d="M438 193q-136 0 -232.5 96.5t-96.5 232.5q0 137 96.5 233.5t232.5 96.5t233 -97t97 -233t-96.5 -232.5t-233.5 -96.5z" />
    <glyph glyph-name="ellipsis" unicode="&#x2026;" horiz-adv-x="1454" 
d="M391 295v-295h-297v295h297zM877 295v-295h-297v295h297zM1360 295v-295h-297v295h297z" />
    <glyph glyph-name="perthousand" unicode="&#x2030;" horiz-adv-x="2611" 
d="M403 625q-111 0 -191.5 57.5t-119.5 151.5t-39 213q0 184 92 301.5t258 117.5t257.5 -117.5t91.5 -301.5q0 -183 -92 -302.5t-257 -119.5zM1546 1454l-1057 -1454h-217l1057 1454h217zM403 768q83 0 122.5 77.5t39.5 201.5t-39.5 200t-122.5 76q-84 0 -123.5 -75.5
t-39.5 -200.5q0 -124 39.5 -201.5t123.5 -77.5zM1417 -12q-111 0 -191.5 57.5t-119.5 151.5t-39 213q0 184 92 301.5t258 117.5t257 -117.5t91 -301.5q0 -183 -91.5 -302.5t-256.5 -119.5zM2210 -12q-165 0 -256.5 119.5t-91.5 302.5q0 184 91 301.5t257 117.5t258 -117.5
t92 -301.5q0 -119 -39 -213t-119.5 -151.5t-191.5 -57.5zM1417 131q83 0 122.5 77.5t39.5 201.5t-39.5 200t-122.5 76q-84 0 -124 -75.5t-40 -200.5q0 -124 40 -201.5t124 -77.5zM2210 131q84 0 124 77.5t40 201.5q0 125 -40 200.5t-124 75.5q-83 0 -123.5 -76t-40.5 -200
q0 -123 40.5 -201t123.5 -78z" />
    <glyph glyph-name="guilsinglleft" unicode="&#x2039;" horiz-adv-x="663" 
d="M573 891l-247 -369l247 -368h-235l-266 368l266 369h235z" />
    <glyph glyph-name="guilsinglright" unicode="&#x203a;" horiz-adv-x="663" 
d="M326 891l266 -369l-266 -368h-236l248 368l-248 369h236z" />
    <glyph glyph-name="uni2042" unicode="&#x2042;" horiz-adv-x="1519" 
d="M475 1303l213 -66v217h141v-217l215 66l41 -134l-206 -65l127 -180l-117 -86l-129 184l-133 -184l-117 86l129 180l-205 65zM86 453l213 -66v217h141v-217l215 66l41 -134l-207 -65l127 -180l-116 -86l-129 184l-133 -184l-117 86l129 180l-205 65zM864 453l213 -66v217
h142v-217l215 66l41 -134l-207 -65l127 -180l-117 -86l-129 184l-133 -184l-117 86l129 180l-205 65z" />
    <glyph glyph-name="fraction" unicode="&#x2044;" horiz-adv-x="569" 
d="M922 1454l-1057 -1454h-217l1057 1454h217z" />
    <glyph glyph-name="uni2070" unicode="&#x2070;" horiz-adv-x="792" 
d="M397 854q-111 0 -191.5 57.5t-119.5 151.5t-39 213q0 184 92 302t258 118t257 -117.5t91 -302.5q0 -183 -91.5 -302.5t-256.5 -119.5zM397 999q83 0 122.5 77t39.5 200q0 124 -39.5 200t-122.5 76q-84 0 -124 -75.5t-40 -200.5q0 -124 40 -200.5t124 -76.5z" />
    <glyph glyph-name="uni2074" unicode="&#x2074;" horiz-adv-x="757" 
d="M731 1180v-140h-133v-174h-178v174h-400v140l400 503h178v-503h133zM188 1180h232v290z" />
    <glyph glyph-name="uni2075" unicode="&#x2075;" horiz-adv-x="741" 
d="M418 1427q125 0 201.5 -77.5t76.5 -200.5q0 -128 -87.5 -211.5t-237.5 -83.5q-149 0 -236 73.5t-100 182.5h180q12 -54 51.5 -83.5t102.5 -29.5q64 0 103.5 41t39.5 111q0 68 -39 107.5t-102 39.5q-85 0 -135 -69h-181l56 456h551v-145h-402l-27 -195q70 84 185 84z" />
    <glyph glyph-name="uni2076" unicode="&#x2076;" horiz-adv-x="757" 
d="M395 854q-169 0 -258.5 117.5t-89.5 308.5q0 85 21.5 159t63 132t110 91.5t155.5 33.5q127 0 203.5 -62t95.5 -153h-178q-26 75 -121 75q-168 0 -174 -258q24 50 79 84.5t128 34.5q124 0 203.5 -76.5t79.5 -201.5q0 -126 -88.5 -205.5t-229.5 -79.5zM389 995
q60 0 100.5 42t40.5 104t-40.5 103.5t-100.5 41.5q-61 0 -102 -41.5t-41 -103.5t41 -104t102 -42z" />
    <glyph glyph-name="uni2077" unicode="&#x2077;" horiz-adv-x="645" 
d="M18 1683h609v-145q-52 -40 -93.5 -84.5t-70.5 -85.5t-52.5 -94t-37.5 -94t-26.5 -102t-18.5 -102.5t-15 -109.5h-188q16 113 34 190t54 168t97.5 168t150.5 146h-443v145z" />
    <glyph glyph-name="uni2078" unicode="&#x2078;" horiz-adv-x="761" 
d="M551 1307q78 -28 122 -81t44 -124q0 -113 -93.5 -180.5t-242.5 -67.5q-153 0 -244.5 67t-91.5 181q0 71 43 124t121 81q-137 54 -137 176q0 97 87 155t222 58q133 0 221 -58.5t88 -154.5q0 -123 -139 -176zM381 1559q-58 0 -94.5 -26.5t-36.5 -68.5q0 -43 36.5 -69.5
t94.5 -26.5t94.5 26.5t36.5 69.5q0 42 -36.5 68.5t-94.5 26.5zM381 997q69 0 111.5 34t42.5 89t-42.5 89t-111.5 34q-70 0 -112 -33.5t-42 -89.5t42 -89.5t112 -33.5z" />
    <glyph glyph-name="uni2079" unicode="&#x2079;" horiz-adv-x="757" 
d="M362 1696q169 0 259 -117.5t90 -308.5q0 -115 -36.5 -207t-118.5 -150.5t-198 -58.5q-125 0 -201.5 62t-97.5 153h181q26 -76 120 -76q82 0 127 65t48 193q-24 -50 -78.5 -84t-128.5 -34q-124 0 -203.5 76.5t-79.5 201.5q0 126 88 205.5t229 79.5zM369 1554
q-61 0 -101.5 -41.5t-40.5 -103.5t40.5 -103.5t101.5 -41.5t102 41.5t41 103.5t-41 103.5t-102 41.5z" />
    <glyph glyph-name="uni2080" unicode="&#x2080;" horiz-adv-x="788" 
d="M395 -360q-111 0 -191.5 57t-119.5 151t-39 213q0 184 92 302t258 118t257 -117.5t91 -302.5q0 -183 -91.5 -302t-256.5 -119zM395 -217q83 0 122.5 77t39.5 201q0 125 -39.5 201t-122.5 76q-84 0 -124 -76t-40 -201q0 -124 40 -201t124 -77z" />
    <glyph glyph-name="uni2081" unicode="&#x2081;" horiz-adv-x="471" 
d="M20 336h33q83 0 130.5 28.5t60.5 104.5h147v-817h-176v557h-195v127z" />
    <glyph glyph-name="uni2082" unicode="&#x2082;" horiz-adv-x="724" 
d="M274 -201h400v-147h-631q3 49 12.5 91t21.5 74t36 63.5t43.5 52t56 48t61.5 44t72 45.5q80 47 110.5 81.5t30.5 84.5q0 45 -32.5 73.5t-87.5 28.5q-63 0 -100.5 -38.5t-43.5 -111.5h-180q8 135 93 214t233 79q143 0 221 -68.5t78 -170.5q0 -71 -38 -125.5t-126 -112.5
q-16 -11 -60 -42t-61 -44t-45 -36t-42 -42.5t-22 -40.5z" />
    <glyph glyph-name="uni2083" unicode="&#x2083;" horiz-adv-x="745" 
d="M231 223q11 117 138 117q56 0 89.5 -24t33.5 -66q0 -98 -140 -98h-28v-136h30q162 0 162 -116q0 -55 -38.5 -86t-104.5 -31q-130 0 -152 119h-182q13 -115 99 -188.5t235 -73.5t238 69t89 185q0 79 -51 132.5t-135 67.5q73 16 116.5 58.5t43.5 111.5q0 98 -86 157.5
t-219 59.5t-222 -67.5t-96 -190.5h180z" />
    <glyph glyph-name="uni2084" unicode="&#x2084;" horiz-adv-x="759" 
d="M731 -35v-139h-133v-174h-176v174h-399v139l399 504h176v-504h133zM190 -35h232v293z" />
    <glyph glyph-name="uni2085" unicode="&#x2085;" horiz-adv-x="741" 
d="M418 213q124 0 201 -78.5t77 -200.5q0 -128 -88 -211t-239 -83q-147 0 -234 73.5t-100 182.5h180q12 -54 51.5 -83.5t102.5 -29.5q64 0 102.5 40.5t38.5 110.5q0 68 -38.5 108t-102.5 40q-81 0 -136 -70h-178l56 457h551v-145h-404l-25 -193q69 82 185 82z" />
    <glyph glyph-name="uni2086" unicode="&#x2086;" horiz-adv-x="755" 
d="M395 -360q-171 0 -259.5 117.5t-88.5 308.5q0 86 21 159.5t62.5 131.5t110 91t156.5 33q126 0 203 -62t96 -153h-180q-11 35 -42.5 55.5t-76.5 20.5q-170 0 -176 -258q25 50 80.5 84.5t128.5 34.5q124 0 203.5 -77t79.5 -202q0 -126 -89 -205t-229 -79zM387 -219
q61 0 101 41.5t40 103.5t-40 104t-101 42t-101 -42t-40 -104t40 -103.5t101 -41.5z" />
    <glyph glyph-name="uni2087" unicode="&#x2087;" horiz-adv-x="645" 
d="M18 469h609v-145q-52 -40 -93.5 -84.5t-70.5 -85.5t-52 -94t-36.5 -94t-26 -102.5t-18.5 -102t-15 -109.5h-188q12 88 24.5 152t37.5 140.5t59 136.5t88.5 124t126.5 119h-445v145z" />
    <glyph glyph-name="uni2088" unicode="&#x2088;" horiz-adv-x="761" 
d="M551 92q78 -28 122 -81t44 -124q0 -113 -93 -180t-243 -67q-153 0 -244.5 66.5t-91.5 180.5q0 71 43 124t121 81q-137 54 -137 176q0 97 87 155t222 58q133 0 221 -58.5t88 -154.5q0 -123 -139 -176zM381 344q-58 0 -94.5 -26.5t-36.5 -67.5q0 -43 36.5 -69.5t94.5 -26.5
t94.5 26.5t36.5 69.5q0 41 -36.5 67.5t-94.5 26.5zM381 -217q69 0 111.5 34t42.5 89t-42.5 89t-111.5 34q-70 0 -112 -33.5t-42 -89.5t42 -89.5t112 -33.5z" />
    <glyph glyph-name="uni2089" unicode="&#x2089;" horiz-adv-x="755" 
d="M362 481q169 0 259 -117.5t90 -308.5q0 -68 -13.5 -129t-41.5 -113.5t-69 -90.5t-99.5 -60t-129.5 -22q-125 0 -201.5 62t-97.5 153h181q26 -76 120 -76q82 0 127 65t48 193q-24 -50 -79 -84.5t-128 -34.5q-124 0 -203.5 77t-79.5 202q0 126 88 205t229 79zM369 340
q-61 0 -101.5 -41.5t-40.5 -103.5t40.5 -104t101.5 -42t102 42t41 104t-41 103.5t-102 41.5z" />
    <glyph glyph-name="uni20A9" unicode="&#x20a9;" horiz-adv-x="1957" 
d="M1890 1454l-133 -536h127v-117h-155l-33 -129h188v-119h-217l-137 -553h-268l-132 553h-305l-129 -553h-270l-137 553h-217v119h188l-31 129h-157v117h129l-133 536h258l106 -536h287l123 536h272l123 -536h287l108 536h258zM979 1204l-68 -286h136zM457 801l24 -129h183
l28 129h-235zM854 672h250l-31 129h-190zM1475 672l26 129h-237l30 -129h181zM567 248l70 305h-131zM1391 252l59 301h-129z" />
    <glyph glyph-name="Euro" unicode="&#x20ac;" horiz-adv-x="1507" 
d="M1163 481h264q-36 -237 -183 -371.5t-388 -134.5q-239 0 -406.5 155.5t-213.5 412.5h-160v121h145q-2 20 -2 63q0 44 2 64h-145v120h160q46 257 213.5 412.5t406.5 155.5q234 0 385 -137t184 -369h-264q-19 126 -99.5 203t-205.5 77q-134 0 -222 -92.5t-120 -249.5h393
v-120h-409q-2 -20 -2 -64q0 -43 2 -63h409v-121h-393q32 -157 120 -249.5t222 -92.5q132 0 209.5 76.5t97.5 203.5z" />
    <glyph glyph-name="uni20B9" unicode="&#x20b9;" horiz-adv-x="1284" 
d="M1229 1454v-192h-346q90 -65 118 -185h228v-125h-219q-15 -172 -149 -273t-345 -101h-123l645 -578h-301l-635 578v192h342q123 0 197 46.5t94 135.5h-633v125h633q-20 89 -94.5 137t-196.5 48h-342v192h1127z" />
    <glyph glyph-name="uni20BA" unicode="&#x20ba;" horiz-adv-x="1298" 
d="M997 494h254q-24 -246 -168.5 -370t-396.5 -124h-440v465l-160 -76v131l160 76v141l-160 -75v131l160 75v586h254v-465l467 221v-131l-467 -221v-141l467 223v-133l-467 -221v-357h170q157 0 234.5 63t92.5 202z" />
    <glyph glyph-name="uni20BD" unicode="&#x20bd;" horiz-adv-x="1366" 
d="M84 453h168v137h-168v209h168v655h584q220 0 349.5 -115.5t129.5 -316.5t-129.5 -316.5t-349.5 -115.5h-330v-137h377v-125h-377v-328h-254v328h-168v125zM780 799q124 0 193 55.5t69 165.5q0 107 -69.5 164t-192.5 57h-274v-442h274z" />
    <glyph glyph-name="uni20BF" unicode="&#x20bf;" horiz-adv-x="1396" 
d="M1307 422q0 -189 -117.5 -300.5t-335.5 -121.5v-195h-121v195h-139v-195h-121v195h-323v1454h323v174h121v-174h139v174h121v-176q182 -15 287.5 -111t105.5 -256q0 -130 -79.5 -212t-206.5 -103q159 -19 252.5 -110.5t93.5 -237.5zM756 1245h-344v-401h344
q108 0 167.5 53.5t59.5 146.5t-59.5 147t-167.5 54zM786 213q118 0 186 60t68 165t-70 163t-190 58h-368v-446h374z" />
    <glyph glyph-name="uni2105" unicode="&#x2105;" horiz-adv-x="1929" 
d="M420 625q-181 0 -293.5 117t-112.5 305q0 186 112.5 302.5t293.5 116.5q144 0 241 -80t123 -204h-190q-18 59 -63 95t-111 36q-99 0 -157 -71t-58 -195q0 -125 58 -198t157 -73q66 0 111 36t63 95h190q-26 -124 -122 -203t-242 -79zM1595 1454l-1056 -1454h-217
l1056 1454h217zM1509 -12q-179 0 -291 116.5t-112 305.5q0 188 112 303.5t291 115.5q181 0 293.5 -115.5t112.5 -303.5q0 -189 -113 -305.5t-293 -116.5zM1509 141q102 0 158.5 74t56.5 195t-56.5 193.5t-158.5 72.5q-101 0 -158 -73.5t-57 -192.5q0 -121 57 -195t158 -74z
" />
    <glyph glyph-name="uni2113" unicode="&#x2113;" horiz-adv-x="921" 
d="M469 334q0 -84 35.5 -119t109.5 -35q97 0 205 53v-198q-124 -60 -268 -60q-165 0 -252.5 84.5t-87.5 251.5v56l-160 -93v203q119 67 160 92v510q0 204 84.5 302t257.5 98q160 0 246 -93t86 -239q0 -93 -30 -179.5t-88 -162.5t-130 -142t-168 -133v-196zM469 1118v-368
q104 90 157.5 185t53.5 208q0 67 -28 106t-81 39q-54 0 -78 -42.5t-24 -127.5z" />
    <glyph glyph-name="uni2116" unicode="&#x2116;" horiz-adv-x="2250" 
d="M1821 686q-170 0 -269.5 111.5t-99.5 285.5t99.5 285t269.5 111q168 0 267 -111t99 -285t-99 -285.5t-267 -111.5zM1098 324v1130h270v-1454h-346l-621 1130v-1130h-270v1454h346zM1821 1292q-69 0 -110.5 -54.5t-41.5 -154.5q0 -101 41.5 -156t110.5 -55q68 0 108.5 55
t40.5 156q0 100 -40.5 154.5t-108.5 54.5zM1473 385v227h694v-227h-694z" />
    <glyph glyph-name="uni2117" unicode="&#x2117;" horiz-adv-x="1685" 
d="M842 1479q153 0 292 -59.5t239.5 -160t160 -240t59.5 -292.5t-59.5 -292.5t-159.5 -240t-239.5 -160t-292.5 -59.5t-292.5 59.5t-240 160t-160 240t-59.5 292.5t59.5 292.5t160 240t240 160t292.5 59.5zM842 104q169 0 310 84t221.5 227t80.5 312t-80.5 312t-221.5 227
t-310 84q-126 0 -239.5 -49.5t-194.5 -133.5t-129 -199t-48 -241t48 -241t129 -199t194.5 -133.5t239.5 -49.5zM928 1137q126 0 202 -69t76 -183t-76 -183t-202 -69h-185v-314h-180v818h365zM883 780q69 0 103 24t34 81q0 55 -34.5 79.5t-102.5 24.5h-140v-209h140z" />
    <glyph glyph-name="estimated" unicode="&#x212e;" horiz-adv-x="1189" 
d="M88 522q0 235 146.5 389t373.5 154q120 0 221 -46.5t166.5 -125t100 -182.5t28.5 -219h-759v-324q97 -100 262 -100q134 0 231 66t139 181h109q-51 -155 -175 -247.5t-304 -92.5q-157 0 -280.5 71t-191 195.5t-67.5 280.5zM854 584v303q-40 38 -105.5 62t-140.5 24
q-150 0 -243 -86v-303h489z" />
    <glyph glyph-name="oneeighth" unicode="&#x215b;" horiz-adv-x="1757" 
d="M244 637v557h-195v127h33q83 0 130 28.5t60 104.5h148v-817h-176zM1237 1454h215l-1057 -1454h-215zM1528 440q78 -28 122 -80.5t44 -123.5q0 -113 -93.5 -180.5t-242.5 -67.5q-153 0 -244.5 67t-91.5 181q0 71 43 123.5t121 80.5q-137 53 -137 176q0 97 87 155t222 58
q133 0 221 -58.5t88 -154.5q0 -123 -139 -176zM1358 692q-58 0 -94.5 -26.5t-36.5 -67.5q0 -43 36.5 -69.5t94.5 -26.5t93.5 26.5t35.5 69.5q0 42 -35.5 68t-93.5 26zM1358 131q69 0 111 34t42 89t-42 89t-111 34q-70 0 -112 -33.5t-42 -89.5t42 -89.5t112 -33.5z" />
    <glyph glyph-name="threeeighths" unicode="&#x215c;" horiz-adv-x="1908" 
d="M713 879q0 -116 -88.5 -185t-237.5 -69t-235 73.5t-99 188.5h183q19 -119 151 -119q66 0 104.5 31t38.5 86q0 116 -163 116h-29v136h27q141 0 141 98q0 42 -33.5 66t-89.5 24q-126 0 -137 -117h-180q7 123 95.5 190.5t221.5 67.5q131 0 217 -59.5t86 -157.5
q0 -69 -42.5 -111.5t-115.5 -58.5q84 -14 134.5 -67.5t50.5 -132.5zM1393 1454h217l-1057 -1454h-217zM1690 440q77 -28 120 -80.5t43 -123.5q0 -113 -93 -180.5t-242 -67.5q-152 0 -244 67.5t-92 180.5q0 70 43.5 123t120.5 81q-138 54 -138 176q0 96 87.5 154.5
t222.5 58.5t222 -58t87 -155q0 -122 -137 -176zM1518 692q-58 0 -93.5 -26t-35.5 -68q0 -43 35.5 -69.5t93.5 -26.5t94.5 26.5t36.5 69.5q0 41 -36.5 67.5t-94.5 26.5zM1518 131q70 0 112.5 33.5t42.5 89.5t-42.5 89.5t-112.5 33.5q-69 0 -111.5 -34t-42.5 -89t42.5 -89
t111.5 -34z" />
    <glyph glyph-name="fiveeighths" unicode="&#x215d;" horiz-adv-x="1890" 
d="M715 920q0 -128 -88.5 -211.5t-239.5 -83.5q-147 0 -234 73.5t-100 182.5h180q12 -54 51.5 -83.5t102.5 -29.5q64 0 102.5 41t38.5 111q0 68 -38.5 107.5t-102.5 39.5q-80 0 -135 -70h-178l55 457h551v-145h-404l-24 -193q69 82 184 82q124 0 201.5 -78t77.5 -200z
M1372 1454h217l-1057 -1454h-217zM1669 440q77 -28 120.5 -81t43.5 -123q0 -113 -93.5 -180.5t-242.5 -67.5q-151 0 -242.5 67t-91.5 181q0 71 43 123.5t119 80.5q-137 54 -137 176q0 97 87 155t222 58t222 -58t87 -155q0 -122 -137 -176zM1497 692q-58 0 -93.5 -26
t-35.5 -68q0 -43 35.5 -69.5t93.5 -26.5t94.5 26.5t36.5 69.5q0 41 -36.5 67.5t-94.5 26.5zM1497 131q70 0 113 33.5t43 89.5t-43 89.5t-113 33.5q-69 0 -111.5 -34t-42.5 -89t42.5 -89t111.5 -34z" />
    <glyph glyph-name="seveneighths" unicode="&#x215e;" horiz-adv-x="1705" 
d="M160 637q12 88 24.5 152t37.5 140.5t59 136.5t88.5 124t126.5 119h-445v145h608v-145q-52 -40 -93.5 -84.5t-70.5 -85.5t-52 -93.5t-37 -94.5t-26 -102t-18 -102.5t-14 -109.5h-188zM1192 1454h215l-1057 -1454h-215zM1485 440q77 -28 120.5 -81t43.5 -123
q0 -113 -93.5 -180.5t-242.5 -67.5q-153 0 -244.5 67t-91.5 181q0 71 43 123.5t121 80.5q-137 54 -137 176q0 97 87 155t222 58q133 0 221 -58.5t88 -154.5q0 -122 -137 -176zM1313 692q-58 0 -93.5 -26t-35.5 -68q0 -43 35.5 -69.5t93.5 -26.5t94.5 26.5t36.5 69.5
q0 41 -36.5 67.5t-94.5 26.5zM1313 131q69 0 111 34t42 89t-42 89t-111 34q-70 0 -112 -33.5t-42 -89.5t42 -89.5t112 -33.5z" />
    <glyph glyph-name="uni2160" unicode="&#x2160;" horiz-adv-x="540" 
d="M412 1454v-1454h-281v1454h281z" />
    <glyph glyph-name="uni2161" unicode="&#x2161;" horiz-adv-x="1019" 
d="M412 1454v-1454h-281v1454h281zM889 1454v-1454h-281v1454h281z" />
    <glyph glyph-name="uni2162" unicode="&#x2162;" horiz-adv-x="1497" 
d="M412 1454v-1454h-281v1454h281zM889 1454v-1454h-281v1454h281zM1368 1454v-1454h-281v1454h281z" />
    <glyph glyph-name="uni2163" unicode="&#x2163;" horiz-adv-x="1800" 
d="M127 0v1454h281v-1454h-281zM1503 1454h287l-487 -1454h-332l-488 1454h289l365 -1178z" />
    <glyph glyph-name="uni2164" unicode="&#x2164;" horiz-adv-x="1329" 
d="M1030 1454h289l-488 -1454h-333l-486 1454h287l367 -1178z" />
    <glyph glyph-name="uni2165" unicode="&#x2165;" horiz-adv-x="1800" 
d="M664 276l364 1178h289l-488 -1454h-333l-486 1454h287zM1393 1454h280v-1454h-280v1454z" />
    <glyph glyph-name="uni2166" unicode="&#x2166;" horiz-adv-x="2279" 
d="M664 276l364 1178h289l-488 -1454h-333l-486 1454h287zM1393 0v1454h280v-1454h-280zM1872 1454h280v-1454h-280v1454z" />
    <glyph glyph-name="uni2167" unicode="&#x2167;" horiz-adv-x="2760" 
d="M664 276l364 1178h289l-488 -1454h-333l-486 1454h287zM1393 0v1454h280v-1454h-280zM1874 0v1454h280v-1454h-280zM2353 1454h281v-1454h-281v1454z" />
    <glyph glyph-name="uni2168" unicode="&#x2168;" horiz-adv-x="1757" 
d="M412 1454v-1454h-281v1454h281zM973 729l-494 725h316l325 -502l338 502h303l-493 -725l501 -729h-315l-334 512l-342 -512h-309z" />
    <glyph glyph-name="uni2169" unicode="&#x2169;" horiz-adv-x="1284" 
d="M496 729l-496 725h315l326 -502l338 502h303l-494 -725l504 -729h-317l-334 512l-342 -512h-307z" />
    <glyph glyph-name="uni216C" unicode="&#x216c;" horiz-adv-x="1179" 
d="M412 246h733v-246h-1014v1454h281v-1208z" />
    <glyph glyph-name="uni216D" unicode="&#x216d;" horiz-adv-x="1456" 
d="M776 -25q-212 0 -374 95.5t-249 266t-87 390.5t87 390.5t249 266t374 95.5q128 0 238 -39t189 -107.5t132.5 -160t75.5 -199.5h-289q-29 121 -119 193.5t-227 72.5q-196 0 -309 -141.5t-113 -370.5t113 -370.5t309 -141.5q145 0 231 71.5t115 194.5h289
q-22 -108 -73.5 -199.5t-130 -160.5t-189 -107.5t-242.5 -38.5z" />
    <glyph glyph-name="uni216E" unicode="&#x216e;" horiz-adv-x="1447" 
d="M700 1454q220 0 374.5 -92.5t230 -254.5t75.5 -380t-75.5 -380t-230 -254.5t-374.5 -92.5h-569v1454h569zM664 240q214 0 321 124.5t107 362.5t-107 362.5t-321 124.5h-252v-974h252z" />
    <glyph glyph-name="uni216F" unicode="&#x216f;" horiz-adv-x="1767" 
d="M1636 1454v-1454h-262v1169l-368 -1169h-244l-369 1169v-1169h-262v1454h404l350 -1126l348 1126h403z" />
    <glyph glyph-name="arrowleft" unicode="&#x2190;" horiz-adv-x="1636" 
d="M1552 637v-229h-1093l407 -408h-276l-522 522l522 522h276l-407 -407h1093z" />
    <glyph glyph-name="arrowup" unicode="&#x2191;" horiz-adv-x="1146" 
d="M1096 963v-277l-408 408v-1094h-229v1094l-408 -408v277l522 522z" />
    <glyph glyph-name="arrowright" unicode="&#x2192;" horiz-adv-x="1636" 
d="M1047 1044l522 -522l-522 -522h-277l408 408h-1094v229h1094l-408 407h277z" />
    <glyph glyph-name="arrowdown" unicode="&#x2193;" horiz-adv-x="1146" 
d="M688 360l408 408v-276l-523 -523l-522 523v276l408 -408v1094h229v-1094z" />
    <glyph glyph-name="arrowboth" unicode="&#x2194;" horiz-adv-x="1798" 
d="M1217 1044l522 -522l-522 -522h-269l412 412h-922l412 -412h-268l-523 522l523 522h268l-412 -411h922l-412 411h269z" />
    <glyph glyph-name="arrowupdn" unicode="&#x2195;" horiz-adv-x="1234" 
d="M96 705l412 -414v872l-412 -413v268l522 522l523 -522v-268l-414 413v-872l414 414v-269l-523 -522l-522 522v269z" />
    <glyph glyph-name="uni2196" unicode="&#x2196;" horiz-adv-x="1304" 
d="M1241 76l-162 -162l-772 774v-577l-194 194v739h737l197 -194h-580z" />
    <glyph glyph-name="uni2197" unicode="&#x2197;" horiz-adv-x="1304" 
d="M455 1044h737v-739l-195 -194v577l-772 -774l-162 162l775 774h-580z" />
    <glyph glyph-name="uni2198" unicode="&#x2198;" horiz-adv-x="1304" 
d="M997 934l195 -195v-739h-737l-197 195h580l-775 774l162 161l772 -774v578z" />
    <glyph glyph-name="uni2199" unicode="&#x2199;" horiz-adv-x="1304" 
d="M1241 969l-774 -774h577l-194 -195h-739v739l194 195v-578l774 774z" />
    <glyph glyph-name="partialdiff" unicode="&#x2202;" horiz-adv-x="1130" 
d="M53 512q0 243 124.5 387.5t320.5 144.5q102 0 175.5 -41.5t112.5 -105.5q-39 140 -179 238t-308 112v207q158 -18 287 -74t217 -136.5t148 -184t87 -215.5t27 -232q0 -308 -140 -472.5t-378 -164.5q-224 0 -359 146.5t-135 390.5zM324 512q0 -158 62 -253t171 -95
q115 0 175.5 94t60.5 254t-60 252t-176 92q-109 0 -171 -93.5t-62 -250.5z" />
    <glyph glyph-name="emptyset" unicode="&#x2205;" horiz-adv-x="1652" 
d="M1579 1454l-199 -217q94 -104 146.5 -234.5t52.5 -275.5q0 -153 -59.5 -292.5t-160 -240t-240 -160t-292.5 -59.5q-252 0 -456 154l-119 -129h-176l198 217q-94 103 -146 234t-52 276q0 153 59.5 292.5t159.5 240t239.5 160t292.5 59.5q253 0 457 -154l117 129h178z
M276 727q0 -204 132 -362l741 813q-142 104 -322 104q-113 0 -215 -44t-175.5 -118t-117 -177t-43.5 -216zM1376 727q0 207 -131 360l-741 -811q142 -104 323 -104q112 0 214 44t175.5 118t116.5 177t43 216z" />
    <glyph glyph-name="product" unicode="&#x220f;" horiz-adv-x="1368" 
d="M1237 1454v-1802h-258v1581h-590v-1581h-258v1802h1106z" />
    <glyph glyph-name="summation" unicode="&#x2211;" horiz-adv-x="1099" 
d="M1042 1454v-221h-696l508 -680l-508 -680h696v-221h-983v221l508 680l-508 680v221h983z" />
    <glyph glyph-name="minus" unicode="&#x2212;" horiz-adv-x="1288" 
d="M1169 639v-233h-1050v233h1050z" />
    <glyph glyph-name="radical" unicode="&#x221a;" horiz-adv-x="1204" 
d="M993 1454h252l-569 -1802h-254l-272 696h-160v221h329l220 -596z" />
    <glyph glyph-name="infinity" unicode="&#x221e;" horiz-adv-x="1572" 
d="M1155 893q153 0 244.5 -97t91.5 -249t-91.5 -249t-244.5 -97q-107 0 -194.5 54t-174.5 148q-87 -94 -174 -148t-194 -54q-153 0 -244.5 97t-91.5 249t91.5 249t244.5 97q107 0 193.5 -54t174.5 -149q87 95 174.5 149t194.5 54zM436 389q55 0 108 40.5t120 117.5
q-67 77 -120 117.5t-108 40.5q-63 0 -102 -43.5t-39 -114.5t39 -114.5t102 -43.5zM1137 389q63 0 102 43t39 115t-39 115t-102 43q-55 0 -108 -40.5t-120 -117.5q67 -77 120 -117.5t108 -40.5z" />
    <glyph glyph-name="integral" unicode="&#x222b;" horiz-adv-x="716" 
d="M0 -178h123q62 0 84 25.5t22 93.5v1226q0 154 62.5 220.5t218.5 66.5h207v-184h-123q-62 0 -84.5 -25.5t-22.5 -93.5v-1227q0 -153 -63 -219.5t-219 -66.5h-205v184z" />
    <glyph glyph-name="approxequal" unicode="&#x2248;" horiz-adv-x="1288" 
d="M856 811q92 0 105 113h200q-11 -145 -80 -230.5t-198 -85.5q-66 0 -153 28t-166.5 55.5t-127.5 27.5q-93 0 -106 -111h-199q10 143 79.5 229.5t197.5 86.5q67 0 154 -28t166 -56.5t128 -28.5zM856 416q92 0 105 110h200q-11 -143 -80 -229t-198 -86q-66 0 -153 28.5
t-166.5 56.5t-127.5 28q-93 0 -106 -113h-199q9 144 79 229.5t198 85.5q67 0 154 -27.5t166.5 -55t127.5 -27.5z" />
    <glyph glyph-name="notequal" unicode="&#x2260;" horiz-adv-x="1288" 
d="M1169 614h-358l-94 -170h452v-217h-571l-125 -227h-252l125 227h-227v217h348l92 170h-440v217h561l117 213h250l-117 -213h239v-217z" />
    <glyph glyph-name="lessequal" unicode="&#x2264;" horiz-adv-x="1288" 
d="M1124 1044v-210l-704 -185l704 -168v-213l-966 271v217zM156 0v203h968v-203h-968z" />
    <glyph glyph-name="greaterequal" unicode="&#x2265;" horiz-adv-x="1288" 
d="M1130 539l-966 -271v213l704 168l-704 185v210l966 -288v-217zM164 203h969v-203h-969v203z" />
    <glyph glyph-name="uni2460" unicode="&#x2460;" 
d="M844 -25q-153 0 -292.5 59.5t-240 160t-160 240t-59.5 292.5t59.5 292.5t160 240t240 160t292.5 59.5t292 -59.5t239.5 -160t160 -240t59.5 -292.5t-59.5 -292.5t-159.5 -240t-239.5 -160t-292.5 -59.5zM844 104q168 0 308.5 84t221 227t80.5 312t-80.5 312t-221 227
t-308.5 84q-126 0 -239.5 -49.5t-194.5 -133.5t-129 -199t-48 -241t48 -241t129 -199t194.5 -133.5t239.5 -49.5zM610 1004h35q82 0 129.5 28.5t61.5 104.5h145v-818h-176v558h-195v127z" />
    <glyph glyph-name="uni2461" unicode="&#x2461;" 
d="M844 1479q153 0 292 -59.5t239.5 -160t160 -240t59.5 -292.5t-59.5 -292.5t-159.5 -240t-239.5 -160t-292.5 -59.5t-292.5 59.5t-240 160t-160 240t-59.5 292.5t59.5 292.5t160 240t240 160t292.5 59.5zM844 104q168 0 308.5 84t221 227t80.5 312t-80.5 312t-221 227
t-308.5 84q-126 0 -239.5 -49.5t-194.5 -133.5t-129 -199t-48 -241t48 -241t129 -199t194.5 -133.5t239.5 -49.5zM985 672q-14 -10 -59.5 -42t-61.5 -44t-44 -36t-42 -43t-22 -40h399v-148h-631q3 49 12.5 91t21.5 74t36 63.5t43.5 52t56 48t61.5 44t72 45.5
q81 47 111.5 81.5t30.5 84.5q0 45 -33 74t-88 29q-63 0 -100 -38.5t-43 -111.5h-181q8 134 93.5 213.5t232.5 79.5q143 0 222 -69t79 -171q0 -71 -39 -125t-127 -112z" />
    <glyph glyph-name="uni2462" unicode="&#x2462;" 
d="M844 -25q-153 0 -292.5 59.5t-240 160t-160 240t-59.5 292.5t59.5 292.5t160 240t240 160t292.5 59.5t292 -59.5t239.5 -160t160 -240t59.5 -292.5t-59.5 -292.5t-159.5 -240t-239.5 -160t-292.5 -59.5zM844 104q168 0 308.5 84t221 227t80.5 312t-80.5 312t-221 227
t-308.5 84q-126 0 -239.5 -49.5t-194.5 -133.5t-129 -199t-48 -241t48 -241t129 -199t194.5 -133.5t239.5 -49.5zM707 891q11 117 137 117q56 0 89.5 -24t33.5 -66q0 -48 -36 -73.5t-104 -25.5h-28v-135h30q79 0 120.5 -30t41.5 -87q0 -55 -38 -85.5t-105 -30.5
q-130 0 -152 118h-182q13 -115 99.5 -188.5t234.5 -73.5q149 0 238.5 69t89.5 185q0 79 -51 133t-136 68q73 16 116.5 58.5t43.5 111.5q0 98 -86 157.5t-219 59.5t-222 -67.5t-96 -190.5h181z" />
    <glyph glyph-name="uni2463" unicode="&#x2463;" 
d="M844 1479q153 0 292 -59.5t239.5 -160t160 -240t59.5 -292.5t-59.5 -292.5t-159.5 -240t-239.5 -160t-292.5 -59.5t-292.5 59.5t-240 160t-160 240t-59.5 292.5t59.5 292.5t160 240t240 160t292.5 59.5zM844 104q168 0 308.5 84t221 227t80.5 312t-80.5 312t-221 227
t-308.5 84q-126 0 -239.5 -49.5t-194.5 -133.5t-129 -199t-48 -241t48 -241t129 -199t194.5 -133.5t239.5 -49.5zM1042 1137v-504h134v-139h-134v-175h-178v175h-399v139l399 504h178zM633 633h231v291z" />
    <glyph glyph-name="uni2464" unicode="&#x2464;" 
d="M844 1479q153 0 292 -59.5t239.5 -160t160 -240t59.5 -292.5t-59.5 -292.5t-159.5 -240t-239.5 -160t-292.5 -59.5t-292.5 59.5t-240 160t-160 240t-59.5 292.5t59.5 292.5t160 240t240 160t292.5 59.5zM844 104q168 0 308.5 84t221 227t80.5 312t-80.5 312t-221 227
t-308.5 84q-126 0 -239.5 -49.5t-194.5 -133.5t-129 -199t-48 -241t48 -241t129 -199t194.5 -133.5t239.5 -49.5zM891 881q125 0 201.5 -78t76.5 -201q0 -128 -88 -211.5t-239 -83.5q-147 0 -234 73.5t-100 182.5h180q25 -112 154 -112q64 0 103.5 40.5t39.5 110.5
q0 68 -39.5 108t-103.5 40q-80 0 -135 -70h-179l56 457h551v-146h-402l-26 -192q69 82 184 82z" />
    <glyph glyph-name="uni2465" unicode="&#x2465;" 
d="M844 -25q-153 0 -292.5 59.5t-240 160t-160 240t-59.5 292.5t59.5 292.5t160 240t240 160t292.5 59.5t292 -59.5t239.5 -160t160 -240t59.5 -292.5t-59.5 -292.5t-159.5 -240t-239.5 -160t-292.5 -59.5zM844 104q168 0 308.5 84t221 227t80.5 312t-80.5 312t-221 227
t-308.5 84q-126 0 -239.5 -49.5t-194.5 -133.5t-129 -199t-48 -241t48 -241t129 -199t194.5 -133.5t239.5 -49.5zM852 307q-169 0 -258.5 117.5t-89.5 308.5q0 86 21.5 159.5t63.5 131.5t110.5 91.5t156.5 33.5q125 0 201.5 -62t97.5 -153h-180q-26 76 -121 76
q-168 0 -174 -258q25 50 79.5 84t127.5 34q124 0 203 -76.5t79 -201.5q0 -126 -88 -205.5t-229 -79.5zM846 449q61 0 101 41.5t40 103.5t-40 103.5t-101 41.5t-101 -41.5t-40 -103.5t40 -103.5t101 -41.5z" />
    <glyph glyph-name="uni2466" unicode="&#x2466;" 
d="M844 -25q-153 0 -292.5 59.5t-240 160t-160 240t-59.5 292.5t59.5 292.5t160 240t240 160t292.5 59.5t292 -59.5t239.5 -160t160 -240t59.5 -292.5t-59.5 -292.5t-159.5 -240t-239.5 -160t-292.5 -59.5zM844 104q168 0 308.5 84t221 227t80.5 312t-80.5 312t-221 227
t-308.5 84q-126 0 -239.5 -49.5t-194.5 -133.5t-129 -199t-48 -241t48 -241t129 -199t194.5 -133.5t239.5 -49.5zM549 1137h608v-146q-52 -40 -93.5 -84.5t-70 -85.5t-52 -94.5t-37 -93.5t-25.5 -102.5t-18 -102t-15 -109.5h-189q16 113 34 190t54 168t97.5 168t150.5 146
h-444v146z" />
    <glyph glyph-name="uni2467" unicode="&#x2467;" 
d="M844 1479q153 0 292 -59.5t239.5 -160t160 -240t59.5 -292.5t-59.5 -292.5t-159.5 -240t-239.5 -160t-292.5 -59.5t-292.5 59.5t-240 160t-160 240t-59.5 292.5t59.5 292.5t160 240t240 160t292.5 59.5zM844 104q168 0 308.5 84t221 227t80.5 312t-80.5 312t-221 227
t-308.5 84q-126 0 -239.5 -49.5t-194.5 -133.5t-129 -199t-48 -241t48 -241t129 -199t194.5 -133.5t239.5 -49.5zM1014 760q78 -28 122 -81t44 -124q0 -113 -93.5 -180.5t-242.5 -67.5q-153 0 -244.5 67t-91.5 181q0 71 43 124t121 81q-137 54 -137 176q0 97 87 155t222 58
q133 0 221 -58.5t88 -154.5q0 -123 -139 -176zM844 1012q-58 0 -94.5 -26.5t-36.5 -67.5q0 -43 36.5 -70t94.5 -27t94.5 27t36.5 70q0 41 -36.5 67.5t-94.5 26.5zM844 451q69 0 111 33.5t42 88.5t-42 89t-111 34q-70 0 -112 -33.5t-42 -89.5t42 -89t112 -33z" />
    <glyph glyph-name="uni2468" unicode="&#x2468;" 
d="M844 -25q-153 0 -292.5 59.5t-240 160t-160 240t-59.5 292.5t59.5 292.5t160 240t240 160t292.5 59.5t292 -59.5t239.5 -160t160 -240t59.5 -292.5t-59.5 -292.5t-159.5 -240t-239.5 -160t-292.5 -59.5zM844 104q168 0 308.5 84t221 227t80.5 312t-80.5 312t-221 227
t-308.5 84q-126 0 -239.5 -49.5t-194.5 -133.5t-129 -199t-48 -241t48 -241t129 -199t194.5 -133.5t239.5 -49.5zM838 1149q169 0 258.5 -117.5t89.5 -308.5q0 -85 -21.5 -159t-63 -132t-110 -91.5t-155.5 -33.5q-127 0 -203.5 62t-95.5 153h178q26 -76 121 -76
q168 0 174 259q-24 -50 -79 -84.5t-128 -34.5q-124 0 -203.5 76.5t-79.5 201.5q0 126 88.5 205.5t229.5 79.5zM844 1008q-60 0 -101 -42t-41 -104q0 -61 41 -103t101 -42q61 0 102 41.5t41 103.5t-41 104t-102 42z" />
    <glyph glyph-name="uni24EA" unicode="&#x24ea;" 
d="M844 -25q-153 0 -292.5 59.5t-240 160t-160 240t-59.5 292.5t59.5 292.5t160 240t240 160t292.5 59.5t292 -59.5t239.5 -160t160 -240t59.5 -292.5t-59.5 -292.5t-159.5 -240t-239.5 -160t-292.5 -59.5zM844 104q168 0 308.5 84t221 227t80.5 312t-80.5 312t-221 227
t-308.5 84q-126 0 -239.5 -49.5t-194.5 -133.5t-129 -199t-48 -241t48 -241t129 -199t194.5 -133.5t239.5 -49.5zM844 307q-165 0 -256.5 119.5t-91.5 302.5q0 185 91 302.5t257 117.5t257 -117.5t91 -302.5q0 -183 -91.5 -302.5t-256.5 -119.5zM844 451q84 0 124 77t40 201
q0 125 -40 201t-124 76q-83 0 -123.5 -76.5t-40.5 -200.5q0 -123 40.5 -200.5t123.5 -77.5z" />
    <glyph glyph-name="uni24FF" unicode="&#x24ff;" 
d="M844 -25q-153 0 -292.5 59.5t-240 160t-160 240t-59.5 292.5t59.5 292.5t160 240t240 160t292.5 59.5t292 -59.5t239.5 -160t160 -240t59.5 -292.5t-59.5 -292.5t-159.5 -240t-239.5 -160t-292.5 -59.5zM844 307q165 0 256.5 119.5t91.5 302.5q0 185 -91 302.5
t-257 117.5t-257 -117.5t-91 -302.5q0 -183 91.5 -302.5t256.5 -119.5zM844 451q-83 0 -123.5 77.5t-40.5 200.5q0 124 40.5 200.5t123.5 76.5q84 0 124 -76t40 -201q0 -124 -40 -201t-124 -77z" />
    <glyph glyph-name="filledbox" unicode="&#x25a0;" horiz-adv-x="1714" 
d="M1585 1454v-1454h-1454v1454h1454z" />
    <glyph glyph-name="uni25A1" unicode="&#x25a1;" horiz-adv-x="1714" 
d="M131 1454h1454v-1454h-1454v1454zM1376 207v1040h-1038v-1040h1038z" />
    <glyph glyph-name="lozenge" unicode="&#x25ca;" horiz-adv-x="1249" 
d="M776 1454l398 -727l-398 -727h-301l-399 727l399 727h301zM625 207l282 520l-282 520l-283 -520z" />
    <glyph glyph-name="circle" unicode="&#x25cb;" 
d="M848 1479q152 0 290 -59.5t238.5 -159.5t159.5 -238.5t59 -290.5q0 -155 -59 -295t-159.5 -241t-238.5 -160.5t-290 -59.5q-155 0 -295.5 59.5t-241.5 160.5t-160 241t-59 295q0 152 59.5 290.5t160 238.5t241 159.5t295.5 59.5zM848 182q147 0 271.5 73t197 199.5
t72.5 276.5q0 146 -72.5 270.5t-197 197.5t-271.5 73q-151 0 -277.5 -73t-199 -197.5t-72.5 -270.5q0 -112 43 -214t116 -175.5t175 -116.5t215 -43z" />
    <glyph glyph-name="uni25CF" unicode="&#x25cf;" 
d="M848 -25q-155 0 -295.5 59.5t-241.5 160.5t-160 241t-59 295q0 152 59.5 290.5t160 238.5t241 159.5t295.5 59.5q152 0 290 -59.5t238.5 -159.5t159.5 -238.5t59 -290.5q0 -155 -59 -295t-159.5 -241t-238.5 -160.5t-290 -59.5z" />
    <glyph glyph-name="uni2776" unicode="&#x2776;" 
d="M844 -25q-153 0 -292.5 59.5t-240 160t-160 240t-59.5 292.5t59.5 292.5t160 240t240 160t292.5 59.5t292 -59.5t239.5 -160t160 -240t59.5 -292.5t-59.5 -292.5t-159.5 -240t-239.5 -160t-292.5 -59.5zM981 319v818h-145q-14 -76 -61.5 -104.5t-129.5 -28.5h-35v-127
h195v-558h176z" />
    <glyph glyph-name="uni2777" unicode="&#x2777;" 
d="M844 -25q-153 0 -292.5 59.5t-240 160t-160 240t-59.5 292.5t59.5 292.5t160 240t240 160t292.5 59.5t292 -59.5t239.5 -160t160 -240t59.5 -292.5t-59.5 -292.5t-159.5 -240t-239.5 -160t-292.5 -59.5zM1155 319v148h-399q8 21 22 40t42 43t44 36t61.5 44t59.5 42
q88 58 127 112t39 125q0 102 -79 171t-222 69q-147 0 -232.5 -79.5t-93.5 -213.5h181q12 150 143 150q55 0 88 -29t33 -74q0 -50 -30.5 -84.5t-111.5 -81.5q-47 -29 -72 -45.5t-61.5 -44t-56 -48t-43.5 -52t-36 -63.5t-21.5 -74t-12.5 -91h631z" />
    <glyph glyph-name="uni2778" unicode="&#x2778;" 
d="M844 -25q-153 0 -292.5 59.5t-240 160t-160 240t-59.5 292.5t59.5 292.5t160 240t240 160t292.5 59.5t292 -59.5t239.5 -160t160 -240t59.5 -292.5t-59.5 -292.5t-159.5 -240t-239.5 -160t-292.5 -59.5zM707 891q11 117 137 117q56 0 89.5 -24t33.5 -66q0 -48 -36 -73.5
t-104 -25.5h-28v-135h30q79 0 120.5 -30t41.5 -87q0 -55 -38 -85.5t-105 -30.5q-130 0 -152 118h-182q13 -115 99.5 -188.5t234.5 -73.5q149 0 238.5 69t89.5 185q0 79 -51 133t-136 68q73 16 116.5 58.5t43.5 111.5q0 98 -86 157.5t-219 59.5t-222 -67.5t-96 -190.5h181z
" />
    <glyph glyph-name="uni2779" unicode="&#x2779;" 
d="M844 -25q-153 0 -292.5 59.5t-240 160t-160 240t-59.5 292.5t59.5 292.5t160 240t240 160t292.5 59.5t292 -59.5t239.5 -160t160 -240t59.5 -292.5t-59.5 -292.5t-159.5 -240t-239.5 -160t-292.5 -59.5zM1042 319v175h134v139h-134v504h-178l-399 -504v-139h399v-175h178
zM864 928v-295h-231z" />
    <glyph glyph-name="uni277A" unicode="&#x277a;" 
d="M844 -25q-153 0 -292.5 59.5t-240 160t-160 240t-59.5 292.5t59.5 292.5t160 240t240 160t292.5 59.5t292 -59.5t239.5 -160t160 -240t59.5 -292.5t-59.5 -292.5t-159.5 -240t-239.5 -160t-292.5 -59.5zM842 307q151 0 239 83.5t88 211.5q0 123 -76.5 201t-201.5 78
q-113 0 -182 -82l22 192h404v146h-551l-56 -457h179q55 70 135 70q64 0 103.5 -40t39.5 -108t-39.5 -109.5t-103.5 -41.5q-129 0 -154 112h-180q13 -109 100 -182.5t234 -73.5z" />
    <glyph glyph-name="uni277B" unicode="&#x277b;" 
d="M844 -25q-153 0 -292.5 59.5t-240 160t-160 240t-59.5 292.5t59.5 292.5t160 240t240 160t292.5 59.5t292 -59.5t239.5 -160t160 -240t59.5 -292.5t-59.5 -292.5t-159.5 -240t-239.5 -160t-292.5 -59.5zM852 307q141 0 229 79.5t88 205.5q0 125 -79 201.5t-203 76.5
q-73 0 -127.5 -34t-79.5 -84q6 258 174 258q95 0 121 -76h180q-21 91 -97.5 153t-201.5 62q-88 0 -156.5 -33.5t-110.5 -91.5t-63.5 -131.5t-21.5 -159.5q0 -191 89.5 -308.5t258.5 -117.5zM846 449q-61 0 -101 41.5t-40 103.5t40 103.5t101 41.5t101 -41.5t40 -103.5
t-40 -103.5t-101 -41.5z" />
    <glyph glyph-name="uni277C" unicode="&#x277c;" 
d="M844 -25q-153 0 -292.5 59.5t-240 160t-160 240t-59.5 292.5t59.5 292.5t160 240t240 160t292.5 59.5t292 -59.5t239.5 -160t160 -240t59.5 -292.5t-59.5 -292.5t-159.5 -240t-239.5 -160t-292.5 -59.5zM846 319q9 70 15 109.5t18 102t25.5 102.5t37 93.5t52 94.5
t70 85.5t93.5 84.5v146h-608v-146h444q-89 -69 -150.5 -146t-97.5 -168t-54 -168t-34 -190h189z" />
    <glyph glyph-name="uni277D" unicode="&#x277d;" 
d="M844 -25q-153 0 -292.5 59.5t-240 160t-160 240t-59.5 292.5t59.5 292.5t160 240t240 160t292.5 59.5t292 -59.5t239.5 -160t160 -240t59.5 -292.5t-59.5 -292.5t-159.5 -240t-239.5 -160t-292.5 -59.5zM844 307q149 0 242.5 67.5t93.5 180.5q0 70 -44.5 123t-121.5 82
q139 50 139 176q0 96 -88 154.5t-221 58.5q-135 0 -222 -58t-87 -155q0 -62 36.5 -107t102.5 -69q-78 -28 -122 -81t-44 -124q0 -114 91.5 -181t244.5 -67zM844 821q-58 0 -94.5 27t-36.5 70q0 41 36.5 67.5t94.5 26.5t94.5 -26.5t36.5 -67.5q0 -43 -36.5 -70t-94.5 -27z
M844 451q-70 0 -112 33t-42 89t42 89.5t112 33.5q69 0 111 -34t42 -89t-42 -88.5t-111 -33.5z" />
    <glyph glyph-name="uni277E" unicode="&#x277e;" 
d="M844 -25q-153 0 -292 59.5t-240 160t-160.5 240t-59.5 292.5t59.5 292.5t160 240t240 160t292.5 59.5t292.5 -59.5t239.5 -160t159.5 -240t59.5 -292.5t-59.5 -292.5t-159.5 -240t-239.5 -160t-292.5 -59.5zM836 307q87 0 155.5 33.5t110 91.5t63 132t21.5 159
q0 191 -89.5 308.5t-258.5 117.5q-141 0 -229.5 -79.5t-88.5 -205.5q0 -125 79.5 -201.5t203.5 -76.5q73 0 128 34.5t79 84.5q-6 -259 -174 -259q-95 0 -121 76h-178q19 -91 95.5 -153t203.5 -62zM844 717q-60 0 -101 42t-41 103q0 62 41 104t101 42q61 0 102 -42t41 -104
t-41 -103.5t-102 -41.5z" />
    <glyph glyph-name="uni2B1F" unicode="&#x2b1f;" horiz-adv-x="1644" 
d="M1593 905l-293 -905h-954l-293 905l770 561z" />
    <glyph glyph-name="uni2B20" unicode="&#x2b20;" horiz-adv-x="1644" 
d="M1593 905l-293 -905h-954l-293 905l770 561zM295 825l203 -618h649l203 618l-527 383z" />
    <glyph glyph-name="uni2B21" unicode="&#x2b21;" horiz-adv-x="1830" 
d="M1755 729l-418 -729h-843l-418 729l418 725h843zM616 1247l-297 -518l297 -522h601l296 522l-296 518h-601z" />
    <glyph glyph-name="uni2B22" unicode="&#x2b22;" horiz-adv-x="1830" 
d="M1755 729l-418 -729h-843l-418 729l418 725h843z" />
    <glyph glyph-name="uni2BC4" unicode="&#x2bc4;" horiz-adv-x="1660" 
d="M1556 1028v-604l-426 -424h-602l-426 424v604l426 426h602z" />
    <glyph glyph-name="u1F441" unicode="&#x1f441;" horiz-adv-x="2426" 
d="M59 727q176 343 483 547.5t670 204.5q364 0 671 -204.5t482 -547.5q-175 -343 -482 -547.5t-671 -204.5q-363 0 -670 204.5t-483 547.5zM299 727q156 -254 396.5 -399.5t516.5 -145.5q281 0 521 147.5t397 397.5q-160 255 -401 400t-517 145q-278 0 -518.5 -147
t-394.5 -398zM748 727q0 192 136 328.5t328 136.5q193 0 330 -136.5t137 -328.5t-137 -328.5t-330 -136.5q-192 0 -328 136.5t-136 328.5zM946 727q0 -110 78 -189t188 -79q112 0 190.5 78.5t78.5 189.5t-78.5 189.5t-190.5 78.5q-110 0 -188 -79t-78 -189z" />
    <glyph glyph-name="uni00A40301" horiz-adv-x="866" 
d="M696 1546h-219l203 248h330zM31 0v246h219q108 0 160.5 51.5t52.5 167.5v989h280v-1042q0 -209 -100.5 -310.5t-316.5 -101.5h-295z" />
    <glyph glyph-name="Iacute_J.loclNLD" horiz-adv-x="1372" 
d="M365 1546h-220l203 248h330zM1188 1792h328l-314 -246h-217zM412 1454v-1454h-281v1454h281zM539 0v246h219q108 0 159.5 51.5t51.5 167.5v989h280v-1042q0 -209 -100 -310.5t-315 -101.5h-295z" />
    <glyph glyph-name="AE.ss01" horiz-adv-x="2082" 
d="M1217 240h792v-240h-1077v399h-506l-135 -399h-287l526 1454h1469v-240h-782v-356h704v-219h-704v-399zM504 625h428v587h-227z" />
    <glyph glyph-name="AEacute.ss01" horiz-adv-x="2082" 
d="M1481 1794l-314 -248h-219l205 248h328zM1217 240h792v-240h-1077v399h-506l-135 -399h-287l526 1454h1469v-240h-782v-356h704v-219h-704v-399zM504 625h428v587h-227z" />
    <glyph glyph-name="G.ss01" horiz-adv-x="1499" 
d="M1413 272q-101 -140 -264 -218.5t-373 -78.5q-212 0 -374 95.5t-249 266t-87 390.5q0 165 50.5 304t141.5 238t224.5 154.5t293.5 55.5q129 0 240 -37t190 -102.5t132 -152t75 -188.5h-287q-34 107 -124.5 173.5t-223.5 66.5q-197 0 -310.5 -141.5t-113.5 -370.5
t113.5 -370.5t312.5 -141.5q113 0 206.5 37t152.5 104v219h-396v216h670v-519z" />
    <glyph glyph-name="Gbreve.ss01" horiz-adv-x="1499" 
d="M621 1794q10 -54 51.5 -84.5t103.5 -30.5t104 30.5t52 84.5h166q-10 -123 -102.5 -198.5t-219.5 -75.5q-125 0 -217.5 75.5t-101.5 198.5h164zM1413 272q-101 -140 -264 -218.5t-373 -78.5q-212 0 -374 95.5t-249 266t-87 390.5q0 165 50.5 304t141.5 238t224.5 154.5
t293.5 55.5q129 0 240 -37t190 -102.5t132 -152t75 -188.5h-287q-34 107 -124.5 173.5t-223.5 66.5q-197 0 -310.5 -141.5t-113.5 -370.5t113.5 -370.5t312.5 -141.5q113 0 206.5 37t152.5 104v219h-396v216h670v-519z" />
    <glyph glyph-name="uni0122.ss01" horiz-adv-x="1499" 
d="M1413 272q-101 -140 -264 -218.5t-373 -78.5q-212 0 -374 95.5t-249 266t-87 390.5q0 165 50.5 304t141.5 238t224.5 154.5t293.5 55.5q129 0 240 -37t190 -102.5t132 -152t75 -188.5h-287q-34 107 -124.5 173.5t-223.5 66.5q-197 0 -310.5 -141.5t-113.5 -370.5
t113.5 -370.5t312.5 -141.5q113 0 206.5 37t152.5 104v219h-396v216h670v-519zM657 -408q62 5 90 29t29 84h-119v203h240v-168q0 -127 -55 -184t-185 -66v102z" />
    <glyph glyph-name="Gdotaccent.ss01" horiz-adv-x="1499" 
d="M905 1780v-230h-258v230h258zM1413 272q-101 -140 -264 -218.5t-373 -78.5q-212 0 -374 95.5t-249 266t-87 390.5q0 165 50.5 304t141.5 238t224.5 154.5t293.5 55.5q129 0 240 -37t190 -102.5t132 -152t75 -188.5h-287q-34 107 -124.5 173.5t-223.5 66.5
q-197 0 -310.5 -141.5t-113.5 -370.5t113.5 -370.5t312.5 -141.5q113 0 206.5 37t152.5 104v219h-396v216h670v-519z" />
    <glyph glyph-name="OE.ss01" horiz-adv-x="2160" 
d="M1292 240h795v-240h-1313q-321 0 -514.5 198t-193.5 529t193.5 529t514.5 198h1303v-240h-785v-356h707v-219h-707v-399zM774 240h236v974h-236q-198 0 -309 -131t-111 -356t111 -356t309 -131z" />
    <glyph glyph-name="Q.ss01" horiz-adv-x="1550" 
d="M1501 -166h-291l-188 180q-119 -39 -248 -39q-160 0 -292.5 55.5t-223.5 154.5t-141.5 238t-50.5 304t50.5 304t141.5 238t223.5 154.5t292.5 55.5q213 0 375 -95.5t249 -266t87 -390.5q0 -198 -72 -357.5t-205 -258.5zM354 727q0 -229 112 -370.5t308 -141.5
q197 0 309.5 141.5t112.5 370.5t-112.5 370.5t-309.5 141.5q-196 0 -308 -141.5t-112 -370.5z" />
    <glyph glyph-name="R.ss01" horiz-adv-x="1366" 
d="M1346 0h-314l-401 584h-219v-584h-281v1454h639q231 0 367.5 -115t136.5 -321q0 -173 -94 -281t-262 -141zM412 1225v-418h297q137 0 208.5 52.5t71.5 156.5t-71.5 156.5t-208.5 52.5h-297z" />
    <glyph glyph-name="Racute.ss01" horiz-adv-x="1366" 
d="M1077 1794l-313 -248h-219l203 248h329zM1346 0h-314l-401 584h-219v-584h-281v1454h639q231 0 367.5 -115t136.5 -321q0 -173 -94 -281t-262 -141zM412 1225v-418h297q137 0 208.5 52.5t71.5 156.5t-71.5 156.5t-208.5 52.5h-297z" />
    <glyph glyph-name="Rcaron.ss01" horiz-adv-x="1366" 
d="M801 1546h-264l-256 248h258l131 -133l129 133h258zM1346 0h-314l-401 584h-219v-584h-281v1454h639q231 0 367.5 -115t136.5 -321q0 -173 -94 -281t-262 -141zM412 1225v-418h297q137 0 208.5 52.5t71.5 156.5t-71.5 156.5t-208.5 52.5h-297z" />
    <glyph glyph-name="uni0156.ss01" horiz-adv-x="1366" 
d="M918 596l428 -596h-314l-401 584h-219v-584h-281v1454h639q231 0 367.5 -115t136.5 -321q0 -173 -94 -281t-262 -141zM412 1225v-418h297q137 0 208.5 52.5t71.5 156.5t-71.5 156.5t-208.5 52.5h-297zM575 -295v203h240v-168q0 -127 -54.5 -184t-185.5 -66v102
q63 5 91 29.5t28 83.5h-119z" />
    <glyph glyph-name="IJ.ss02" horiz-adv-x="1593" 
d="M412 1454v-1454h-281v1454h281zM995 -25q-229 0 -353 114t-124 353v50h277v-50q0 -118 50 -172.5t148 -54.5q197 0 197 213v1026h280v-1053q0 -211 -124 -318.5t-351 -107.5z" />
    <glyph glyph-name="Iacute_J.loclNLD.ss02" horiz-adv-x="1593" 
d="M365 1546h-220l203 248h330zM1423 1546h-217l203 246h328zM412 1454v-1454h-281v1454h281zM995 -25q-229 0 -353 114t-124 353v50h277v-50q0 -118 50 -172.5t148 -54.5q197 0 197 213v1026h280v-1053q0 -211 -124 -318.5t-351 -107.5z" />
    <glyph glyph-name="J.ss02" horiz-adv-x="1105" 
d="M508 -25q-228 0 -352.5 114t-124.5 353v50h278v-50q0 -227 197 -227q199 0 199 213v1026h280v-1053q0 -212 -124.5 -319t-352.5 -107z" />
    <glyph glyph-name="uni00A40301.ss02" horiz-adv-x="1105" 
d="M938 1546h-219l203 248h329zM508 -25q-228 0 -352.5 114t-124.5 353v50h278v-50q0 -227 197 -227q199 0 199 213v1026h280v-1053q0 -212 -124.5 -319t-352.5 -107z" />
    <glyph glyph-name="Jcircumflex.ss02" horiz-adv-x="1105" 
d="M715 1794h258l260 -248h-258l-131 133l-131 -133h-256zM508 -25q-228 0 -352.5 114t-124.5 353v50h278v-50q0 -227 197 -227q199 0 199 213v1026h280v-1053q0 -212 -124.5 -319t-352.5 -107z" />
    <glyph glyph-name="Q.ss02" horiz-adv-x="1552" 
d="M1501 0h-198q-12 80 -43 154q-192 -179 -486 -179q-160 0 -292.5 55.5t-223.5 154.5t-141.5 238t-50.5 304t50.5 304t141.5 238t223.5 154.5t292.5 55.5q213 0 375 -95.5t249 -266t87 -390.5q0 -227 -96 -408q89 -137 112 -319zM774 215q197 0 311 143q-131 85 -311 99
v180q224 -17 395 -113q27 103 27 203q0 229 -112.5 370.5t-309.5 141.5q-196 0 -308 -141.5t-112 -370.5t112 -370.5t308 -141.5z" />
    <glyph glyph-name="R.ss02" horiz-adv-x="1353" 
d="M770 1454q230 0 367 -106.5t137 -292.5q0 -147 -84 -240t-234 -123q166 -16 229.5 -102.5t63.5 -251.5v-338h-280v319q0 146 -64.5 205.5t-214.5 59.5h-278v-584h-281v1454h639zM709 807q137 0 208.5 52.5t71.5 156.5t-71.5 156.5t-208.5 52.5h-297v-418h297z" />
    <glyph glyph-name="Racute.ss02" horiz-adv-x="1353" 
d="M764 1546h-219l203 248h329zM770 1454q230 0 367 -106.5t137 -292.5q0 -147 -84 -240t-234 -123q166 -16 229.5 -102.5t63.5 -251.5v-338h-280v319q0 146 -64.5 205.5t-214.5 59.5h-278v-584h-281v1454h639zM709 807q137 0 208.5 52.5t71.5 156.5t-71.5 156.5
t-208.5 52.5h-297v-418h297z" />
    <glyph glyph-name="Rcaron.ss02" horiz-adv-x="1353" 
d="M539 1794l131 -133l129 133h258l-256 -248h-264l-256 248h258zM770 1454q230 0 367 -106.5t137 -292.5q0 -147 -84 -240t-234 -123q166 -16 229.5 -102.5t63.5 -251.5v-338h-280v319q0 146 -64.5 205.5t-214.5 59.5h-278v-584h-281v1454h639zM709 807q137 0 208.5 52.5
t71.5 156.5t-71.5 156.5t-208.5 52.5h-297v-418h297z" />
    <glyph glyph-name="uni0156.ss02" horiz-adv-x="1353" 
d="M770 1454q230 0 367 -106.5t137 -292.5q0 -147 -84 -240t-234 -123q166 -16 229.5 -102.5t63.5 -251.5v-338h-280v319q0 146 -64.5 205.5t-214.5 59.5h-278v-584h-281v1454h639zM709 807q137 0 208.5 52.5t71.5 156.5t-71.5 156.5t-208.5 52.5h-297v-418h297zM571 -408
q62 5 90 29t29 84h-119v203h240v-168q0 -127 -55 -184t-185 -66v102z" />
    <glyph glyph-name="uni1E9E.ss02" horiz-adv-x="1382" 
d="M123 1055q0 192 103.5 295.5t295.5 103.5h678v-229h-125q-97 0 -157 -49.5t-60 -124.5q0 -37 12 -68t45.5 -67.5t69.5 -67t105 -84.5q53 -41 86.5 -70t68.5 -67.5t54 -74.5t31.5 -83t12.5 -102q0 -170 -111.5 -281t-309.5 -111q-199 0 -310 110t-131 296h242
q26 -182 184 -182q80 0 123 47.5t43 120.5q0 69 -48.5 125.5t-182.5 160.5q-118 94 -172 168.5t-54 163.5q0 84 46 144.5t122 95.5h-166q-217 0 -217 -213v-1012h-278v1055z" />
    <glyph glyph-name="K.ss03" horiz-adv-x="1351" 
d="M1382 0h-354l-616 631v-631h-281v1454h281v-459l155 -161l477 620h318l-617 -803z" />
    <glyph glyph-name="uni0136.ss03" horiz-adv-x="1351" 
d="M745 651l637 -651h-354l-616 631v-631h-281v1454h281v-459l155 -161l477 620h318zM571 -295v203h240v-168q0 -127 -54.5 -184t-185.5 -66v102q63 5 91 29.5t28 83.5h-119z" />
    <glyph glyph-name="S.ss03" horiz-adv-x="1261" 
d="M90 244h682q61 0 101 36.5t40 92.5q0 92 -94 135l-508 237q-121 57 -186.5 146t-65.5 207q0 157 116.5 256.5t287.5 99.5h702v-242h-682q-56 0 -93.5 -34t-37.5 -86q0 -86 86 -127l502 -232q136 -64 201 -154t65 -212q0 -164 -113.5 -265.5t-301.5 -101.5h-701v244z" />
    <glyph glyph-name="Sacute.ss03" horiz-adv-x="1261" 
d="M741 1546h-217l203 248h328zM90 244h682q61 0 101 36.5t40 92.5q0 92 -94 135l-508 237q-121 57 -186.5 146t-65.5 207q0 157 116.5 256.5t287.5 99.5h702v-242h-682q-56 0 -93.5 -34t-37.5 -86q0 -86 86 -127l502 -232q136 -64 201 -154t65 -212q0 -164 -113.5 -265.5
t-301.5 -101.5h-701v244z" />
    <glyph glyph-name="Scaron.ss03" horiz-adv-x="1261" 
d="M516 1794l131 -133l131 133h258l-258 -248h-262l-258 248h258zM90 244h682q61 0 101 36.5t40 92.5q0 92 -94 135l-508 237q-121 57 -186.5 146t-65.5 207q0 157 116.5 256.5t287.5 99.5h702v-242h-682q-56 0 -93.5 -34t-37.5 -86q0 -86 86 -127l502 -232
q136 -64 201 -154t65 -212q0 -164 -113.5 -265.5t-301.5 -101.5h-701v244z" />
    <glyph glyph-name="Scedilla.ss03" horiz-adv-x="1261" 
d="M791 0h-68l-115 -80q87 0 146 -34.5t59 -100.5q0 -81 -65 -119.5t-173 -38.5h-135v99h90q113 0 113 63q0 27 -24.5 41t-63.5 14h-74v72l103 84h-494v244h682q61 0 101 36.5t40 92.5q0 92 -94 135l-508 237q-121 57 -186.5 146t-65.5 207q0 157 116.5 256.5t287.5 99.5
h702v-242h-682q-56 0 -93.5 -34t-37.5 -86q0 -86 86 -127l502 -232q136 -64 201 -154t65 -212q0 -164 -113.5 -265.5t-301.5 -101.5z" />
    <glyph glyph-name="Scircumflex.ss03" horiz-adv-x="1261" 
d="M518 1794h260l258 -248h-258l-131 133l-131 -133h-256zM90 244h682q61 0 101 36.5t40 92.5q0 92 -94 135l-508 237q-121 57 -186.5 146t-65.5 207q0 157 116.5 256.5t287.5 99.5h702v-242h-682q-56 0 -93.5 -34t-37.5 -86q0 -86 86 -127l502 -232q136 -64 201 -154
t65 -212q0 -164 -113.5 -265.5t-301.5 -101.5h-701v244z" />
    <glyph glyph-name="uni0218.ss03" horiz-adv-x="1261" 
d="M90 244h682q61 0 101 36.5t40 92.5q0 92 -94 135l-508 237q-121 57 -186.5 146t-65.5 207q0 157 116.5 256.5t287.5 99.5h702v-242h-682q-56 0 -93.5 -34t-37.5 -86q0 -86 86 -127l502 -232q136 -64 201 -154t65 -212q0 -164 -113.5 -265.5t-301.5 -101.5h-701v244z
M487 -408q62 5 90 29t29 84h-119v203h240v-168q0 -127 -55 -184t-185 -66v102z" />
    <glyph glyph-name="R.ss04" horiz-adv-x="1388" 
d="M131 1454h639q230 0 367 -106.5t137 -292.5q0 -173 -116 -276t-316 -111q76 -18 125 -48t97.5 -90t113.5 -174l202 -356h-305l-203 356q-42 75 -67.5 111.5t-61 67t-77 40t-105.5 9.5h-149v-584h-281v1454zM709 807q137 0 208.5 52.5t71.5 156.5t-71.5 156.5t-208.5 52.5
h-297v-418h297z" />
    <glyph glyph-name="Racute.ss04" horiz-adv-x="1388" 
d="M762 1546h-217l203 248h327zM131 1454h639q230 0 367 -106.5t137 -292.5q0 -173 -116 -276t-316 -111q76 -18 125 -48t97.5 -90t113.5 -174l202 -356h-305l-203 356q-42 75 -67.5 111.5t-61 67t-77 40t-105.5 9.5h-149v-584h-281v1454zM709 807q137 0 208.5 52.5
t71.5 156.5t-71.5 156.5t-208.5 52.5h-297v-418h297z" />
    <glyph glyph-name="Rcaron.ss04" horiz-adv-x="1388" 
d="M537 1794l131 -133l131 133h258l-258 -248h-262l-258 248h258zM131 1454h639q230 0 367 -106.5t137 -292.5q0 -173 -116 -276t-316 -111q76 -18 125 -48t97.5 -90t113.5 -174l202 -356h-305l-203 356q-42 75 -67.5 111.5t-61 67t-77 40t-105.5 9.5h-149v-584h-281v1454z
M709 807q137 0 208.5 52.5t71.5 156.5t-71.5 156.5t-208.5 52.5h-297v-418h297z" />
    <glyph glyph-name="uni0156.ss04" horiz-adv-x="1388" 
d="M131 1454h639q230 0 367 -106.5t137 -292.5q0 -173 -116 -276t-316 -111q76 -18 125 -48t97.5 -90t113.5 -174l202 -356h-305l-203 356q-42 75 -67.5 111.5t-61 67t-77 40t-105.5 9.5h-149v-584h-281v1454zM709 807q137 0 208.5 52.5t71.5 156.5t-71.5 156.5t-208.5 52.5
h-297v-418h297zM575 -408q62 5 90 29t29 84h-119v203h240v-168q0 -127 -55 -184t-185 -66v102z" />
    <glyph glyph-name="eth" horiz-adv-x="1155" 
d="M766 1317q162 -151 247 -346.5t85 -401.5q0 -273 -139.5 -433.5t-380.5 -160.5q-238 0 -382.5 153t-144.5 392q0 242 128 393.5t333 151.5q105 0 180.5 -42.5t114.5 -107.5q-52 153 -213 304l-158 -89h-194l274 156q-135 101 -283 168h353q68 -42 102 -72l127 72h195z
M578 164q118 0 183.5 98t65.5 258q0 161 -66 259t-183 98q-119 0 -184.5 -98t-65.5 -259t65.5 -258.5t184.5 -97.5z" />
    <glyph glyph-name="i.loclTRK" horiz-adv-x="466" 
d="M362 1454v-242h-256v242h256zM104 1044h258v-1044h-258v1044z" />
    <glyph glyph-name="uni006A0301" horiz-adv-x="466" 
d="M324 1180h-211l198 274h320zM362 -33q0 -171 -69 -243t-242 -72h-123v186h78q60 0 79 24.5t19 94.5v1087h258v-1077z" />
    <glyph glyph-name="germandbls.calt" horiz-adv-x="1361" 
d="M897 868q195 -26 301.5 -138t106.5 -290q0 -216 -144 -328t-424 -112h-188v229h188q134 0 209.5 56t75.5 168t-75.5 167.5t-209.5 55.5h-116v201l288 348h-291q-217 0 -217 -213v-1012h-278v1055q0 192 103.5 295.5t295.5 103.5h672v-229z" />
    <glyph glyph-name="germandbls.case" horiz-adv-x="1361" 
d="M897 868q195 -26 301.5 -138t106.5 -290q0 -216 -144 -328t-424 -112h-188v229h188q134 0 209.5 56t75.5 168t-75.5 167.5t-209.5 55.5h-116v201l288 348h-291q-217 0 -217 -213v-1012h-278v1055q0 192 103.5 295.5t295.5 103.5h672v-229z" />
    <glyph glyph-name="iacute_j.loclNLD" horiz-adv-x="917" 
d="M324 1180h-211l198 274h320zM774 1180h-213l201 274h319zM104 1044h258v-1044h-258v1044zM813 -33q0 -171 -70 -243t-243 -72h-121v186h76q61 0 79.5 24.5t18.5 94.5v1087h260v-1077z" />
    <glyph glyph-name="a.ss01" horiz-adv-x="1085" 
d="M408 -25q-157 0 -259 86t-102 234q0 61 19.5 109.5t51 81.5t86 61t110 46.5t137.5 39.5l274 72v43q0 141 -186 141q-92 0 -146.5 -39.5t-60.5 -112.5h-256q20 145 141.5 236.5t327.5 91.5q213 0 328.5 -86.5t115.5 -249.5v-729h-246v178q-32 -90 -114.5 -146.5
t-220.5 -56.5zM494 156q110 0 174.5 80t64.5 200v123l-192 -57q-117 -35 -172.5 -76t-55.5 -117q0 -71 50.5 -112t130.5 -41z" />
    <glyph glyph-name="aacute.ss01" horiz-adv-x="1085" 
d="M635 1180h-213l201 274h319zM408 -25q-157 0 -259 86t-102 234q0 61 19.5 109.5t51 81.5t86 61t110 46.5t137.5 39.5l274 72v43q0 141 -186 141q-92 0 -146.5 -39.5t-60.5 -112.5h-256q20 145 141.5 236.5t327.5 91.5q213 0 328.5 -86.5t115.5 -249.5v-729h-246v178
q-32 -90 -114.5 -146.5t-220.5 -56.5zM494 156q110 0 174.5 80t64.5 200v123l-192 -57q-117 -35 -172.5 -76t-55.5 -117q0 -71 50.5 -112t130.5 -41z" />
    <glyph glyph-name="abreve.ss01" horiz-adv-x="1085" 
d="M389 1454q10 -55 52 -86t104 -31t103.5 31t51.5 86h166q-10 -128 -102.5 -206.5t-218.5 -78.5q-125 0 -218 79t-102 206h164zM408 -25q-157 0 -259 86t-102 234q0 61 19.5 109.5t51 81.5t86 61t110 46.5t137.5 39.5l274 72v43q0 141 -186 141q-92 0 -146.5 -39.5
t-60.5 -112.5h-256q20 145 141.5 236.5t327.5 91.5q213 0 328.5 -86.5t115.5 -249.5v-729h-246v178q-32 -90 -114.5 -146.5t-220.5 -56.5zM494 156q110 0 174.5 80t64.5 200v123l-192 -57q-117 -35 -172.5 -76t-55.5 -117q0 -71 50.5 -112t130.5 -41z" />
    <glyph glyph-name="acircumflex.ss01" horiz-adv-x="1085" 
d="M418 1454h254l250 -274h-250l-127 147l-127 -147h-248zM408 -25q-157 0 -259 86t-102 234q0 61 19.5 109.5t51 81.5t86 61t110 46.5t137.5 39.5l274 72v43q0 141 -186 141q-92 0 -146.5 -39.5t-60.5 -112.5h-256q20 145 141.5 236.5t327.5 91.5q213 0 328.5 -86.5
t115.5 -249.5v-729h-246v178q-32 -90 -114.5 -146.5t-220.5 -56.5zM494 156q110 0 174.5 80t64.5 200v123l-192 -57q-117 -35 -172.5 -76t-55.5 -117q0 -71 50.5 -112t130.5 -41z" />
    <glyph glyph-name="adieresis.ss01" horiz-adv-x="1085" 
d="M461 1454v-242h-258v242h258zM887 1454v-242h-258v242h258zM408 -25q-157 0 -259 86t-102 234q0 61 19.5 109.5t51 81.5t86 61t110 46.5t137.5 39.5l274 72v43q0 141 -186 141q-92 0 -146.5 -39.5t-60.5 -112.5h-256q20 145 141.5 236.5t327.5 91.5q213 0 328.5 -86.5
t115.5 -249.5v-729h-246v178q-32 -90 -114.5 -146.5t-220.5 -56.5zM494 156q110 0 174.5 80t64.5 200v123l-192 -57q-117 -35 -172.5 -76t-55.5 -117q0 -71 50.5 -112t130.5 -41z" />
    <glyph glyph-name="agrave.ss01" horiz-adv-x="1085" 
d="M467 1454l199 -274h-211l-308 274h320zM408 -25q-157 0 -259 86t-102 234q0 61 19.5 109.5t51 81.5t86 61t110 46.5t137.5 39.5l274 72v43q0 141 -186 141q-92 0 -146.5 -39.5t-60.5 -112.5h-256q20 145 141.5 236.5t327.5 91.5q213 0 328.5 -86.5t115.5 -249.5v-729
h-246v178q-32 -90 -114.5 -146.5t-220.5 -56.5zM494 156q110 0 174.5 80t64.5 200v123l-192 -57q-117 -35 -172.5 -76t-55.5 -117q0 -71 50.5 -112t130.5 -41z" />
    <glyph glyph-name="amacron.ss01" horiz-adv-x="1085" 
d="M862 1415v-180h-633v180h633zM408 -25q-157 0 -259 86t-102 234q0 61 19.5 109.5t51 81.5t86 61t110 46.5t137.5 39.5l274 72v43q0 141 -186 141q-92 0 -146.5 -39.5t-60.5 -112.5h-256q20 145 141.5 236.5t327.5 91.5q213 0 328.5 -86.5t115.5 -249.5v-729h-246v178
q-32 -90 -114.5 -146.5t-220.5 -56.5zM494 156q110 0 174.5 80t64.5 200v123l-192 -57q-117 -35 -172.5 -76t-55.5 -117q0 -71 50.5 -112t130.5 -41z" />
    <glyph glyph-name="aogonek.ss01" horiz-adv-x="1085" 
d="M989 0q-75 -39 -112 -73t-37 -70q0 -64 106 -64h43v-141h-121q-109 0 -171 39t-62 112q0 115 158 191l-50 -2v186q-32 -90 -114.5 -146.5t-220.5 -56.5q-157 0 -259 86t-102 234q0 61 19.5 109.5t51 81.5t86 61t110 46.5t137.5 39.5l274 72v43q0 141 -186 141
q-92 0 -146.5 -39.5t-60.5 -112.5h-254q20 145 141 236.5t326 91.5q213 0 328.5 -86.5t115.5 -249.5v-729zM733 436v123l-192 -57q-117 -34 -172.5 -75.5t-55.5 -115.5q0 -73 50.5 -114t130.5 -41q110 0 174.5 80t64.5 200z" />
    <glyph glyph-name="aring.ss01" horiz-adv-x="1085" 
d="M547 1153q-93 0 -157 58.5t-64 152.5q0 92 64 150.5t157 58.5q89 0 154 -59t65 -150q0 -94 -64.5 -152.5t-154.5 -58.5zM547 1260q43 0 70.5 29.5t27.5 74.5t-27.5 74.5t-70.5 29.5q-44 0 -72.5 -29.5t-28.5 -74.5t28.5 -74.5t72.5 -29.5zM408 -25q-157 0 -259 86
t-102 234q0 61 19.5 109.5t51 81.5t86 61t110 46.5t137.5 39.5l274 72v43q0 141 -186 141q-92 0 -146.5 -39.5t-60.5 -112.5h-256q20 145 141.5 236.5t327.5 91.5q213 0 328.5 -86.5t115.5 -249.5v-729h-246v178q-32 -90 -114.5 -146.5t-220.5 -56.5zM494 156
q110 0 174.5 80t64.5 200v123l-192 -57q-117 -35 -172.5 -76t-55.5 -117q0 -71 50.5 -112t130.5 -41z" />
    <glyph glyph-name="atilde.ss01" horiz-adv-x="1085" 
d="M336 1196q13 90 78 90q32 0 78.5 -22.5t100 -45t103.5 -22.5q181 0 213 258h-153q-16 -90 -78 -90q-32 0 -79.5 22.5t-101.5 45t-104 22.5q-181 0 -213 -258h156zM408 -25q-157 0 -259 86t-102 234q0 61 19.5 109.5t51 81.5t86 61t110 46.5t137.5 39.5l274 72v43
q0 141 -186 141q-92 0 -146.5 -39.5t-60.5 -112.5h-256q20 145 141.5 236.5t327.5 91.5q213 0 328.5 -86.5t115.5 -249.5v-729h-246v178q-32 -90 -114.5 -146.5t-220.5 -56.5zM494 156q110 0 174.5 80t64.5 200v123l-192 -57q-117 -35 -172.5 -76t-55.5 -117
q0 -71 50.5 -112t130.5 -41z" />
    <glyph glyph-name="ae.ss01" horiz-adv-x="1824" 
d="M416 -25q-162 0 -265.5 85.5t-103.5 234.5q0 61 19.5 109.5t51 81.5t86 61t110 46.5t137.5 39.5l274 72v43q0 141 -186 141q-92 0 -146.5 -39.5t-60.5 -112.5h-256q20 145 142 236.5t329 91.5q125 0 216.5 -38t135.5 -107q64 68 157 106.5t201 38.5q162 0 283 -78
t182 -214.5t54 -307.5h-781q6 -143 78 -224t193 -81q170 0 233 172h258q-45 -160 -173 -258.5t-320 -98.5q-158 0 -274 67.5t-169 186.5q-46 -113 -149 -183.5t-256 -70.5zM1516 627q-19 119 -85 187.5t-171 68.5t-172.5 -68.5t-86.5 -187.5h515zM494 156q110 0 174.5 80
t64.5 200v123l-192 -57q-117 -35 -172.5 -76t-55.5 -117q0 -71 50.5 -112t130.5 -41z" />
    <glyph glyph-name="aeacute.ss01" horiz-adv-x="1824" 
d="M989 1180h-211l199 274h319zM416 -25q-162 0 -265.5 85.5t-103.5 234.5q0 61 19.5 109.5t51 81.5t86 61t110 46.5t137.5 39.5l274 72v43q0 141 -186 141q-92 0 -146.5 -39.5t-60.5 -112.5h-256q20 145 142 236.5t329 91.5q125 0 216.5 -38t135.5 -107q64 68 157 106.5
t201 38.5q162 0 283 -78t182 -214.5t54 -307.5h-781q6 -143 78 -224t193 -81q170 0 233 172h258q-45 -160 -173 -258.5t-320 -98.5q-158 0 -274 67.5t-169 186.5q-46 -113 -149 -183.5t-256 -70.5zM1516 627q-19 119 -85 187.5t-171 68.5t-172.5 -68.5t-86.5 -187.5h515z
M494 156q110 0 174.5 80t64.5 200v123l-192 -57q-117 -35 -172.5 -76t-55.5 -117q0 -71 50.5 -112t130.5 -41z" />
    <glyph glyph-name="iacute_j.loclNLD.ss01" horiz-adv-x="909" 
d="M324 1180h-211l198 274h320zM766 1180h-211l199 274h319zM104 1044h258v-1044h-258v1044zM547 1044h258v-1392h-258v1392z" />
    <glyph glyph-name="ij.ss01" horiz-adv-x="909" 
d="M104 1454h258v-246h-258v246zM547 1454h258v-246h-258v246zM104 1044h258v-1044h-258v1044zM547 1044h258v-1392h-258v1392z" />
    <glyph glyph-name="j.ss01" horiz-adv-x="466" 
d="M104 1454h258v-246h-258v246zM104 1044h258v-1392h-258v1392z" />
    <glyph glyph-name="uni0237.ss01" horiz-adv-x="466" 
d="M104 1044h258v-1392h-258v1392z" />
    <glyph glyph-name="uni006A0301.ss01" horiz-adv-x="466" 
d="M324 1180h-211l198 274h320zM104 1044h258v-1392h-258v1392z" />
    <glyph glyph-name="jcircumflex.ss01" horiz-adv-x="466" 
d="M109 1454h251l250 -274h-250l-127 147l-127 -147h-247zM104 1044h258v-1392h-258v1392z" />
    <glyph glyph-name="y.ss01" horiz-adv-x="1048" 
d="M270 1044l256 -776l258 776h260l-512 -1392h-270l137 348l-399 1044h270z" />
    <glyph glyph-name="yacute.ss01" horiz-adv-x="1048" 
d="M614 1180h-211l199 274h322zM270 1044l256 -776l258 776h260l-512 -1392h-270l137 348l-399 1044h270z" />
    <glyph glyph-name="ycircumflex.ss01" horiz-adv-x="1048" 
d="M399 1454h252l250 -274h-250l-125 147l-129 -147h-247zM270 1044l256 -776l258 776h260l-512 -1392h-270l137 348l-399 1044h270z" />
    <glyph glyph-name="ydieresis.ss01" horiz-adv-x="1048" 
d="M440 1454v-242h-256v242h256zM866 1454v-242h-256v242h256zM270 1044l256 -776l258 776h260l-512 -1392h-270l137 348l-399 1044h270z" />
    <glyph glyph-name="ygrave.ss01" horiz-adv-x="1048" 
d="M446 1454l201 -274h-213l-307 274h319zM270 1044l256 -776l258 776h260l-512 -1392h-270l137 348l-399 1044h270z" />
    <glyph glyph-name="germandbls.calt.ss02" horiz-adv-x="1382" 
d="M123 1055q0 192 103.5 295.5t295.5 103.5h678v-229h-125q-97 0 -157 -49.5t-60 -124.5q0 -37 12 -68t45.5 -67.5t69.5 -67t105 -84.5q53 -41 86.5 -70t68.5 -67.5t54 -74.5t31.5 -83t12.5 -102q0 -170 -111.5 -281t-309.5 -111q-199 0 -310 110t-131 296h242
q26 -182 184 -182q80 0 123 47.5t43 120.5q0 69 -48.5 125.5t-182.5 160.5q-118 94 -172 168.5t-54 163.5q0 84 46 144.5t122 95.5h-166q-217 0 -217 -213v-1012h-278v1055z" />
    <glyph glyph-name="germandbls.case.ss02" horiz-adv-x="1382" 
d="M123 1055q0 192 103.5 295.5t295.5 103.5h678v-229h-125q-97 0 -157 -49.5t-60 -124.5q0 -37 12 -68t45.5 -67.5t69.5 -67t105 -84.5q53 -41 86.5 -70t68.5 -67.5t54 -74.5t31.5 -83t12.5 -102q0 -170 -111.5 -281t-309.5 -111q-199 0 -310 110t-131 296h242
q26 -182 184 -182q80 0 123 47.5t43 120.5q0 69 -48.5 125.5t-182.5 160.5q-118 94 -172 168.5t-54 163.5q0 84 46 144.5t122 95.5h-166q-217 0 -217 -213v-1012h-278v1055z" />
    <glyph glyph-name="germandbls.ss02" horiz-adv-x="1193" 
d="M104 1061q0 198 129.5 308t358.5 110q219 0 349 -102t130 -261q0 -116 -70.5 -187t-179.5 -91q144 -32 234 -132t90 -255q0 -220 -145 -335.5t-422 -115.5h-82v203h45q342 0 342 258q0 130 -86 194t-232 64h-30v184h30q115 0 182.5 51t67.5 144q0 85 -59 136.5t-162 51.5
q-111 0 -171.5 -56t-60.5 -155v-1075h-258v1061z" />
    <glyph glyph-name="k.ss03" horiz-adv-x="1073" 
d="M1112 0h-330l-420 424v-424h-258v1454h258v-698l121 -121l289 409h293l-418 -575z" />
    <glyph glyph-name="uni0137.ss03" horiz-adv-x="1073" 
d="M647 469l465 -469h-330l-420 424v-424h-258v1454h258v-698l121 -121l289 409h293zM442 -295v203h240v-172q0 -121 -55 -177.5t-185 -66.5v100q65 8 92.5 32t28.5 81h-121z" />
    <glyph glyph-name="kgreenlandic.ss03" horiz-adv-x="1073" 
d="M1112 0h-330l-420 424v-424h-258v1044h258v-288l121 -121l289 409h293l-418 -575z" />
    <glyph glyph-name="s.ss03" horiz-adv-x="985" 
d="M76 193h510q42 0 66 19.5t24 55.5q0 32 -21 56t-71 47l-330 153q-99 46 -153 110t-54 163q0 118 85.5 182.5t217.5 64.5h545v-190h-496q-38 0 -61 -19t-23 -53q0 -29 17 -48.5t63 -41.5l336 -155q103 -48 159 -114t56 -163q0 -129 -85 -194.5t-230 -65.5h-555v193z" />
    <glyph glyph-name="sacute.ss03" horiz-adv-x="985" 
d="M588 1180h-213l200 274h320zM76 193h510q42 0 66 19.5t24 55.5q0 32 -21 56t-71 47l-330 153q-99 46 -153 110t-54 163q0 118 85.5 182.5t217.5 64.5h545v-190h-496q-38 0 -61 -19t-23 -53q0 -29 17 -48.5t63 -41.5l336 -155q103 -48 159 -114t56 -163q0 -129 -85 -194.5
t-230 -65.5h-555v193z" />
    <glyph glyph-name="scaron.ss03" horiz-adv-x="985" 
d="M358 1454l140 -151l137 151h250l-258 -274h-260l-258 274h249zM76 193h510q42 0 66 19.5t24 55.5q0 32 -21 56t-71 47l-330 153q-99 46 -153 110t-54 163q0 118 85.5 182.5t217.5 64.5h545v-190h-496q-38 0 -61 -19t-23 -53q0 -29 17 -48.5t63 -41.5l336 -155
q103 -48 159 -114t56 -163q0 -129 -85 -194.5t-230 -65.5h-555v193z" />
    <glyph glyph-name="scedilla.ss03" horiz-adv-x="985" 
d="M631 0h-23l-114 -80q86 0 145 -34.5t59 -100.5q0 -81 -65 -119.5t-174 -38.5h-133v99h88q112 0 112 63q0 27 -24.5 41t-63.5 14h-71v72l102 84h-393v193h510q42 0 66 19.5t24 55.5q0 32 -21 56t-71 47l-330 153q-99 46 -153 110t-54 163q0 118 85.5 182.5t217.5 64.5h545
v-190h-496q-38 0 -61 -19t-23 -53q0 -29 17 -48.5t63 -41.5l336 -155q103 -48 159 -114t56 -163q0 -129 -85 -194.5t-230 -65.5z" />
    <glyph glyph-name="scircumflex.ss03" horiz-adv-x="985" 
d="M371 1454h254l247 -274h-247l-127 147l-127 -147h-250zM76 193h510q42 0 66 19.5t24 55.5q0 32 -21 56t-71 47l-330 153q-99 46 -153 110t-54 163q0 118 85.5 182.5t217.5 64.5h545v-190h-496q-38 0 -61 -19t-23 -53q0 -29 17 -48.5t63 -41.5l336 -155q103 -48 159 -114
t56 -163q0 -129 -85 -194.5t-230 -65.5h-555v193z" />
    <glyph glyph-name="uni0219.ss03" horiz-adv-x="985" 
d="M731 537q103 -48 159 -114t56 -163q0 -129 -85 -194.5t-230 -65.5h-555v193h510q42 0 66 19.5t24 55.5q0 32 -21 56t-71 47l-330 153q-99 46 -153 110t-54 163q0 118 85.5 182.5t217.5 64.5h545v-190h-496q-38 0 -61 -19t-23 -53q0 -29 17 -48.5t63 -41.5zM379 -295v203
h237v-172q0 -121 -54.5 -177.5t-182.5 -66.5v100q64 8 91 32t28 81h-119z" />
    <glyph glyph-name="iacute_j.loclNLD.ss04" horiz-adv-x="909" 
d="M324 1180h-211l198 274h320zM766 1180h-211l199 274h319zM104 1044h258v-1044h-258v1044zM547 1044h258v-1259l-258 -172v1431z" />
    <glyph glyph-name="ij.ss04" horiz-adv-x="909" 
d="M104 1454h258v-246h-258v246zM547 1454h258v-246h-258v246zM104 1044h258v-1044h-258v1044zM547 1044h258v-1259l-258 -172v1431z" />
    <glyph glyph-name="j.ss04" horiz-adv-x="466" 
d="M104 1454h258v-246h-258v246zM104 1044h258v-1259l-258 -172v1431z" />
    <glyph glyph-name="uni0237.ss04" horiz-adv-x="466" 
d="M104 1044h258v-1259l-258 -172v1431z" />
    <glyph glyph-name="uni006A0301.ss04" horiz-adv-x="466" 
d="M324 1180h-211l198 274h320zM104 1044h258v-1259l-258 -172v1431z" />
    <glyph glyph-name="jcircumflex.ss04" horiz-adv-x="466" 
d="M109 1454h251l250 -274h-250l-127 147l-127 -147h-247zM104 1044h258v-1259l-258 -172v1431z" />
    <glyph glyph-name="t.ss04" horiz-adv-x="706" 
d="M662 866h-230v-565q0 -68 22 -91.5t85 -23.5h123v-186h-207q-156 0 -218.5 67t-62.5 216v583h-156v178h156v199l258 180v-379h230v-178z" />
    <glyph glyph-name="tbar.ss04" horiz-adv-x="718" 
d="M461 0q-154 0 -216.5 67t-62.5 216v307h-155v147h155v129h-155v178h155v199l258 180v-379h230v-178h-230v-129h230v-147h-230v-289q0 -68 21.5 -91.5t85.5 -23.5h123v-186h-209z" />
    <glyph glyph-name="tcaron.ss04" horiz-adv-x="706" 
d="M528 1454h222v-131q0 -115 -53 -162t-169 -53v94q59 5 86 21t27 59h-113v172zM432 1423v-379h230v-178h-230v-565q0 -68 22 -91.5t85 -23.5h123v-186h-207q-156 0 -218.5 67t-62.5 216v583h-156v178h156v199z" />
    <glyph glyph-name="uni0163.ss04" horiz-adv-x="706" 
d="M662 866h-230v-565q0 -68 22 -91.5t85 -23.5h123v-186h-183l-114 -80q86 0 145 -34.5t59 -100.5q0 -81 -65 -119.5t-174 -38.5h-133v99h88q112 0 112 63q0 27 -24.5 41t-63.5 14h-71v72l112 94q-95 20 -135.5 86t-40.5 187v583h-156v178h156v199l258 180v-379h230v-178z
" />
    <glyph glyph-name="uni021B.ss04" horiz-adv-x="706" 
d="M662 866h-230v-565q0 -68 22 -91.5t85 -23.5h123v-186h-207q-156 0 -218.5 67t-62.5 216v583h-156v178h156v199l258 180v-379h230v-178zM250 -295v203h237v-172q0 -121 -54.5 -177.5t-182.5 -66.5v100q64 8 91.5 32t27.5 81h-119z" />
    <glyph glyph-name="g.ss05" horiz-adv-x="1093" 
d="M674 240q186 0 289.5 -74.5t103.5 -206.5q0 -159 -133.5 -245.5t-396.5 -86.5q-253 0 -382.5 70t-129.5 190q0 119 147 189q-106 56 -106 166q0 122 151 198q-121 97 -121 262t126 264t315 99q123 0 225 -45q60 147 242 147h59v-166h-35q-111 0 -139 -69q88 -94 88 -230
q0 -167 -125 -264.5t-315 -97.5q-122 0 -213 39q-33 -26 -33 -62q0 -39 32.5 -58t110.5 -19h240zM537 897q-89 0 -136 -54t-47 -141q0 -89 47 -142.5t136 -53.5t135.5 53t46.5 143q0 87 -46.5 141t-135.5 54zM535 -209q292 0 292 137q0 105 -182 105h-272q-24 0 -74 4
q-63 -40 -63 -105q0 -141 299 -141z" />
    <glyph glyph-name="gbreve.ss05" horiz-adv-x="1093" 
d="M537 1169q-125 0 -218 79t-102 206h164q10 -55 52 -86t104 -31t103.5 31t51.5 86h166q-10 -128 -102.5 -206.5t-218.5 -78.5zM674 240q186 0 289.5 -74.5t103.5 -206.5q0 -159 -133.5 -245.5t-396.5 -86.5q-253 0 -382.5 70t-129.5 190q0 119 147 189q-106 56 -106 166
q0 122 151 198q-121 97 -121 262t126 264t315 99q123 0 225 -45q60 147 242 147h59v-166h-35q-111 0 -139 -69q88 -94 88 -230q0 -167 -125 -264.5t-315 -97.5q-122 0 -213 39q-33 -26 -33 -62q0 -39 32.5 -58t110.5 -19h240zM537 897q-89 0 -136 -54t-47 -141
q0 -89 47 -142.5t136 -53.5t135.5 53t46.5 143q0 87 -46.5 141t-135.5 54zM535 -209q292 0 292 137q0 105 -182 105h-272q-24 0 -74 4q-63 -40 -63 -105q0 -141 299 -141z" />
    <glyph glyph-name="uni0123.ss05" horiz-adv-x="1093" 
d="M655 1393v-203h-237v172q0 119 54.5 175.5t182.5 68.5v-103q-63 -6 -90 -29.5t-28 -80.5h118zM674 240q186 0 289.5 -74.5t103.5 -206.5q0 -159 -133.5 -245.5t-396.5 -86.5q-253 0 -382.5 70t-129.5 190q0 119 147 189q-106 56 -106 166q0 122 151 198q-121 97 -121 262
t126 264t315 99q123 0 225 -45q60 147 242 147h59v-166h-35q-111 0 -139 -69q88 -94 88 -230q0 -167 -125 -264.5t-315 -97.5q-122 0 -213 39q-33 -26 -33 -62q0 -39 32.5 -58t110.5 -19h240zM537 897q-89 0 -136 -54t-47 -141q0 -89 47 -142.5t136 -53.5t135.5 53t46.5 143
q0 87 -46.5 141t-135.5 54zM535 -209q292 0 292 137q0 105 -182 105h-272q-24 0 -74 4q-63 -40 -63 -105q0 -141 299 -141z" />
    <glyph glyph-name="gdotaccent.ss05" horiz-adv-x="1093" 
d="M666 1454v-242h-258v242h258zM674 240q186 0 289.5 -74.5t103.5 -206.5q0 -159 -133.5 -245.5t-396.5 -86.5q-253 0 -382.5 70t-129.5 190q0 119 147 189q-106 56 -106 166q0 122 151 198q-121 97 -121 262t126 264t315 99q123 0 225 -45q60 147 242 147h59v-166h-35
q-111 0 -139 -69q88 -94 88 -230q0 -167 -125 -264.5t-315 -97.5q-122 0 -213 39q-33 -26 -33 -62q0 -39 32.5 -58t110.5 -19h240zM537 897q-89 0 -136 -54t-47 -141q0 -89 47 -142.5t136 -53.5t135.5 53t46.5 143q0 87 -46.5 141t-135.5 54zM535 -209q292 0 292 137
q0 105 -182 105h-272q-24 0 -74 4q-63 -40 -63 -105q0 -141 299 -141z" />
    <glyph glyph-name="a.ss06" horiz-adv-x="1177" 
d="M494 -25q-198 0 -319.5 152.5t-121.5 392.5q0 157 54.5 280.5t155 194t231.5 70.5q110 0 192 -49t129 -137v165h258v-1044h-258v162q-47 -87 -129.5 -137t-191.5 -50zM575 168q116 0 181 96.5t65 255.5q0 160 -65 256t-181 96t-180.5 -96t-64.5 -256q0 -159 64.5 -255.5
t180.5 -96.5z" />
    <glyph glyph-name="aacute.ss06" horiz-adv-x="1177" 
d="M672 1180h-213l200 274h320zM494 -25q-198 0 -319.5 152.5t-121.5 392.5q0 157 54.5 280.5t155 194t231.5 70.5q110 0 192 -49t129 -137v165h258v-1044h-258v162q-47 -87 -129.5 -137t-191.5 -50zM575 168q116 0 181 96.5t65 255.5q0 160 -65 256t-181 96t-180.5 -96
t-64.5 -256q0 -159 64.5 -255.5t180.5 -96.5z" />
    <glyph glyph-name="abreve.ss06" horiz-adv-x="1177" 
d="M426 1454q10 -55 52 -86t104 -31t103.5 31t51.5 86h166q-10 -127 -103 -206t-218 -79t-218.5 79t-103.5 206h166zM494 -25q-198 0 -319.5 152.5t-121.5 392.5q0 157 54.5 280.5t155 194t231.5 70.5q110 0 192 -49t129 -137v165h258v-1044h-258v162q-47 -87 -129.5 -137
t-191.5 -50zM575 168q116 0 181 96.5t65 255.5q0 160 -65 256t-181 96t-180.5 -96t-64.5 -256q0 -159 64.5 -255.5t180.5 -96.5z" />
    <glyph glyph-name="acircumflex.ss06" horiz-adv-x="1177" 
d="M455 1454h254l247 -274h-247l-127 147l-127 -147h-248zM494 -25q-198 0 -319.5 152.5t-121.5 392.5q0 157 54.5 280.5t155 194t231.5 70.5q110 0 192 -49t129 -137v165h258v-1044h-258v162q-47 -87 -129.5 -137t-191.5 -50zM575 168q116 0 181 96.5t65 255.5
q0 160 -65 256t-181 96t-180.5 -96t-64.5 -256q0 -159 64.5 -255.5t180.5 -96.5z" />
    <glyph glyph-name="adieresis.ss06" horiz-adv-x="1177" 
d="M498 1454v-242h-258v242h258zM924 1454v-242h-258v242h258zM494 -25q-198 0 -319.5 152.5t-121.5 392.5q0 157 54.5 280.5t155 194t231.5 70.5q110 0 192 -49t129 -137v165h258v-1044h-258v162q-47 -87 -129.5 -137t-191.5 -50zM575 168q116 0 181 96.5t65 255.5
q0 160 -65 256t-181 96t-180.5 -96t-64.5 -256q0 -159 64.5 -255.5t180.5 -96.5z" />
    <glyph glyph-name="agrave.ss06" horiz-adv-x="1177" 
d="M504 1454l198 -274h-210l-308 274h320zM494 -25q-198 0 -319.5 152.5t-121.5 392.5q0 157 54.5 280.5t155 194t231.5 70.5q110 0 192 -49t129 -137v165h258v-1044h-258v162q-47 -87 -129.5 -137t-191.5 -50zM575 168q116 0 181 96.5t65 255.5q0 160 -65 256t-181 96
t-180.5 -96t-64.5 -256q0 -159 64.5 -255.5t180.5 -96.5z" />
    <glyph glyph-name="amacron.ss06" horiz-adv-x="1177" 
d="M897 1415v-180h-631v180h631zM494 -25q-198 0 -319.5 152.5t-121.5 392.5q0 157 54.5 280.5t155 194t231.5 70.5q110 0 192 -49t129 -137v165h258v-1044h-258v162q-47 -87 -129.5 -137t-191.5 -50zM575 168q116 0 181 96.5t65 255.5q0 160 -65 256t-181 96t-180.5 -96
t-64.5 -256q0 -159 64.5 -255.5t180.5 -96.5z" />
    <glyph glyph-name="aogonek.ss06" horiz-adv-x="1177" 
d="M1073 0q-75 -39 -112 -73t-37 -70q0 -64 106 -64h43v-141h-119q-110 0 -172.5 39t-62.5 112q0 113 147 187l-51 -2v174q-47 -87 -129.5 -137t-191.5 -50q-198 0 -319.5 152.5t-121.5 392.5q0 157 54.5 280.5t155 194t231.5 70.5q110 0 192 -49t129 -137v165h258v-1044z
M575 168q116 0 181 96t65 256t-65 256t-181 96t-180.5 -96t-64.5 -256q0 -159 64.5 -255.5t180.5 -96.5z" />
    <glyph glyph-name="aring.ss06" horiz-adv-x="1177" 
d="M584 1153q-94 0 -159 58.5t-65 152.5q0 92 65.5 150.5t158.5 58.5q89 0 154 -59t65 -150q0 -94 -64.5 -152.5t-154.5 -58.5zM584 1260q43 0 70.5 29.5t27.5 74.5t-27.5 74.5t-70.5 29.5q-44 0 -73.5 -30t-29.5 -74t29.5 -74t73.5 -30zM494 -25q-198 0 -319.5 152.5
t-121.5 392.5q0 157 54.5 280.5t155 194t231.5 70.5q110 0 192 -49t129 -137v165h258v-1044h-258v162q-47 -87 -129.5 -137t-191.5 -50zM575 168q116 0 181 96.5t65 255.5q0 160 -65 256t-181 96t-180.5 -96t-64.5 -256q0 -159 64.5 -255.5t180.5 -96.5z" />
    <glyph glyph-name="atilde.ss06" horiz-adv-x="1177" 
d="M371 1196q16 90 80 90q31 0 77.5 -22.5t100.5 -45t104 -22.5q181 0 213 258h-153q-16 -90 -80 -90q-31 0 -78 22.5t-101 45t-104 22.5q-181 0 -213 -258h154zM494 -25q-198 0 -319.5 152.5t-121.5 392.5q0 157 54.5 280.5t155 194t231.5 70.5q110 0 192 -49t129 -137v165
h258v-1044h-258v162q-47 -87 -129.5 -137t-191.5 -50zM575 168q116 0 181 96.5t65 255.5q0 160 -65 256t-181 96t-180.5 -96t-64.5 -256q0 -159 64.5 -255.5t180.5 -96.5z" />
    <glyph glyph-name="ae.ss06" horiz-adv-x="1908" 
d="M53 522q0 237 122 390t319 153q110 0 192 -49t129 -137v165h189v-165q51 87 144.5 136.5t207.5 49.5q155 0 272.5 -78t177.5 -214.5t54 -307.5h-781q6 -143 77.5 -224t193.5 -81q170 0 233 172h258q-45 -159 -170.5 -258t-308.5 -99q-117 0 -214.5 51t-143.5 136v-162
h-189v162q-47 -87 -129.5 -137t-191.5 -50q-198 0 -319.5 153t-121.5 394zM1599 627q-21 119 -86.5 187.5t-169.5 68.5q-106 0 -172.5 -68t-85.5 -188h514zM330 522q0 -160 64.5 -257t180.5 -97t181 97t65 257q0 159 -65 254.5t-181 95.5t-180.5 -95.5t-64.5 -254.5z" />
    <glyph glyph-name="aeacute.ss06" horiz-adv-x="1908" 
d="M1022 1180h-211l199 274h319zM53 522q0 237 122 390t319 153q110 0 192 -49t129 -137v165h189v-165q51 87 144.5 136.5t207.5 49.5q155 0 272.5 -78t177.5 -214.5t54 -307.5h-781q6 -143 77.5 -224t193.5 -81q170 0 233 172h258q-45 -159 -170.5 -258t-308.5 -99
q-117 0 -214.5 51t-143.5 136v-162h-189v162q-47 -87 -129.5 -137t-191.5 -50q-198 0 -319.5 153t-121.5 394zM1599 627q-21 119 -86.5 187.5t-169.5 68.5q-106 0 -172.5 -68t-85.5 -188h514zM330 522q0 -160 64.5 -257t180.5 -97t181 97t65 257q0 159 -65 254.5t-181 95.5
t-180.5 -95.5t-64.5 -254.5z" />
    <glyph glyph-name="Iacute_J" horiz-adv-x="1372" 
d="M365 1546h-220l203 248h330zM412 1454v-1454h-281v1454h281zM539 0v246h219q108 0 159.5 51.5t51.5 167.5v989h280v-1042q0 -209 -100 -310.5t-315 -101.5h-295z" />
    <glyph glyph-name="uni00CD_uni00A40301" horiz-adv-x="1372" 
d="M365 1546h-220l203 248h330zM1202 1546h-217l203 248h328zM412 1454v-1454h-281v1454h281zM539 0v246h219q108 0 159.5 51.5t51.5 167.5v989h280v-1042q0 -209 -100 -310.5t-315 -101.5h-295z" />
    <glyph glyph-name="L_A" horiz-adv-x="2230" 
d="M1929 0l-110 338h-568l-110 -338h-1014v1454h281v-1208h530l436 1208h328l524 -1454h-297zM1325 561h420l-209 643z" />
    <glyph glyph-name="O_O" horiz-adv-x="2246" 
d="M1464 1479q215 0 378.5 -95.5t251 -266t87.5 -390.5t-87.5 -390.5t-251 -266t-378.5 -95.5q-188 0 -342 80q-154 -80 -342 -80q-214 0 -376.5 95.5t-250 266t-87.5 390.5t87.5 390.5t250 266t376.5 95.5q188 0 342 -80q154 80 342 80zM350 727q0 -151 52 -268
t153.5 -184.5t239.5 -67.5q64 0 123 16q-168 202 -168 504t168 504q-59 16 -123 16q-138 0 -239.5 -67.5t-153.5 -184.5t-52 -268zM1452 207q138 0 239.5 67.5t153 184.5t51.5 268t-51.5 268t-153 184.5t-239.5 67.5q-64 0 -123 -16q168 -202 168 -504t-168 -504
q59 -16 123 -16zM1124 356q115 143 115 371t-115 371q-116 -140 -116 -371t116 -371z" />
    <glyph glyph-name="S_S" horiz-adv-x="2752" 
d="M334 467q37 -268 356 -268q130 0 207.5 55t77.5 154q0 41 -14 71t-36.5 50.5t-65.5 39t-84.5 31t-110.5 31.5q-43 12 -66 18q-191 51 -264 82q-175 76 -224 209q-22 60 -22 133q0 185 159 295.5t406 110.5q264 0 445.5 -113.5t300.5 -349.5l229 -471q42 -83 84 -141.5
t99.5 -107.5t133.5 -73t171 -24q135 0 213.5 54.5t78.5 154.5q0 41 -14 71.5t-36.5 51t-65 38.5t-86 31t-111.5 32q-41 11 -63 17q-190 51 -262 82q-176 75 -226 208q-22 60 -22 134q0 185 155.5 295.5t395.5 110.5q256 0 410.5 -115.5t187.5 -312.5h-283q-17 105 -99.5 157
t-215.5 52q-120 0 -192.5 -45.5t-72.5 -124.5q0 -30 10.5 -54t33 -43t48 -33t67 -28t77 -23.5t89.5 -23.5l24 -6q204 -54 288 -91q181 -81 231 -225q21 -61 21 -137q0 -142 -75 -245t-203.5 -154.5t-296.5 -51.5q-124 0 -224 24t-170 63t-131.5 105t-102.5 131t-89 161
l-225 463q-93 182 -223.5 260t-305.5 78q-125 0 -201.5 -46t-76.5 -124q0 -85 101 -135q57 -27 230 -72q10 -2 17 -4q205 -54 290 -92q180 -80 230 -224q21 -61 21 -137q0 -142 -75 -245t-204 -154.5t-297 -51.5q-291 0 -457.5 133.5t-185.5 358.5h291z" />
    <glyph glyph-name="S_T" horiz-adv-x="2215" 
d="M43 467h291q37 -268 356 -268q130 0 207.5 55t77.5 154q0 41 -14 71t-36.5 50.5t-65.5 39t-84.5 31t-110.5 31.5q-43 12 -66 18q-191 51 -264 82q-175 76 -224 209q-22 60 -22 133q0 182 143.5 281.5t399.5 99.5h1554v-242h-459v-1212h-280v1212h-862q-211 0 -211 -133
q0 -27 11 -49t32.5 -39.5t49 -31.5t65.5 -27t77 -23.5t89 -23.5l24 -6q205 -54 290 -92q180 -80 230 -224q21 -61 21 -137q0 -142 -75 -245t-204 -154.5t-297 -51.5q-290 0 -457 133.5t-186 358.5z" />
    <glyph glyph-name="f_f_j" horiz-adv-x="1689" 
d="M1585 1044v-1077q0 -171 -70 -243t-243 -72h-121v186h76q60 0 79 24.5t19 94.5v909h-309v-866h-258v866h-309v-866h-261v866h-163v178h163v123q0 153 63.5 220t219.5 67h207v-184h-123q-62 0 -84 -25.5t-22 -93.5v-107h309v123q0 154 62.5 220.5t219.5 66.5h205v-184
h-123q-62 0 -84 -25.5t-22 -93.5v-107h569zM1325 1454h260v-246h-260v246z" />
    <glyph glyph-name="f_f_t" horiz-adv-x="1857" 
d="M1812 866h-229v-565q0 -68 21 -91.5t84 -23.5h124v-186h-208q-156 0 -218.5 67t-62.5 216v583h-307v-866h-258v866h-309v-866h-261v866h-163v178h163v123q0 153 63.5 220t219.5 67h207v-184h-123q-62 0 -84 -25.5t-22 -93.5v-107h309v123q0 154 62.5 220.5t219.5 66.5
h205v-184h-123q-62 0 -84 -25.5t-22 -93.5v-107h307v279h260v-279h229v-178z" />
    <glyph glyph-name="f_j" horiz-adv-x="1120" 
d="M1016 1044v-1077q0 -170 -70.5 -242.5t-243.5 -72.5h-120v186h75q61 0 81 25t20 94v909h-309v-866h-261v866h-163v178h163v123q0 153 63.5 220t219.5 67h207v-184h-123q-62 0 -84 -25.5t-22 -93.5v-107h567zM758 1454h258v-246h-258v246z" />
    <glyph glyph-name="f_t" horiz-adv-x="1288" 
d="M1243 866h-229v-565q0 -68 21 -91.5t85 -23.5h123v-186h-209q-154 0 -216 67t-62 216v583h-307v-866h-261v866h-163v178h163v123q0 153 63.5 220t219.5 67h207v-184h-123q-62 0 -84 -25.5t-22 -93.5v-107h307v279h258v-279h229v-178z" />
    <glyph glyph-name="iacute_j" horiz-adv-x="909" 
d="M805 1454v-246h-258v170l-223 -198h-211l198 274h494zM104 0v1044h258v-1044h-258zM547 -43v1087h258v-1077q0 -171 -69.5 -243t-241.5 -72h-123v186h78q60 0 79 24.5t19 94.5z" />
    <glyph glyph-name="r_t" horiz-adv-x="1206" 
d="M1161 866h-229v-565q0 -68 21 -91.5t83 -23.5h125v-186h-209q-154 0 -216 67t-62 216v583h-41q-136 0 -203 -64t-68 -218v-584h-258v1044h252v-194q32 85 109 139.5t194 54.5h15v279h258v-279h229v-178z" />
    <glyph glyph-name="s_t" horiz-adv-x="1611" 
d="M35 338h264q10 -94 74 -140t166 -46q91 0 137.5 40.5t46.5 102.5q0 66 -49.5 94t-192.5 62q-67 16 -112.5 29t-97 32.5t-84.5 42t-61.5 53.5t-42 71.5t-13.5 90.5q0 130 102.5 202t306.5 72h600v279h258v-279h230v-178h-230v-565q0 -68 22 -91.5t85 -23.5h123v-186h-207
q-156 0 -218.5 67t-62.5 216v583h-606q-141 0 -141 -88q0 -22 11.5 -40t27 -29.5t51 -24t64 -20t85.5 -21.5q59 -14 97.5 -24.5t87 -27t79.5 -33t63.5 -41.5t51 -53.5t30 -67.5t11.5 -85q0 -159 -123 -247.5t-329 -88.5q-222 0 -354.5 95.5t-149.5 267.5z" />
    <glyph glyph-name="t_t" horiz-adv-x="1275" 
d="M1231 866h-230v-565q0 -68 21 -91.5t84 -23.5h125v-186h-209q-154 0 -216.5 67t-62.5 216v583h-311v-565q0 -68 22 -91.5t85 -23.5h123v-186h-207q-156 0 -218.5 67t-62.5 216v583h-156v178h156v279h258v-279h311v279h258v-279h230v-178z" />
    <glyph glyph-name="O_O.ss01" horiz-adv-x="2576" 
d="M760 -25q-205 0 -363.5 95.5t-244.5 266.5t-86 390t86 390t244.5 266.5t363.5 95.5q177 0 313.5 -76.5t214.5 -206.5q79 131 213 207t318 76q204 0 362 -95.5t244 -266.5t86 -390t-86 -390t-244 -266.5t-362 -95.5q-187 0 -320.5 75t-210.5 206q-75 -129 -211 -205
t-317 -76zM774 215q146 0 237 72t126 198h303q37 -126 127 -198t235 -72q196 0 309 141.5t113 370.5t-113 370.5t-309 141.5q-139 0 -232.5 -73t-129.5 -197h-303q-35 123 -129.5 196.5t-233.5 73.5q-196 0 -308 -141.5t-112 -370.5t112 -370.5t308 -141.5z" />
    <glyph glyph-name="S_S.ss01" horiz-adv-x="2279" 
d="M334 467q37 -268 356 -268q130 0 207.5 55t77.5 154q0 41 -14 71t-36.5 50.5t-65.5 39t-84.5 31t-110.5 31.5q-43 12 -66 18q-191 51 -264 82q-175 76 -224 209q-22 60 -22 133q0 185 155.5 295.5t395.5 110.5q327 0 494 -191q65 90 187.5 140.5t281.5 50.5
q256 0 410 -115.5t186 -312.5h-283q-17 104 -100 156.5t-216 52.5q-119 0 -191.5 -45.5t-72.5 -124.5q0 -85 101 -135q57 -27 230 -72q10 -2 17 -4q205 -54 290 -92q180 -80 230 -224q21 -61 21 -137q0 -142 -75 -245t-203 -154.5t-295 -51.5q-322 0 -510 170
q-67 -82 -185.5 -126t-269.5 -44q-291 0 -457.5 133.5t-185.5 358.5h291zM373 1090q0 -85 101 -135q57 -27 230 -72q10 -2 17 -4q98 -25 166 -48t136.5 -58t112.5 -78t78.5 -105.5t51.5 -143.5q29 -131 120.5 -189t260.5 -58q134 0 212 54.5t78 154.5q0 41 -16 72t-33.5 50
t-68.5 39.5t-82 30t-113 31.5q-42 12 -65 18q-65 18 -109.5 31t-96.5 32t-88 38t-74 45t-64.5 56t-51 69.5t-41.5 87.5q-78 252 -397 252q-119 0 -191.5 -45.5t-72.5 -124.5z" />
    <glyph glyph-name="f_f_j.ss01" horiz-adv-x="1689" 
d="M1585 1044v-1392h-260v1214h-309v-866h-258v866h-309v-866h-261v866h-163v178h163v123q0 153 63.5 220t219.5 67h207v-184h-123q-62 0 -84 -25.5t-22 -93.5v-107h309v123q0 154 62.5 220.5t219.5 66.5h205v-184h-123q-62 0 -84 -25.5t-22 -93.5v-107h569zM1325 1454h260
v-246h-260v246z" />
    <glyph glyph-name="f_j.ss01" horiz-adv-x="1120" 
d="M1016 1044v-1392h-258v1214h-309v-866h-261v866h-163v178h163v123q0 153 63.5 220t219.5 67h207v-184h-123q-62 0 -84 -25.5t-22 -93.5v-107h567zM758 1454h258v-246h-258v246z" />
    <glyph glyph-name="iacute_j.ss01" horiz-adv-x="909" 
d="M805 1454v-246h-258v170l-223 -198h-211l198 274h494zM104 0v1044h258v-1044h-258zM547 -348v1392h258v-1392h-258z" />
    <glyph glyph-name="Iacute_J.ss02" horiz-adv-x="1593" 
d="M365 1546h-220l203 248h330zM412 1454v-1454h-281v1454h281zM995 -25q-229 0 -353 114t-124 353v50h277v-50q0 -118 50 -172.5t148 -54.5q197 0 197 213v1026h280v-1053q0 -211 -124 -318.5t-351 -107.5z" />
    <glyph glyph-name="uni00CD_uni00A40301.ss02" horiz-adv-x="1593" 
d="M365 1546h-220l203 248h330zM1423 1546h-217l203 248h328zM412 1454v-1454h-281v1454h281zM995 -25q-229 0 -353 114t-124 353v50h277v-50q0 -118 50 -172.5t148 -54.5q197 0 197 213v1026h280v-1053q0 -211 -124 -318.5t-351 -107.5z" />
    <glyph glyph-name="S_T.ss03" horiz-adv-x="2160" 
d="M2128 1454v-242h-457v-1212h-280v1212h-908q-56 0 -93.5 -34t-37.5 -86q0 -86 86 -127l502 -232q136 -64 201 -154t65 -212q0 -164 -113.5 -265.5t-301.5 -101.5h-701v244h682q61 0 101 36.5t40 92.5q0 92 -94 135l-508 237q-121 57 -186.5 146t-65.5 207
q0 157 116.5 256.5t287.5 99.5h1665z" />
    <glyph glyph-name="s_t.ss03" horiz-adv-x="1568" 
d="M1522 854h-230v-553q0 -68 21 -91.5t84 -23.5h125v-186h-209q-155 0 -218 67t-63 216v571h-633q-38 0 -61 -19t-23 -53q0 -29 17 -48.5t63 -41.5l336 -155q103 -48 159 -114t56 -163q0 -129 -85 -194.5t-230 -65.5h-555v193h510q42 0 66 19.5t24 55.5q0 32 -21 56t-71 47
l-330 153q-99 46 -153 110t-54 163q0 118 85.5 182.5t217.5 64.5h682v279h260v-279h230v-190z" />
    <glyph glyph-name="f_f_j.ss04" horiz-adv-x="1689" 
d="M1585 1044v-1259l-260 -172v1253h-309v-866h-258v866h-309v-866h-261v866h-163v178h163v123q0 153 63.5 220t219.5 67h207v-184h-123q-62 0 -84 -25.5t-22 -93.5v-107h309v123q0 154 62.5 220.5t219.5 66.5h205v-184h-123q-62 0 -84 -25.5t-22 -93.5v-107h569zM1325 1454
h260v-246h-260v246z" />
    <glyph glyph-name="f_f_t.ss04" horiz-adv-x="1857" 
d="M1812 866h-229v-565q0 -68 21 -91.5t84 -23.5h124v-186h-208q-156 0 -218.5 67t-62.5 216v583h-307v-866h-258v866h-309v-866h-261v866h-163v178h163v123q0 153 63.5 220t219.5 67h207v-184h-123q-62 0 -84 -25.5t-22 -93.5v-107h309v123q0 154 62.5 220.5t219.5 66.5
h205v-184h-123q-62 0 -84 -25.5t-22 -93.5v-107h307v199l260 180v-379h229v-178z" />
    <glyph glyph-name="f_j.ss04" horiz-adv-x="1120" 
d="M1016 1044v-1259l-258 -172v1253h-309v-866h-261v866h-163v178h163v123q0 153 63.5 220t219.5 67h207v-184h-123q-62 0 -84 -25.5t-22 -93.5v-107h567zM758 1454h258v-246h-258v246z" />
    <glyph glyph-name="f_t.ss04" horiz-adv-x="1288" 
d="M1243 866h-229v-565q0 -68 21 -91.5t85 -23.5h123v-186h-209q-154 0 -216 67t-62 216v583h-307v-866h-261v866h-163v178h163v123q0 153 63.5 220t219.5 67h207v-184h-123q-62 0 -84 -25.5t-22 -93.5v-107h307v199l258 180v-379h229v-178z" />
    <glyph glyph-name="iacute_j.ss04" horiz-adv-x="909" 
d="M805 1454v-246h-258v170l-223 -198h-211l198 274h494zM104 0v1044h258v-1044h-258zM547 -387v1431h258v-1259z" />
    <glyph glyph-name="r_t.ss04" horiz-adv-x="1206" 
d="M1161 866h-229v-565q0 -68 21 -91.5t83 -23.5h125v-186h-209q-154 0 -216 67t-62 216v583h-41q-136 0 -203 -64t-68 -218v-584h-258v1044h252v-194q32 85 109 139.5t194 54.5h15v199l258 180v-379h229v-178z" />
    <glyph glyph-name="s_t.ss04" horiz-adv-x="1611" 
d="M35 338h264q10 -94 74 -140t166 -46q91 0 137.5 40.5t46.5 102.5q0 66 -49.5 94t-192.5 62q-67 16 -112.5 29t-97 32.5t-84.5 42t-61.5 53.5t-42 71.5t-13.5 90.5q0 130 102.5 202t306.5 72h600v199l258 180v-379h230v-178h-230v-565q0 -68 22 -91.5t85 -23.5h123v-186
h-207q-156 0 -218.5 67t-62.5 216v583h-606q-141 0 -141 -88q0 -22 11.5 -40t27 -29.5t51 -24t64 -20t85.5 -21.5q59 -14 97.5 -24.5t87 -27t79.5 -33t63.5 -41.5t51 -53.5t30 -67.5t11.5 -85q0 -159 -123 -247.5t-329 -88.5q-222 0 -354.5 95.5t-149.5 267.5z" />
    <glyph glyph-name="t_t.ss04" horiz-adv-x="1275" 
d="M1231 866h-230v-565q0 -68 21 -91.5t84 -23.5h125v-186h-209q-154 0 -216.5 67t-62.5 216v583h-311v-565q0 -68 22 -91.5t85 -23.5h123v-186h-207q-156 0 -218.5 67t-62.5 216v583h-156v178h156v199l258 180v-379h311v199l258 180v-379h230v-178z" />
    <glyph glyph-name="ordfeminine.ss01" horiz-adv-x="653" 
d="M250 856q-87 0 -144 47.5t-57 130.5q0 82 52.5 123t166.5 70l150 39v22q0 64 -90 64q-44 0 -71.5 -17.5t-31.5 -50.5h-159q9 80 79.5 131t186.5 51q120 0 186 -48t66 -140v-410h-156v103q-34 -115 -178 -115zM301 973q57 0 90 40t33 101v60l-98 -29q-61 -20 -87 -38.5
t-26 -55.5t25 -57.5t63 -20.5z" />
    <glyph glyph-name="ordfeminine.ss06" horiz-adv-x="700" 
d="M291 856q-111 0 -176.5 85t-65.5 222q0 134 65.5 218.5t176.5 84.5q122 0 172 -102v90h160v-586h-160v93q-52 -105 -172 -105zM344 979q57 0 89 47.5t32 136.5q0 86 -32 133t-89 47q-59 0 -92 -47t-33 -133q0 -88 33 -136t92 -48z" />
    <glyph glyph-name="uni03A9.ss01" horiz-adv-x="1566" 
d="M1114 348v-127h354v-221h-583v455q153 30 244.5 134.5t91.5 260.5q0 180 -120.5 291.5t-316.5 111.5q-197 0 -317.5 -111t-120.5 -292q0 -156 91.5 -260.5t244.5 -134.5v-455h-584v221h355v127q-174 67 -276.5 202.5t-102.5 319.5q0 180 90.5 319t252 214.5t367.5 75.5
t367.5 -75.5t252.5 -214.5t91 -319q0 -184 -103 -320t-278 -202z" />
    <glyph glyph-name="one.lf" horiz-adv-x="1013" 
d="M680 225h340v-225h-950v225h340v803h-340v191h57q71 0 123 10t98 35t75 72.5t42 117.5h215v-1229z" />
    <glyph glyph-name="one.lf.ss01" horiz-adv-x="1024" 
d="M690 225h340v-225h-948v225h340v928l-340 -301v289l354 313h254v-1229z" />
    <glyph glyph-name="one.lf.ss02" horiz-adv-x="1017" 
d="M684 225h340v-225h-948v225h340v824q-99 -176 -340 -203v244q146 16 239.5 107t114.5 257h254v-1229z" />
    <glyph glyph-name="one.ss01" horiz-adv-x="770" 
d="M27 1141l354 313h256v-1454h-268v1153l-342 -301v289z" />
    <glyph glyph-name="two.ss01" horiz-adv-x="1228" 
d="M66 219l526 445q57 48 91.5 78t75 72t62 75.5t36.5 74.5t15 83q0 90 -65 152.5t-184 62.5q-131 0 -204.5 -78.5t-82.5 -222.5h-270q11 237 156 377.5t403 140.5q129 0 230.5 -34t164.5 -92.5t96 -133.5t33 -160q0 -73 -22 -137.5t-72 -129.5t-109.5 -122.5t-154.5 -137.5
l-353 -307h717v-225h-1089v219z" />
    <glyph glyph-name="four.ss01" horiz-adv-x="1249" 
d="M1231 541v-211h-238v-330h-229v330h-750v211l711 913h287l-715 -913h467v313h229v-313h238z" />
    <glyph glyph-name="seven.ss01" horiz-adv-x="1103" 
d="M6 1454h1079v-225l-639 -1229h-280l647 1229h-807v225z" />
    <glyph glyph-name="uni2776.ss01" 
d="M844 -25q-153 0 -292.5 59.5t-240 160t-160 240t-59.5 292.5t59.5 292.5t160 240t240 160t292.5 59.5t292 -59.5t239.5 -160t160 -240t59.5 -292.5t-59.5 -292.5t-159.5 -240t-239.5 -160t-292.5 -59.5zM981 319v818h-168l-203 -176v-193l195 172v-621h176z" />
    <glyph glyph-name="uni2779.ss01" 
d="M844 -25q-153 0 -292.5 59.5t-240 160t-160 240t-59.5 292.5t59.5 292.5t160 240t240 160t292.5 59.5t292 -59.5t239.5 -160t160 -240t59.5 -292.5t-59.5 -292.5t-159.5 -240t-239.5 -160t-292.5 -59.5zM1042 319v175h134v139h-134v168h-147v-168h-250l402 504h-183
l-399 -504v-139h430v-175h147z" />
    <glyph glyph-name="uni277C.ss01" 
d="M844 -25q-153 0 -292.5 59.5t-240 160t-160 240t-59.5 292.5t59.5 292.5t160 240t240 160t292.5 59.5t292 -59.5t239.5 -160t160 -240t59.5 -292.5t-59.5 -292.5t-159.5 -240t-239.5 -160t-292.5 -59.5zM811 319l346 672v146h-608v-146h434l-352 -672h180z" />
    <glyph glyph-name="uni2460.ss01" 
d="M844 -25q-153 0 -292.5 59.5t-240 160t-160 240t-59.5 292.5t59.5 292.5t160 240t240 160t292.5 59.5t292 -59.5t239.5 -160t160 -240t59.5 -292.5t-59.5 -292.5t-159.5 -240t-239.5 -160t-292.5 -59.5zM844 104q168 0 308.5 84t221 227t80.5 312t-80.5 312t-221 227
t-308.5 84q-126 0 -239.5 -49.5t-194.5 -133.5t-129 -199t-48 -241t48 -241t129 -199t194.5 -133.5t239.5 -49.5zM610 961l203 176h168v-818h-176v621l-195 -172v193z" />
    <glyph glyph-name="uni2461.ss01" 
d="M844 -25q-153 0 -292.5 59.5t-240 160t-160 240t-59.5 292.5t59.5 292.5t160 240t240 160t292.5 59.5t292 -59.5t239.5 -160t160 -240t59.5 -292.5t-59.5 -292.5t-159.5 -240t-239.5 -160t-292.5 -59.5zM844 104q168 0 308.5 84t221 227t80.5 312t-80.5 312t-221 227
t-308.5 84q-126 0 -239.5 -49.5t-194.5 -133.5t-129 -199t-48 -241t48 -241t129 -199t194.5 -133.5t239.5 -49.5zM524 465l307 250q76 61 107 99.5t31 88.5q0 45 -33.5 74t-89.5 29q-62 0 -98.5 -38t-42.5 -112h-181q8 134 93.5 213.5t232.5 79.5q142 0 221.5 -69.5
t79.5 -170.5q0 -41 -12.5 -76t-43.5 -72t-62 -66t-89 -77l-184 -151h395v-148h-631v146z" />
    <glyph glyph-name="uni2463.ss01" 
d="M844 1479q153 0 292 -59.5t239.5 -160t160 -240t59.5 -292.5t-59.5 -292.5t-159.5 -240t-239.5 -160t-292.5 -59.5t-292.5 59.5t-240 160t-160 240t-59.5 292.5t59.5 292.5t160 240t240 160t292.5 59.5zM844 104q168 0 308.5 84t221 227t80.5 312t-80.5 312t-221 227
t-308.5 84q-126 0 -239.5 -49.5t-194.5 -133.5t-129 -199t-48 -241t48 -241t129 -199t194.5 -133.5t239.5 -49.5zM1042 801v-168h134v-139h-134v-175h-147v175h-430v139l399 504h183l-402 -504h250v168h147z" />
    <glyph glyph-name="uni2466.ss01" 
d="M844 -25q-153 0 -292.5 59.5t-240 160t-160 240t-59.5 292.5t59.5 292.5t160 240t240 160t292.5 59.5t292 -59.5t239.5 -160t160 -240t59.5 -292.5t-59.5 -292.5t-159.5 -240t-239.5 -160t-292.5 -59.5zM844 104q168 0 308.5 84t221 227t80.5 312t-80.5 312t-221 227
t-308.5 84q-126 0 -239.5 -49.5t-194.5 -133.5t-129 -199t-48 -241t48 -241t129 -199t194.5 -133.5t239.5 -49.5zM549 1137h608v-146l-346 -672h-180l352 672h-434v146z" />
    <glyph glyph-name="one.ss02" horiz-adv-x="761" 
d="M20 1090q147 16 240 107t113 257h256v-1454h-269v1049q-102 -176 -340 -203v244z" />
    <glyph glyph-name="uni2776.ss02" 
d="M844 -25q-153 0 -292.5 59.5t-240 160t-160 240t-59.5 292.5t59.5 292.5t160 240t240 160t292.5 59.5t292 -59.5t239.5 -160t160 -240t59.5 -292.5t-59.5 -292.5t-159.5 -240t-239.5 -160t-292.5 -59.5zM981 319v818h-168q-12 -89 -66 -140.5t-137 -60.5v-170
q135 12 195 113v-560h176z" />
    <glyph glyph-name="uni2777.ss02" 
d="M844 -25q-153 0 -292.5 59.5t-240 160t-160 240t-59.5 292.5t59.5 292.5t160 240t240 160t292.5 59.5t292 -59.5t239.5 -160t160 -240t59.5 -292.5t-59.5 -292.5t-159.5 -240t-239.5 -160t-292.5 -59.5zM1155 319v148h-395l184 151q58 48 89 77t62 66t43.5 72t12.5 76
q0 101 -79.5 170.5t-221.5 69.5q-147 0 -232.5 -79.5t-93.5 -213.5h181q6 73 42.5 111.5t98.5 38.5q56 0 89.5 -29t33.5 -74q0 -50 -31 -88.5t-107 -99.5l-307 -250v-146h631z" />
    <glyph glyph-name="uni2460.ss02" 
d="M844 -25q-153 0 -292.5 59.5t-240 160t-160 240t-59.5 292.5t59.5 292.5t160 240t240 160t292.5 59.5t292 -59.5t239.5 -160t160 -240t59.5 -292.5t-59.5 -292.5t-159.5 -240t-239.5 -160t-292.5 -59.5zM844 104q168 0 308.5 84t221 227t80.5 312t-80.5 312t-221 227
t-308.5 84q-126 0 -239.5 -49.5t-194.5 -133.5t-129 -199t-48 -241t48 -241t129 -199t194.5 -133.5t239.5 -49.5zM610 936q83 9 137 60.5t66 140.5h168v-818h-176v560q-60 -101 -195 -113v170z" />
    <glyph glyph-name="four.ss04" horiz-adv-x="1249" 
d="M1231 541v-211h-238v-330h-229v330h-750v211l711 913h287l-715 -913h467v243l229 199v-442h238z" />
    <glyph glyph-name="uni2779.ss04" 
d="M844 -25q-153 0 -292.5 59.5t-240 160t-160 240t-59.5 292.5t59.5 292.5t160 240t240 160t292.5 59.5t292 -59.5t239.5 -160t160 -240t59.5 -292.5t-59.5 -292.5t-159.5 -240t-239.5 -160t-292.5 -59.5zM1042 319v175h134v139h-134v246l-147 -127v-119h-250l402 504h-183
l-399 -504v-139h430v-175h147z" />
    <glyph glyph-name="uni2463.ss04" 
d="M844 1479q153 0 292 -59.5t239.5 -160t160 -240t59.5 -292.5t-59.5 -292.5t-159.5 -240t-239.5 -160t-292.5 -59.5t-292.5 59.5t-240 160t-160 240t-59.5 292.5t59.5 292.5t160 240t240 160t292.5 59.5zM844 104q168 0 308.5 84t221 227t80.5 312t-80.5 312t-221 227
t-308.5 84q-126 0 -239.5 -49.5t-194.5 -133.5t-129 -199t-48 -241t48 -241t129 -199t194.5 -133.5t239.5 -49.5zM1042 879v-246h134v-139h-134v-175h-147v175h-430v139l399 504h183l-402 -504h250v119z" />
    <glyph glyph-name="zero.dnom" horiz-adv-x="788" 
d="M395 -12q-111 0 -191.5 57.5t-119.5 151.5t-39 213q0 184 92 301.5t258 117.5t257 -117.5t91 -301.5q0 -183 -91.5 -302.5t-256.5 -119.5zM395 131q83 0 122.5 77.5t39.5 201.5t-39.5 200t-122.5 76q-84 0 -124 -75.5t-40 -200.5q0 -124 40 -201.5t124 -77.5z" />
    <glyph glyph-name="one.dnom" horiz-adv-x="471" 
d="M20 684h33q83 0 130.5 28.5t60.5 104.5h147v-817h-176v557h-195v127z" />
    <glyph glyph-name="two.dnom" horiz-adv-x="724" 
d="M274 147h400v-147h-631q3 49 12.5 91t21.5 74t36 63.5t43.5 52t56 48t61.5 44t72 45.5q80 47 110.5 81.5t30.5 84.5q0 45 -32.5 73.5t-87.5 28.5q-64 0 -101 -38t-43 -111h-180q8 135 93 213.5t233 78.5q143 0 221 -68.5t78 -170.5q0 -71 -38 -125.5t-126 -112.5
q-16 -11 -60 -42t-61 -44t-45 -36t-42 -42.5t-22 -40.5z" />
    <glyph glyph-name="three.dnom" horiz-adv-x="745" 
d="M231 571q11 117 138 117q56 0 89.5 -24t33.5 -66q0 -98 -140 -98h-28v-135h30q79 0 120.5 -30t41.5 -87q0 -55 -38.5 -86t-104.5 -31q-130 0 -152 119h-182q13 -115 99 -188.5t235 -73.5t238 69t89 185q0 79 -51 132.5t-135 67.5q73 16 116.5 58.5t43.5 111.5
q0 98 -86 157.5t-219 59.5t-222 -67.5t-96 -190.5h180z" />
    <glyph glyph-name="four.dnom" horiz-adv-x="759" 
d="M731 313v-139h-133v-174h-176v174h-399v139l399 504h176v-504h133zM190 313h232v293z" />
    <glyph glyph-name="five.dnom" horiz-adv-x="741" 
d="M418 561q124 0 201 -78t77 -200q0 -128 -88 -211.5t-239 -83.5q-147 0 -234 73.5t-100 182.5h180q12 -54 51.5 -83.5t102.5 -29.5q64 0 102.5 41t38.5 111q0 68 -38.5 107.5t-102.5 39.5q-81 0 -136 -70h-178l56 457h551v-145h-404l-25 -193q69 82 185 82z" />
    <glyph glyph-name="six.dnom" horiz-adv-x="755" 
d="M395 -12q-171 0 -259.5 117.5t-88.5 308.5q0 86 21 159.5t62.5 131.5t110 91t156.5 33q126 0 203 -62t96 -153h-180q-11 35 -42.5 55.5t-76.5 20.5q-170 0 -176 -258q25 50 80.5 84.5t128.5 34.5q124 0 203.5 -77t79.5 -202q0 -126 -89 -205t-229 -79zM387 129
q61 0 101 41.5t40 103.5t-40 104t-101 42t-101 -42t-40 -104t40 -103.5t101 -41.5z" />
    <glyph glyph-name="seven.dnom" horiz-adv-x="645" 
d="M18 817h609v-145q-52 -40 -93.5 -84.5t-70.5 -85.5t-52 -94t-36.5 -94t-26 -102.5t-18.5 -102t-15 -109.5h-188q12 88 24.5 152t37.5 140.5t59 136.5t88.5 124t126.5 119h-445v145z" />
    <glyph glyph-name="eight.dnom" horiz-adv-x="761" 
d="M551 440q78 -28 122 -80.5t44 -123.5q0 -113 -93.5 -180.5t-242.5 -67.5q-153 0 -244.5 67t-91.5 181q0 71 43 123.5t121 80.5q-137 54 -137 176q0 97 87 155t222 58q133 0 221 -58.5t88 -154.5q0 -123 -139 -176zM381 692q-58 0 -94.5 -26.5t-36.5 -67.5
q0 -43 36.5 -69.5t94.5 -26.5t94.5 26.5t36.5 69.5q0 41 -36.5 67.5t-94.5 26.5zM381 131q69 0 111.5 34t42.5 89t-42.5 89t-111.5 34q-70 0 -112 -33.5t-42 -89.5t42 -89.5t112 -33.5z" />
    <glyph glyph-name="nine.dnom" horiz-adv-x="755" 
d="M362 829q169 0 259 -117.5t90 -308.5q0 -68 -13.5 -129t-41.5 -113.5t-69 -90.5t-99.5 -60t-129.5 -22q-125 0 -201.5 62t-97.5 153h181q26 -76 120 -76q82 0 127 65t48 193q-24 -50 -79 -84.5t-128 -34.5q-124 0 -203.5 77t-79.5 202q0 126 88 205t229 79zM369 688
q-61 0 -101.5 -41.5t-40.5 -103.5t40.5 -104t101.5 -42t102 42t41 104t-41 103.5t-102 41.5z" />
    <glyph glyph-name="zero.numr" horiz-adv-x="790" 
d="M395 625q-165 0 -256.5 119.5t-91.5 302.5q0 184 91 301.5t257 117.5t257 -117.5t91 -301.5q0 -183 -91.5 -302.5t-256.5 -119.5zM395 768q84 0 124 77.5t40 201.5q0 125 -40 200.5t-124 75.5q-83 0 -123.5 -76t-40.5 -200q0 -123 40.5 -201t123.5 -78z" />
    <glyph glyph-name="one.numr" horiz-adv-x="471" 
d="M20 1321h33q83 0 130.5 28.5t60.5 104.5h147v-817h-176v557h-195v127z" />
    <glyph glyph-name="two.numr" horiz-adv-x="722" 
d="M274 784h400v-147h-631q3 49 12.5 91t21.5 74t36 63.5t43.5 52t56 48t61.5 44t72 45.5q80 47 110.5 81.5t30.5 84.5q0 45 -32.5 73.5t-87.5 28.5q-64 0 -101 -38t-43 -111h-180q8 135 93 213.5t233 78.5q143 0 221 -68.5t78 -170.5q0 -71 -38 -125.5t-126 -112.5
q-16 -11 -60 -42t-61 -44t-45 -36t-42 -42.5t-22 -40.5z" />
    <glyph glyph-name="three.numr" horiz-adv-x="745" 
d="M231 1208q11 117 138 117q56 0 89.5 -24t33.5 -66q0 -98 -140 -98h-28v-136h30q162 0 162 -116q0 -55 -38.5 -86t-104.5 -31q-130 0 -152 119h-182q13 -115 99 -188.5t235 -73.5t238 69t89 185q0 79 -51 132.5t-135 67.5q73 16 116.5 58.5t43.5 111.5q0 98 -86 157.5
t-219 59.5t-222 -67.5t-96 -190.5h180z" />
    <glyph glyph-name="four.numr" horiz-adv-x="757" 
d="M731 950v-139h-133v-174h-178v174h-400v139l400 504h178v-504h133zM188 950h232v291z" />
    </font>
</defs>
</svg>
